<svg id="图层_1" data-name="图层 1" xmlns="http://www.w3.org/2000/svg" viewBox="0 0 244.66 244.66"><defs><style>.cls-1{fill:#fff;}.cls-2{fill:none;stroke:#000;stroke-miterlimit:10;stroke-width:2px;}</style></defs><g id="图片1"><polygon class="cls-1" points="122.33 232.64 115.97 239 5.66 128.69 12.02 122.33 5.66 115.97 115.97 5.66 122.33 12.02 128.69 5.66 239 115.97 232.64 122.33 239 128.69 128.69 239 122.33 232.64"/><path d="M606.36,489,711,593.64l-.71.7L704.65,600l5.66,5.66.71.7L606.36,711l-.7-.71L600,704.65l-5.66,5.66-.7.71L489,606.36l.71-.7,5.66-5.66-5.66-5.66-.71-.7L593.64,489l.7.71,5.66,5.66,5.66-5.66.7-.71m0-11.31L600,484l-6.36-6.36-116,116L484,600l-6.36,6.36,116,116L600,716l6.36,6.36,116-116L716,600l6.36-6.36-116-116Z" transform="translate(-477.67 -477.67)"/><path d="M594.39,495.62l3.84,3.85,1.77,1.77,1.77-1.77,3.84-3.85,98.77,98.77-3.85,3.84L698.76,600l1.77,1.77,3.85,3.84-98.77,98.77-3.84-3.85L600,698.76l-1.77,1.77-3.84,3.85-98.77-98.77,3.85-3.84,1.77-1.77-1.77-1.77-3.85-3.84,98.77-98.77m11.22-3.53L600,497.7l-5.61-5.61-102.3,102.3L497.7,600l-5.61,5.61,102.3,102.3L600,702.3l5.61,5.61,102.3-102.3L702.3,600l5.61-5.61-102.3-102.3Z" transform="translate(-477.67 -477.67)"/><g id="圆_左上" data-name="圆 左上"><circle class="cls-2" cx="32.33" cy="122.33" r="5.2"/><circle cx="32.33" cy="122.33" r="2.6"/></g><g id="圆_右上" data-name="圆 右上"><circle class="cls-2" cx="122.33" cy="32.33" r="5.2"/><circle cx="122.33" cy="32.33" r="2.6"/></g><g id="圆_左下" data-name="圆 左下"><circle class="cls-2" cx="122.33" cy="212.33" r="5.2"/><circle cx="122.33" cy="212.33" r="2.6"/></g><g id="圆_右下" data-name="圆 右下"><circle class="cls-2" cx="212.33" cy="122.33" r="5.2"/><circle cx="212.33" cy="122.33" r="2.6"/></g></g></svg>