<svg id="图层_1" data-name="图层 1" xmlns="http://www.w3.org/2000/svg" viewBox="0 0 182 182"><path d="M691,518V682h-9v9H518v-9h-9V518h9v-9H682v9Zm-8,156V526h-9v-9H526v9h-9V674h9v9H674v-9h9Z" transform="translate(-509 -509)"/><path d="M680.28,527.66V672.34h-7.94v7.94H527.66v-7.94h-7.94V527.66h7.94v-7.94H672.34v7.94Zm-2.5,142.18V530.16h-7.94v-7.94H530.16v7.94h-7.94V669.84h7.94v7.94H669.84v-7.94h7.94Z" transform="translate(-509 -509)"/><g id="圆_左上" data-name="圆 左上"><circle cx="27.36" cy="154.64" r="5.2" style="fill:none;stroke:#000;stroke-miterlimit:10;stroke-width:2px"/><circle cx="27.36" cy="154.64" r="2.6"/></g><g id="圆_右上" data-name="圆 右上"><circle cx="27.36" cy="27.36" r="5.2" style="fill:none;stroke:#000;stroke-miterlimit:10;stroke-width:2px"/><circle cx="27.36" cy="27.36" r="2.6"/></g><g id="圆_左下" data-name="圆 左下"><circle cx="154.64" cy="154.64" r="5.2" style="fill:none;stroke:#000;stroke-miterlimit:10;stroke-width:2px"/><circle cx="154.64" cy="154.64" r="2.6"/></g><g id="圆_右下" data-name="圆 右下"><circle cx="154.64" cy="27.36" r="5.2" style="fill:none;stroke:#000;stroke-miterlimit:10;stroke-width:2px"/><circle cx="154.64" cy="27.36" r="2.6"/></g></svg>