<svg id="图层_1" data-name="图层 1" xmlns="http://www.w3.org/2000/svg" viewBox="0 0 182 182"><polygon points="18.66 171.28 163.34 171.28 163.34 163.34 165 163.34 165 165 165 173 165 174 17 174 17 173 17 171.28 18.66 171.28" style="fill:#fff"/><polygon points="174 17 174 165 173 165 165 165 165 163.34 171.28 163.34 171.28 18.66 171.28 17 173 17 174 17" style="fill:#fff"/><polygon points="163.34 10.72 18.66 10.72 17 10.72 17 9 17 8 165 8 165 9 165 17 171.28 17 171.28 18.66 163.34 18.66 163.34 10.72" style="fill:#fff"/><polygon points="18.66 163.34 18.66 171.28 17 171.28 17 165 9 165 8 165 8 17 9 17 17 17 17 10.72 18.66 10.72 18.66 18.66 10.72 18.66 10.72 163.34 18.66 163.34" style="fill:#fff"/><path d="M691,518V682h-9v9H518v-9h-9V518h9v-9H682v9Zm-8,156V526h-9v-9H526v9h-9V674h9v9H674v-9h9Z" transform="translate(-509 -509)"/><path d="M530.16,677.78H669.84v-7.94h7.94V530.16h-7.94v-7.94H530.16v7.94h-7.94V669.84h7.94v7.94Zm-2.5-158.06H672.34v7.94h7.94V672.34h-7.94v7.94H527.66v-7.94h-7.94V527.66h7.94Z" transform="translate(-509 -509)"/></svg>