<svg id="图层_1" data-name="图层 1" xmlns="http://www.w3.org/2000/svg" viewBox="0 0 182 182"><polygon points="13 178 13 169 4 169 4 13 13 13 13 4 169 4 169 13 178 13 178 169 169 169 169 178 13 178" style="fill:#fff"/><path d="M674,517v9h9V674h-9v9H526v-9h-9V526h9v-9H674m8-8H518v9h-9V682h9v9H682v-9h9V518h-9v-9Z" transform="translate(-509 -509)"/><path d="M669.84,522.22v7.94h7.94V669.84h-7.94v7.94H530.16v-7.94h-7.94V530.16h7.94v-7.94H669.84m2.5-2.5H527.66v7.94h-7.94V672.34h7.94v7.94H672.34v-7.94h7.94V527.66h-7.94v-7.94Z" transform="translate(-509 -509)"/><g id="圆_左上" data-name="圆 左上"><circle cx="27.36" cy="154.64" r="5.2" style="fill:none;stroke:#000;stroke-miterlimit:10;stroke-width:2px"/><circle cx="27.36" cy="154.64" r="2.6"/></g><g id="圆_右上" data-name="圆 右上"><circle cx="27.36" cy="27.36" r="5.2" style="fill:none;stroke:#000;stroke-miterlimit:10;stroke-width:2px"/><circle cx="27.36" cy="27.36" r="2.6"/></g><g id="圆_左下" data-name="圆 左下"><circle cx="154.64" cy="154.64" r="5.2" style="fill:none;stroke:#000;stroke-miterlimit:10;stroke-width:2px"/><circle cx="154.64" cy="154.64" r="2.6"/></g><g id="圆_右下" data-name="圆 右下"><circle cx="154.64" cy="27.36" r="5.2" style="fill:none;stroke:#000;stroke-miterlimit:10;stroke-width:2px"/><circle cx="154.64" cy="27.36" r="2.6"/></g></svg>