<svg id="图层_1" data-name="图层 1" xmlns="http://www.w3.org/2000/svg" viewBox="0 0 244.72 244.72"><g id="图片1"><polygon points="122.36 232.67 116 239.03 5.69 128.72 12.05 122.36 5.69 116 116 5.69 122.36 12.05 128.72 5.69 239.03 116 232.67 122.36 239.03 128.72 128.72 239.03 122.36 232.67" style="fill:#fff"/><path d="M128.69,11.33,233.33,116l-.71.7L227,122.33l5.66,5.66.71.7L128.69,233.33l-.7-.71L122.33,227l-5.66,5.66-.7.71L11.33,128.69,12,128l5.66-5.66L12,116.67l-.71-.7L116,11.33l.7.71,5.66,5.66L128,12l.7-.71m0-11.31-6.36,6.31L116,0,0,116l6.36,6.36L0,128.69l116,116,6.36-6.36,6.36,6.36,116-116-6.36-6.36,6.36-6.36L128.69,0Z" transform="translate(0.03 0.03)" style="fill:red"/><path d="M116.72,18l3.84,3.85,1.77,1.77,1.77-1.77L127.94,18l98.77,98.77-3.85,3.84-1.77,1.77,1.77,1.77,3.85,3.84-98.77,98.77-3.84-3.85-1.77-1.77-1.77,1.77-3.84,3.85L18,127.94l3.85-3.84,1.77-1.77-1.77-1.77L18,116.72,116.72,18m11.22-3.53L122.33,20l-5.61-5.61L14.42,116.72,20,122.33l-5.61,5.61,102.3,102.3,5.61-5.61,5.61,5.61,102.3-102.3-5.61-5.61,5.61-5.61L127.94,14.42Z" transform="translate(0.03 0.03)" style="fill:red"/><g id="圆_左上" data-name="圆 左上"><circle cx="32.36" cy="122.36" r="5.2" style="fill:none;stroke:red;stroke-miterlimit:10;stroke-width:2px"/><circle cx="32.36" cy="122.36" r="2.6" style="fill:red"/></g><g id="圆_右上" data-name="圆 右上"><circle cx="122.36" cy="32.36" r="5.2" style="fill:none;stroke:red;stroke-miterlimit:10;stroke-width:2px"/><circle cx="122.36" cy="32.36" r="2.6" style="fill:red"/></g><g id="圆_左下" data-name="圆 左下"><circle cx="122.36" cy="212.36" r="5.2" style="fill:none;stroke:red;stroke-miterlimit:10;stroke-width:2px"/><circle cx="122.36" cy="212.36" r="2.6" style="fill:red"/></g><g id="圆_右下" data-name="圆 右下"><circle cx="212.36" cy="122.36" r="5.2" style="fill:none;stroke:red;stroke-miterlimit:10;stroke-width:2px"/><circle cx="212.36" cy="122.36" r="2.6" style="fill:red"/></g></g></svg>