<svg id="图层_1" data-name="图层 1" xmlns="http://www.w3.org/2000/svg" viewBox="0 0 364 364"><g id="边框4"><rect x="4" y="4" width="356" height="356" style="fill:#fff"/><path d="M774,426V774H426V426H774m8-8H418V782H782V418Z" transform="translate(-418 -418)"/><rect x="765.5749" y="436.2709" width="2.8923" height="6.0201" transform="translate(-503.9633 253.0282) rotate(-45)"/><rect x="759.2729" y="429.9688" width="2.8923" height="6.0201" transform="translate(-501.3529 246.7262) rotate(-45)"/><rect x="756.1219" y="433.1281" width="2.8923" height="6.0602" transform="translate(-504.5222 245.4356) rotate(-45.0004)"/><rect x="762.4239" y="439.4702" width="2.8923" height="5.9801" transform="translate(-507.1343 251.7313) rotate(-45)"/><rect x="752.9566" y="436.2933" width="2.8923" height="6.0603" transform="translate(-507.6891 244.1182) rotate(-45)"/><rect x="759.2587" y="442.6355" width="2.8923" height="5.9801" transform="translate(-510.2995 250.4202) rotate(-45)"/><rect x="428.6636" y="762.4239" width="14.9326" height="2.8923" transform="translate(249.8772 -502.6581) rotate(45)"/><rect x="434.6979" y="754.5437" width="2.8923" height="6.0202" transform="translate(-825.9278 112.2828) rotate(-45)"/><rect x="441" y="760.8458" width="2.8923" height="6.0202" transform="translate(-828.5418 118.5983) rotate(-45.0009)"/><rect x="444.1652" y="757.6806" width="2.8923" height="6.0202" transform="translate(-825.3695 119.8826) rotate(-44.9991)"/><rect x="437.8632" y="751.3785" width="2.8923" height="6.0202" transform="translate(-822.7643 113.6003) rotate(-45.0004)"/><rect x="756.4037" y="762.4239" width="14.9326" height="2.8923" transform="translate(1426.1454 345.87) rotate(135)"/><rect x="753.2386" y="759.2587" width="14.9326" height="2.8923" transform="translate(1418.504 342.7048) rotate(135)"/><rect x="750.0734" y="756.0935" width="14.9326" height="2.8923" transform="translate(1410.8625 339.5396) rotate(135)"/><rect x="431.8289" y="437.849" width="14.9326" height="2.8923" transform="translate(642.5523 21.2951) rotate(135)"/><rect x="428.6637" y="434.6838" width="14.9326" height="2.8923" transform="translate(634.9109 18.1299) rotate(135)"/><rect x="442.6013" y="437.8631" width="6.0201" height="2.8923" transform="translate(-598.122 25.7655) rotate(-45)"/><rect x="436.2992" y="444.1652" width="6.0201" height="2.8923" transform="translate(-604.4241 23.1551) rotate(-45)"/><polygon points="19.986 34 3.986 18 2 18 2 19 18.5 35.5 18.5 36 18.5 328 18.5 328.5 2 345 2 346 3.986 346 19.986 330 21.5 328.5 21.5 328 21.5 36 21.5 35.5 19.986 34"/><polygon points="330 19.986 346 3.986 346 2 345 2 328.5 18.5 328 18.5 36 18.5 35.5 18.5 19 2 18 2 18 3.986 34 19.986 35.5 21.5 36 21.5 328 21.5 328.5 21.5 330 19.986"/><polygon points="344.014 330 360.014 346 362 346 362 345 345.5 328.5 345.5 328 345.5 36 345.5 35.5 362 19 362 18 360.014 18 344.014 34 342.5 35.5 342.5 36 342.5 328 342.5 328.5 344.014 330"/><polygon points="34 344.014 18 360.014 18 362 19 362 35.5 345.5 36 345.5 328 345.5 328.5 345.5 345 362 346 362 346 360.014 330 344.014 328.5 342.5 328 342.5 36 342.5 35.5 342.5 34 344.014"/><line x1="335.5" y1="13.5" x2="28.5" y2="13.5" style="fill:none;stroke:#000;stroke-miterlimit:10;stroke-width:2px"/><line x1="350.5" y1="335.5" x2="350.5" y2="28.5" style="fill:none;stroke:#000;stroke-miterlimit:10;stroke-width:2px"/><line x1="28.5" y1="350.5" x2="335.5" y2="350.5" style="fill:none;stroke:#000;stroke-miterlimit:10;stroke-width:2px"/><line x1="13.5" y1="28.5" x2="13.5" y2="335.5" style="fill:none;stroke:#000;stroke-miterlimit:10;stroke-width:2px"/></g></svg>