<svg id="图层_1" data-name="图层 1" xmlns="http://www.w3.org/2000/svg" viewBox="0 0 844 120"><defs><style>.cls-1{fill:none;}</style></defs><rect class="cls-1" width="844" height="120"/><polygon points="302 108 410 0 406 0 302 104 258 60 318 0 314 0 254 60 302 108"/><polygon points="314 120 318 120 362 76 406 120 410 120 362 72 314 120"/><path d="M547,100H537l60,60-55,55-60-60-55-55H417l-55,55-60,60-55-55,60-60H297l-60,60,60,60h10l55-55,55,55h10l55-55,55,55h10l60-60ZM422,215l-55-55,55-55,55,55Z" transform="translate(0 -100)"/><polygon points="542 108 434 0 438 0 542 104 586 60 526 0 530 0 590 60 542 108"/><polygon points="530 120 526 120 482 76 438 120 434 120 482 72 530 120"/></svg>