<svg id="图层_1" data-name="图层 1" xmlns="http://www.w3.org/2000/svg" xmlns:xlink="http://www.w3.org/1999/xlink" viewBox="0 0 1000 1000"><defs><clipPath id="clip-path"><path d="M656.1875,601.1284s8.6364,21.9445-5.0036,32.7664C651.1839,633.8948,641.2284,616.8052,656.1875,601.1284Z" style="fill:none;stroke:#fff;stroke-miterlimit:10;stroke-width:5.487654102927731px"/></clipPath><clipPath id="clip-path-2"><path d="M705.3189,665.15c2.5521-17.2236,25.8747-20.7165,25.8747-20.7165C725.0967,665.2265,705.3189,665.15,705.3189,665.15Z" style="fill:none;stroke:#fff;stroke-miterlimit:10;stroke-width:5.487654102927731px"/></clipPath><clipPath id="clip-path-3"><path d="M333.7881,583.8445s-23.3225-3.4928-25.8749-20.7164C307.9132,563.1281,327.6913,563.051,333.7881,583.8445Z" style="fill:none;stroke:#fff;stroke-miterlimit:10;stroke-width:5.487654102927731px"/></clipPath><clipPath id="clip-path-4"><path d="M253.7786,594.383c13.64,10.822,5.0033,32.7663,5.0033,32.7663C243.8229,611.4728,253.7786,594.383,253.7786,594.383Z" style="fill:none;stroke:#fff;stroke-miterlimit:10;stroke-width:5.487654102927731px"/></clipPath><clipPath id="clip-path-5"><path d="M509.9564,313.2806s14.686-18.4517,30.8781-12.05C540.8345,301.23,531.0123,318.3972,509.9564,313.2806Z" style="fill:none;stroke:#fff;stroke-miterlimit:10;stroke-width:5.487654102927731px"/></clipPath><clipPath id="clip-path-6"><path d="M540.8344,238.7208c-16.1919,6.4016-30.8782-12.05-30.8782-12.05C531.0121,221.554,540.8344,238.7208,540.8344,238.7208Z" style="fill:none;stroke:#fff;stroke-miterlimit:10;stroke-width:5.487654102927731px"/></clipPath></defs><g id="右"><circle id="右-2" data-name="右" cx="499.9999" cy="500" r="490.0001" transform="translate(-207.1068 499.9999) rotate(-45)" style="fill:#1a1a1a"/><g id="右-3" data-name="右"><circle cx="499.9999" cy="500" r="178.3488" transform="translate(-207.1068 499.9999) rotate(-45)" style="fill:#b53f3f"/><path d="M500,340.858A159.142,159.142,0,1,1,340.858,500,159.1421,159.1421,0,0,1,500,340.858m0-38.4136a197.0552,197.0552,0,1,0,76.9094,15.5406A196.3567,196.3567,0,0,0,500,302.4444Z"/><path d="M500,340.858A159.142,159.142,0,1,1,340.8581,500,159.1421,159.1421,0,0,1,500,340.858m0-5.4876a164.6295,164.6295,0,1,0,116.4108,48.2188A163.5517,163.5517,0,0,0,500,335.37Z" style="fill:#ccc"/></g><g id="几何图形"><path d="M636.6071,463.332,657.77,500l-21.163,36.6679V507.7252c.1632-2.557.2176-5.1139.2176-7.7253s-.0544-5.1683-.2176-7.7253Z" style="fill:#ffbdbd"/><path d="M636.6071,536.6678v42.2171l-36.6135,21.1086,14.6889-25.4065a113.64,113.64,0,0,0,7.1813-12.4583Z" style="fill:#ffbdbd"/><path d="M636.6071,492.2746v15.4506a134.8772,134.8772,0,0,1-14.7433,54.4035l-3.5363,6.202-.3264-.1633L578.613,500l39.3881-68.1675.3264-.1633,3.5363,6.202A134.8772,134.8772,0,0,1,636.6071,492.2746Z" style="fill:#943131"/><path d="M636.6071,421.1149V463.332l-14.7433-25.4609a113.6505,113.6505,0,0,0-7.1813-12.4584l-14.6889-25.4064Z" style="fill:#ffbdbd"/><path d="M618.3275,431.6691l-.3264.1633H539.2793L500,363.828v-.4352h7.7253a134.8772,134.8772,0,0,1,54.4035,14.7433l12.4584,7.1813a136.73,136.73,0,0,1,40.0953,40.0953Z" style="fill:#943131"/><path d="M618.3275,568.3307l-3.645,6.2563a136.73,136.73,0,0,1-40.0953,40.0954l-12.4584,7.1813a134.8772,134.8772,0,0,1-54.4035,14.7433H500v-.4352l39.2793-68.0044h78.7218Z" style="fill:#943131"/><polygon points="618.001 431.832 578.613 500 539.279 431.832 618.001 431.832" style="fill:#b53f3f"/><polygon points="578.613 500 618.001 568.167 539.279 568.167 578.613 500" style="fill:#b53f3f"/><path d="M599.9936,400.0063l-25.4064-14.6889a113.6505,113.6505,0,0,0-12.4584-7.1813l-25.4609-14.7433H578.885Z" style="fill:#ffbdbd"/><path d="M574.5872,614.6824l25.4064-14.6889L578.885,636.607H536.6679l25.4609-14.7433A113.6505,113.6505,0,0,0,574.5872,614.6824Z" style="fill:#ffbdbd"/><polygon points="539.279 568.167 500 636.172 460.721 568.167 539.279 568.167" style="fill:#b53f3f"/><polygon points="500 363.828 539.279 431.832 460.721 431.832 500 363.828" style="fill:#b53f3f"/><path d="M536.6679,363.3928H507.7253c-2.557-.1632-5.1139-.2176-7.7253-.2176s-5.1683.0544-7.7253.2176H463.3321L500,342.23Z" style="fill:#ffbdbd"/><path d="M536.6679,636.607,500,657.77l-36.6679-21.163h28.9426c2.557.1632,5.1139.2176,7.7253.2176s5.1683-.0544,7.7253-.2176Z" style="fill:#ffbdbd"/><path d="M500,636.1718v.4352h-7.7253a134.8772,134.8772,0,0,1-54.4035-14.7433l-12.4584-7.1813a136.73,136.73,0,0,1-40.0953-40.0954l-3.645-6.2563.3264-.1633h78.7218Z" style="fill:#943131"/><path d="M500,363.3928v.4352l-39.2793,68.0044H381.9989l-.3264-.1633,3.645-6.2564a136.73,136.73,0,0,1,40.0953-40.0953l12.4584-7.1813a134.8772,134.8772,0,0,1,54.4035-14.7433Z" style="fill:#943131"/><path d="M463.3321,363.3928l-25.4609,14.7433a113.6505,113.6505,0,0,0-12.4584,7.1813l-25.4064,14.6889,21.1086-36.6135Z" style="fill:#ffbdbd"/><path d="M463.3321,636.607H421.115l-21.1086-36.6135,25.4064,14.6889a113.6505,113.6505,0,0,0,12.4584,7.1813Z" style="fill:#ffbdbd"/><polygon points="460.721 431.832 421.387 500 381.999 431.832 460.721 431.832" style="fill:#b53f3f"/><polygon points="421.387 500 460.721 568.167 381.999 568.167 421.387 500" style="fill:#b53f3f"/><path d="M421.387,500l-39.3881,68.1675-.3264.1633-3.5363-6.202a134.8772,134.8772,0,0,1-14.7433-54.4035V492.2746a134.8772,134.8772,0,0,1,14.7433-54.4035l3.5363-6.202.3264.1633Z" style="fill:#943131"/><path d="M400.0064,400.0063l-14.6889,25.4064a113.6505,113.6505,0,0,0-7.1813,12.4584L363.3929,463.332V421.1149Z" style="fill:#ffbdbd"/><path d="M400.0064,599.9935l-36.6135-21.1086V536.6678l14.7433,25.4609a113.64,113.64,0,0,0,7.1813,12.4583Z" style="fill:#ffbdbd"/><path d="M363.3929,507.7252v28.9426L342.23,500l21.163-36.6679v28.9426c-.1632,2.557-.2176,5.1139-.2176,7.7253S363.23,505.1682,363.3929,507.7252Z" style="fill:#ffbdbd"/><circle cx="446.564" cy="404.3775" r="16.8745" style="fill:#e6634d"/><circle cx="390.4706" cy="498.4657" r="16.8745" style="fill:#e6634d"/><circle cx="443.9066" cy="594.088" r="16.8745" style="fill:#e6634d"/><circle cx="553.436" cy="595.6223" r="16.8745" style="fill:#e6634d"/><circle cx="609.5294" cy="501.5341" r="16.8745" style="fill:#e6634d"/><circle cx="556.0934" cy="405.9117" r="16.8745" style="fill:#e6634d"/></g><g id="右-4" data-name="右"><circle cx="500.0001" cy="500" r="62.5596" transform="translate(-73.6349 913.4526) rotate(-80.7825)" style="fill:#ccc"/><path d="M500,453.3549A46.6451,46.6451,0,1,1,453.3549,500,46.6451,46.6451,0,0,1,500,453.3549m0-31.8283A78.4734,78.4734,0,1,0,578.4734,500,78.5622,78.5622,0,0,0,500,421.5266Z" style="fill:#1a1a1a"/></g><g id="唱片线" style="opacity:0.4"><circle id="右-5" data-name="右" cx="499.9999" cy="500" r="439.0124" transform="translate(-207.1068 499.9999) rotate(-45)" style="fill:none;stroke:#fff;stroke-miterlimit:10;stroke-width:5.487654102927731px"/><circle id="右-6" data-name="右" cx="499.9999" cy="500" r="356.6976" transform="translate(-207.1068 500) rotate(-45)" style="fill:none;stroke:#fff;stroke-miterlimit:10;stroke-width:5.487654102927731px"/></g><g id="蛇" style="opacity:0.4"><path d="M543.635,300.3828A203.9822,203.9822,0,0,1,699.2325,542.0606c-2.6359,4.5654-23.8834,4.0383-34.992,23.279s-23.7418,97.6066-1.24,110.598,84.0522-37.1318,95.161-56.3727-.5424-37.7075,2.0935-42.273c35.38-117.8862-13.2461-248.8858-124.47-313.1007a270.7232,270.7232,0,0,0-103.885-34.577" style="fill:none;stroke:#fff;stroke-linecap:round;stroke-linejoin:round;stroke-width:5.487654102927731px"/><path d="M758.5923,582.1193c-2.5322-.7931-6.1431,2.6559-9.1378,6.1705-3.1519,3.4724-7.4109,8.6626-7.4109,8.6626" style="fill:none;stroke:#fff;stroke-linecap:round;stroke-linejoin:round;stroke-width:4.1157405771957984px"/><path d="M758.5921,582.12a48.1966,48.1966,0,0,0-.1245-9.2481c-.4917-4.7112-1.6666-9.4652-4.2493-10.0927-2.5645-.6232-5.9924,2.8785-8.748,6.42-.392.5221-.7772,1.0438-1.1491,1.5543" style="fill:none;stroke:#fff;stroke-linecap:round;stroke-linejoin:round;stroke-width:4.1157405771957984px"/><path d="M767.1125,547.7227c-2.638-.4626-5.6125,3.4514-8.309,7.2868a78.8745,78.8745,0,0,0-4.5852,7.7693" style="fill:none;stroke:#fff;stroke-linecap:round;stroke-linejoin:round;stroke-width:4.1157405771957984px"/><path d="M700.28,535.71c2.579.4513,4.472,4.2332,5.3245,7.9437a50.0009,50.0009,0,0,1,1.2086,7.3841" style="fill:none;stroke:#fff;stroke-linecap:round;stroke-linejoin:round;stroke-width:4.1157405771957984px"/><path d="M754.2183,562.7788a68.273,68.273,0,0,0-.8524-8.93c-.6855-4.4867-2.4393-9.0481-5.0191-9.4994-2.1791-.3862-4.5173,2.0083-6.78,4.8193a55.8529,55.8529,0,0,0-3.9171,5.6554" style="fill:none;stroke:#fff;stroke-linecap:round;stroke-linejoin:round;stroke-width:4.1157405771957984px"/><path d="M703.2431,558.7242s5.3442-10.8236,7.799-13.91c2.5294-3.0588,5.3652-6.1943,8.0035-5.7316,2.1149.3738,3.7641,3.2043,4.6813,6.4362a39.2511,39.2511,0,0,1,.977,4.5433" style="fill:none;stroke:#fff;stroke-linecap:round;stroke-linejoin:round;stroke-width:4.1157405771957984px"/><path d="M693.1262,566.8317s4.7212-14.1835-.2909-21.4415" style="fill:none;stroke:#fff;stroke-linecap:round;stroke-linejoin:round;stroke-width:4.1157405771957984px"/><path d="M748.347,544.349s-.1811-1.3732-.5854-3.4331a45.6579,45.6579,0,0,0-2.0535-7.5524c-2.0235-5.5223-5.0824-10.9-9.2785-11.2768-4.0415-.3614-8.3768,4.0932-11.6148,8.4087-1.5736,2.1764-3.0922,4.3121-4.127,5.9156-1.0384,1.603-1.642,2.6718-1.642,2.6718" style="fill:none;stroke:#fff;stroke-linecap:round;stroke-linejoin:round;stroke-width:4.1157405771957984px"/><path d="M767.1125,547.7227a64.6822,64.6822,0,0,0-1.2739-9.1417c-1.1488-4.6112-2.9887-9.1791-5.6217-9.4663s-5.5193,3.6351-7.7419,7.5092a84.7291,84.7291,0,0,0-4.1284,7.7257" style="fill:none;stroke:#fff;stroke-linecap:round;stroke-linejoin:round;stroke-width:4.1157405771957984px"/><path d="M771.1491,512.5318c-2.5855-.1127-5.3,4.1357-7.3458,8.2953-1.9784,4.1783-3.5863,8.2881-3.5863,8.2881" style="fill:none;stroke:#fff;stroke-linecap:round;stroke-linejoin:round;stroke-width:4.1157405771957984px"/><path d="M703.3242,509.2562c2.7062.1189,4.8019,3.6089,6.2583,7.1894a35.0963,35.0963,0,0,1,2.1085,7.1619" style="fill:none;stroke:#fff;stroke-linecap:round;stroke-linejoin:round;stroke-width:4.1157405771957984px"/><path d="M760.217,529.1152a48.3984,48.3984,0,0,0-1.9558-8.736c-1.3919-4.3685-3.45-8.6478-6.1563-8.767-4.3036-.1356-8.7046,10.4892-10.2942,14.0913" style="fill:none;stroke:#fff;stroke-linecap:round;stroke-linejoin:round;stroke-width:4.1157405771957984px"/><path d="M711.691,523.6075s1.5177-3.3241,3.4334-6.7136c1.981-3.3715,4.6583-6.8306,7.2443-6.7179,4.4116.1379,7.33,10.5138,8.0455,14.296" style="fill:none;stroke:#fff;stroke-linecap:round;stroke-linejoin:round;stroke-width:4.1157405771957984px"/><path d="M719.0456,539.083a47.5515,47.5515,0,0,0-1.5291-7.5785c-1.2645-3.8288-3.1928-7.61-5.8255-7.897s-5.4312,2.8481-7.5387,5.94a57.8191,57.8191,0,0,0-3.8732,6.1626" style="fill:none;stroke:#fff;stroke-linecap:round;stroke-linejoin:round;stroke-width:4.1157405771957984px"/><path d="M752.1047,511.6117a69.7378,69.7378,0,0,0-4.04-10.554c-2.7316-5.214-6.5875-10.15-10.7086-9.9842-4.1428.1658-7.7389,5.1417-10.38,9.838a69.7574,69.7574,0,0,0-4.6072,9.264" style="fill:none;stroke:#fff;stroke-linecap:round;stroke-linejoin:round;stroke-width:4.1157405771957984px"/><path d="M771.1491,512.5318a71.965,71.965,0,0,0-2.5232-8.9016c-1.5325-4.4219-4.1819-8.7142-6.7733-8.6579-2.7044.0546-4.8251,4.3165-6.731,8.4433a73.6254,73.6254,0,0,0-3.0167,8.1966" style="fill:none;stroke:#fff;stroke-linecap:round;stroke-linejoin:round;stroke-width:4.1157405771957984px"/><path d="M770.5428,477.1134c-2.6385.2268-4.7149,4.7875-6.1554,9.1743-.6746,2.1965-1.4244,4.3726-1.8415,5.992-.4186,1.6261-.6929,2.692-.6929,2.692" style="fill:none;stroke:#fff;stroke-linecap:round;stroke-linejoin:round;stroke-width:4.1157405771957984px"/><path d="M702.864,482.63c2.6382-.227,5.2327,2.9572,7.1909,6.3157a31.4291,31.4291,0,0,1,2.1821,4.6734c.4745,1.3035.7853,2.1584.7853,2.1584" style="fill:none;stroke:#fff;stroke-linecap:round;stroke-linejoin:round;stroke-width:4.1157405771957984px"/><path d="M761.853,494.9717s-.3153-1.05-.7959-2.6522a43.02,43.02,0,0,0-2.2235-5.76c-1.9956-4.15-4.6548-8.124-7.294-7.8972-4.3665.4291-7.1417,11.5185-8.3962,15.3039" style="fill:none;stroke:#fff;stroke-linecap:round;stroke-linejoin:round;stroke-width:4.1157405771957984px"/><path d="M713.0223,495.7777s.2785-.8707.7036-2.1977c.4248-1.3233,1.1886-3.1045,1.8826-4.9055,1.4774-3.5952,3.62-7.3663,6.2585-7.5936,4.3115-.426,8.7622,9.4693,9.816,13.1361" style="fill:none;stroke:#fff;stroke-linecap:round;stroke-linejoin:round;stroke-width:4.1157405771957984px"/><path d="M722.3687,510.176a53.203,53.203,0,0,0-2.5737-7.3215c-1.5465-3.6317-4.1819-7.1327-6.7732-7.0771-2.7043.0555-4.8395,3.5257-6.7319,6.8624a50.3036,50.3036,0,0,0-2.9661,6.6165" style="fill:none;stroke:#fff;stroke-linecap:round;stroke-linejoin:round;stroke-width:4.1157405771957984px"/><path d="M751.54,478.6618a29.6322,29.6322,0,0,0-1.4224-3.17,66.8127,66.8127,0,0,0-3.976-6.77c-3.1548-4.8484-7.8881-9.2054-11.8911-8.5158-4.1483.71-6.7991,6.07-9.0392,11.0992a68.021,68.021,0,0,0-2.4177,6.7708c-.561,1.82-.9259,3.0045-.9259,3.0045" style="fill:none;stroke:#fff;stroke-linecap:round;stroke-linejoin:round;stroke-width:4.1157405771957984px"/><path d="M770.5428,477.1134s-.33-1.0862-.9426-2.6942c-.6628-1.6035-1.6027-3.7272-2.7082-5.8086-2.1754-4.179-5.1186-8.1239-7.7881-7.7191-2.5674.3909-4.3579,4.9223-5.6309,9.2533-.617,2.1686-1.0735,4.2957-1.3765,5.88-.3364,1.5931-.5569,2.6377-.5569,2.6377" style="fill:none;stroke:#fff;stroke-linecap:round;stroke-linejoin:round;stroke-width:4.1157405771957984px"/><path d="M765.3485,442.0567c-2.6257.5748-3.914,5.3356-4.8936,9.8953a79.4017,79.4017,0,0,0-1.351,8.94" style="fill:none;stroke:#fff;stroke-linecap:round;stroke-linejoin:round;stroke-width:4.1157405771957984px"/><path d="M698.9581,456.3126c2.5486-.56,5.7107,2.2221,7.9673,5.3186a49.6115,49.6115,0,0,1,3.8626,6.3806" style="fill:none;stroke:#fff;stroke-linecap:round;stroke-linejoin:round;stroke-width:4.1157405771957984px"/><path d="M759.1039,460.8915a67.9215,67.9215,0,0,0-4.1207-7.95c-2.3964-3.8789-5.7278-7.4422-8.276-6.8815-2.1312.4632-3.5076,3.5914-4.4111,7.0278a64.1831,64.1831,0,0,0-1.8919,9.2314" style="fill:none;stroke:#fff;stroke-linecap:round;stroke-linejoin:round;stroke-width:4.1157405771957984px"/><path d="M710.788,468.0118a54.5617,54.5617,0,0,1,1.6088-7.37c1.12-3.7766,2.5772-7.7572,5.2029-8.332,2.1309-.4634,4.6077,1.5531,6.8058,4.1708a48.629,48.629,0,0,1,4.6672,7.5709" style="fill:none;stroke:#fff;stroke-linecap:round;stroke-linejoin:round;stroke-width:4.1157405771957984px"/><path d="M721.867,481.0809s-.3141-.8887-.9-2.2011a50.9887,50.9887,0,0,0-2.5963-4.7231c-2.0869-3.391-4.9136-6.55-7.5828-6.1449-2.5676.3907-4.4751,4.1367-5.8368,7.6787a48.2242,48.2242,0,0,0-1.488,4.795c-.3622,1.2955-.6,2.1446-.6,2.1446" style="fill:none;stroke:#fff;stroke-linecap:round;stroke-linejoin:round;stroke-width:4.1157405771957984px"/><path d="M746.7071,446.0592s-.68-1.2042-1.8234-2.96a45.63,45.63,0,0,0-4.8006-6.2017,30.802,30.802,0,0,0-6.3693-5.5638c-2.2572-1.33-4.5377-1.94-6.5082-1.3386-1.9854.6046-3.4688,2.3435-4.6632,4.575a34.0056,34.0056,0,0,0-2.876,7.6114c-.6847,2.6242-1.13,5.139-1.5391,7.0287-.3658,1.88-.5277,3.0991-.5277,3.0991" style="fill:none;stroke:#fff;stroke-linecap:round;stroke-linejoin:round;stroke-width:4.1157405771957984px"/><path d="M765.3484,442.0569s-.5181-1.0087-1.3083-2.5469a42.6075,42.6075,0,0,0-3.367-5.4273c-2.79-3.8418-6.2037-7.3786-8.7483-6.6429s-3.7482,5.47-4.3578,9.9083c-.2653,2.2156-.5294,4.4052-.6738,6.0276-.1125,1.6208-.1862,2.6842-.1862,2.6842" style="fill:none;stroke:#fff;stroke-linecap:round;stroke-linejoin:round;stroke-width:4.1157405771957984px"/><path d="M755.6713,407.9342c-1.2468.4457-2.0471,1.9058-2.5579,3.8173a32.3539,32.3539,0,0,0-1.0519,6.6561c-.1634,2.3242-.1794,4.577-.1549,6.2484.0111,1.6812.0182,2.7838.0182,2.7838" style="fill:none;stroke:#fff;stroke-linecap:round;stroke-linejoin:round;stroke-width:4.1157405771957984px"/><path d="M691.7134,430.7435a5.3777,5.3777,0,0,1,4.2522.7284,20.9248,20.9248,0,0,1,4.2869,3.5156,47.54,47.54,0,0,1,3.3885,3.9228,15.4576,15.4576,0,0,1,1.3072,1.8814" style="fill:none;stroke:#fff;stroke-linecap:round;stroke-linejoin:round;stroke-width:4.1157405771957984px"/><path d="M751.9248,427.44a22.0468,22.0468,0,0,0-1.4461-2.3619c-.9426-1.3911-2.2512-3.22-3.7128-4.9757a27.128,27.128,0,0,0-4.6344-4.561c-1.6256-1.1005-3.1714-1.6479-4.419-1.2023-3.9355,1.4848-4.1081,13.034-4.1,16.9394" style="fill:none;stroke:#fff;stroke-linecap:round;stroke-linejoin:round;stroke-width:4.1157405771957984px"/><path d="M704.9482,440.7917s.0483-.9122.1212-2.3034a52.0051,52.0051,0,0,1,.4784-5.1956,24.9348,24.9348,0,0,1,1.4-5.61c.6089-1.627,1.4771-2.8978,2.7241-3.3438,4.2254-1.5848,10.7238,6.9394,12.931,10.1336" style="fill:none;stroke:#fff;stroke-linecap:round;stroke-linejoin:round;stroke-width:4.1157405771957984px"/><path d="M717.6,452.31s-.4761-.8159-1.2014-2.06a31.2343,31.2343,0,0,0-3.1141-4.36c-2.5982-3.0655-5.7918-5.8334-8.3362-5.0979s-3.9685,4.7021-4.7695,8.3635c-.3626,1.8273-.7175,3.6289-.9275,4.96-.1766,1.327-.2934,2.1974-.2934,2.1974" style="fill:none;stroke:#fff;stroke-linecap:round;stroke-linejoin:round;stroke-width:4.1157405771957984px"/><path d="M737.7129,414.3383a63.415,63.415,0,0,0-7.7428-8.2308c-4.5419-3.7706-9.9366-6.8836-13.6908-5.1507s-5.2332,7.727-5.8583,13.0625a79.2049,79.2049,0,0,0-.7494,10.3191" style="fill:none;stroke:#fff;stroke-linecap:round;stroke-linejoin:round;stroke-width:4.1157405771957984px"/><path d="M755.6713,407.9342a71.8687,71.8687,0,0,0-5.69-7.2994c-3.1973-3.473-7.1948-6.4748-9.5919-5.4234-2.4549,1.0741-2.8782,5.8679-2.9735,10.3762a74.3377,74.3377,0,0,0,.2968,8.7513" style="fill:none;stroke:#fff;stroke-linecap:round;stroke-linejoin:round;stroke-width:4.1157405771957984px"/><path d="M741.5888,375.353c-2.3507,1.22-2.5329,6.2421-2.1949,10.8583.229,2.3187.4509,4.565.6159,6.239.229,1.6675.3794,2.7611.3794,2.7611" style="fill:none;stroke:#fff;stroke-linecap:round;stroke-linejoin:round;stroke-width:4.1157405771957984px"/><path d="M681.18,406.3651c2.3507-1.22,5.9491.7277,9.028,3.0816a28.3164,28.3164,0,0,1,3.8221,3.4643c.9285,1.0238,1.5375,1.695,1.5375,1.695" style="fill:none;stroke:#fff;stroke-linecap:round;stroke-linejoin:round;stroke-width:4.1157405771957984px"/><path d="M740.3892,395.2114s-.6891-.8538-1.74-2.1558a39.055,39.055,0,0,0-4.2832-4.4692c-3.4217-3.0823-7.3889-5.746-9.74-4.5258-3.9113,2.0884-2.1615,13.3718-1.9074,17.3645" style="fill:none;stroke:#fff;stroke-linecap:round;stroke-linejoin:round;stroke-width:4.1157405771957984px"/><path d="M695.568,414.606s-.07-.9111-.1769-2.3c-.0656-1.4041-.1224-3.3-.1554-5.2337.0049-3.8879.556-8.1942,2.9067-9.4144,3.7759-2.0265,11.74,5.3779,14.0811,8.3772" style="fill:none;stroke:#fff;stroke-linecap:round;stroke-linejoin:round;stroke-width:4.1157405771957984px"/><path d="M709.6716,424.3392a52.7928,52.7928,0,0,0-5.1258-5.7959c-2.9044-2.7255-6.5808-4.9884-8.9779-3.937-2.4548,1.0745-3.1994,5.1292-3.588,8.89a50.4925,50.4925,0,0,0-.2674,7.2474" style="fill:none;stroke:#fff;stroke-linecap:round;stroke-linejoin:round;stroke-width:4.1157405771957984px"/><path d="M724.6265,384.06a26.094,26.094,0,0,0-2.5521-2.374,66.77,66.77,0,0,0-6.2559-4.741c-4.7824-3.2664-10.8253-5.4729-14.2544-3.3-3.56,2.25-3.9506,8.2164-4.0852,13.7128a68.1092,68.1092,0,0,0,.3464,7.1831c.1917,1.8871.3169,3.1159.3169,3.1159" style="fill:none;stroke:#fff;stroke-linecap:round;stroke-linejoin:round;stroke-width:4.1157405771957984px"/><path d="M741.5888,375.353a22.4,22.4,0,0,0-1.93-2.12c-1.2249-1.2313-2.9047-2.8375-4.7217-4.3412-3.5916-3.0467-7.8537-5.5474-10.1619-4.15-2.2223,1.3475-2.1067,6.2062-1.6437,10.7111.2585,2.2432.649,4.3869.9742,5.9688.3145,1.5941.5206,2.6395.5206,2.6395" style="fill:none;stroke:#fff;stroke-linecap:round;stroke-linejoin:round;stroke-width:4.1157405771957984px"/><path d="M723.3034,344.9416c-2.2054,1.5416-1.554,6.4242-.7117,11.0176a79.718,79.718,0,0,0,2.1839,8.7823" style="fill:none;stroke:#fff;stroke-linecap:round;stroke-linejoin:round;stroke-width:4.1157405771957984px"/><path d="M667.4846,383.6088c2.135-1.4952,6.1349-.1491,9.3994,1.8438a49.545,49.545,0,0,1,6.0078,4.4048" style="fill:none;stroke:#fff;stroke-linecap:round;stroke-linejoin:round;stroke-width:4.1157405771957984px"/><path d="M724.7756,364.7415a67.9414,67.9414,0,0,0-6.8558-5.7675c-3.6983-2.6684-8.1541-4.67-10.29-3.1753-1.7891,1.2465-1.8557,4.6619-1.366,8.1794a63.9032,63.9032,0,0,0,1.7922,9.2571" style="fill:none;stroke:#fff;stroke-linecap:round;stroke-linejoin:round;stroke-width:4.1157405771957984px"/><path d="M682.8918,389.8574a54.5115,54.5115,0,0,1-1.336-7.4192c-.4086-3.918-.6042-8.1458,1.6016-9.6868,1.7894-1.2462,4.8537-.3384,7.8917,1.2314a48.82,48.82,0,0,1,7.2081,5.2009" style="fill:none;stroke:#fff;stroke-linecap:round;stroke-linejoin:round;stroke-width:4.1157405771957984px"/><path d="M698.1424,397.6575a15.8852,15.8852,0,0,0-1.6975-1.6739,50.7586,50.7586,0,0,0-4.1957-3.3688c-3.2013-2.3422-7.0495-4.1547-9.3579-2.7572-2.2223,1.3475-2.521,5.5181-2.4479,9.3185a48.2839,48.2839,0,0,0,.4479,4.9961c.1742,1.3245.2889,2.1932.2889,2.1932" style="fill:none;stroke:#fff;stroke-linecap:round;stroke-linejoin:round;stroke-width:4.1157405771957984px"/><path d="M707.63,355.7986s-1.0919-.85-2.824-2.0308a43.0512,43.0512,0,0,0-6.8071-3.8861c-5.3032-2.5063-11.2913-4.1327-14.5283-1.4362-3.1164,2.5987-3.0154,8.7933-2.2916,14.158.4034,2.6667.9195,5.1883,1.2723,7.0864.3859,1.8745.7061,3.0611.7061,3.0611" style="fill:none;stroke:#fff;stroke-linecap:round;stroke-linejoin:round;stroke-width:4.1157405771957984px"/><path d="M723.3034,344.9416l-2.1889-1.8475a43.7188,43.7188,0,0,0-5.1821-3.7266c-4.0607-2.4644-8.58-4.4087-10.6468-2.7526s-1.3505,6.4806-.1983,10.8027c.6165,2.1379,1.17,4.2946,1.6811,5.8328.52,1.5393.8618,2.5483.8618,2.5483" style="fill:none;stroke:#fff;stroke-linecap:round;stroke-linejoin:round;stroke-width:4.1157405771957984px"/><path d="M701.3194,317.1527c-1.9058,1.742-.8539,6.6892.6431,11.0694.744,2.2024,1.6134,4.2682,2.265,5.8091.6393,1.56,1.0582,2.5834,1.0582,2.5834" style="fill:none;stroke:#fff;stroke-linecap:round;stroke-linejoin:round;stroke-width:4.1157405771957984px"/><path d="M650.9811,362.7269c2.0051-1.831,5.9276-.8154,9.498.6831a43.8731,43.8731,0,0,1,4.6559,2.3156c1.15.76,1.9043,1.2586,1.9043,1.2586" style="fill:none;stroke:#fff;stroke-linecap:round;stroke-linejoin:round;stroke-width:4.1157405771957984px"/><path d="M705.2857,336.6146s-.8772-.6515-2.215-1.6454a59.3152,59.3152,0,0,0-5.348-3.15c-4.0794-2.1012-8.5326-3.7-10.5374-1.8693-3.157,2.9555,1.2208,13.5909,2.663,17.2451" style="fill:none;stroke:#fff;stroke-linecap:round;stroke-linejoin:round;stroke-width:4.1157405771957984px"/><path d="M667.0393,366.9842l-.7473-2.1964c-.4651-1.311-1.0843-3.0728-1.5726-4.9746-.9884-3.7772-1.51-8.1412.3961-9.8829,3.2078-3.005,12.5941,2.2875,15.7935,4.4409" style="fill:none;stroke:#fff;stroke-linecap:round;stroke-linejoin:round;stroke-width:4.1157405771957984px"/><path d="M683.1574,372.7514s-.7536-.57-1.9022-1.4381a32.19,32.19,0,0,0-4.5377-2.8382c-3.5883-1.8247-7.6117-3.1471-9.6785-1.4915s-1.8459,5.859-1.1668,9.5419c.38,1.82.6984,3.6509,1.0368,4.9444l.5748,2.1388" style="fill:none;stroke:#fff;stroke-linecap:round;stroke-linejoin:round;stroke-width:4.1157405771957984px"/><path d="M687.1847,329.9491A69.9143,69.9143,0,0,0,676.85,325.35c-5.5535-1.8248-11.8517-2.516-14.6332.4933-2.8343,3.0622-1.7868,9.0412-.4036,14.2934a69.561,69.561,0,0,0,3.3016,9.7929" style="fill:none;stroke:#fff;stroke-linecap:round;stroke-linejoin:round;stroke-width:4.1157405771957984px"/><path d="M701.3192,317.153a72.047,72.047,0,0,0-8.0869-4.5044c-4.2053-2.0484-9.0772-3.2557-10.8974-1.3612-1.8514,1.9239-.3795,6.4766,1.1828,10.7443a73.4644,73.4644,0,0,0,3.6676,7.9178" style="fill:none;stroke:#fff;stroke-linecap:round;stroke-linejoin:round;stroke-width:4.1157405771957984px"/><path d="M675.8458,292.5186c-1.7132,2.03.083,6.684,2.1617,10.81a80.0106,80.0106,0,0,0,4.3274,7.9584" style="fill:none;stroke:#fff;stroke-linecap:round;stroke-linejoin:round;stroke-width:4.1157405771957984px"/><path d="M631.8412,344.2343c1.7019-2.0189,5.8229-1.6458,9.5769-.6526a49.297,49.297,0,0,1,6.9082,2.7555" style="fill:none;stroke:#fff;stroke-linecap:round;stroke-linejoin:round;stroke-width:4.1157405771957984px"/><path d="M682.3349,311.2874a67.5926,67.5926,0,0,0-8.0674-3.8442c-4.3439-1.5318-9.0759-2.4228-10.7778-.4039-1.4085,1.6641-.6058,4.9954.7585,8.2839a81.5689,81.5689,0,0,0,4.1229,8.468" style="fill:none;stroke:#fff;stroke-linecap:round;stroke-linejoin:round;stroke-width:4.1157405771957984px"/><path d="M648.3263,346.3372a55.054,55.054,0,0,1-3.1682-6.87c-1.4887-3.5877-2.6737-7.7234-.9608-9.7544,1.4086-1.6645,4.5918-1.5622,7.9186-.811a41.1551,41.1551,0,0,1,8.3168,3.1595" style="fill:none;stroke:#fff;stroke-linecap:round;stroke-linejoin:round;stroke-width:4.1157405771957984px"/><path d="M665.1155,349.93a53.3868,53.3868,0,0,0-7.01-3.3524c-3.661-1.4822-7.9589-2.1343-9.7795-.24-1.851,1.9246-.9531,5.922.0647,9.624a50.08,50.08,0,0,0,2.59,6.7657" style="fill:none;stroke:#fff;stroke-linecap:round;stroke-linejoin:round;stroke-width:4.1157405771957984px"/><path d="M663.49,307.0389a50.564,50.564,0,0,0-10.8372-3.2338,30.0264,30.0264,0,0,0-8.4346-.5451c-2.6182.3431-4.7825,1.2263-5.9845,2.9089s-1.336,3.9865-.9075,6.46a35.0175,35.0175,0,0,0,2.3449,7.7959c2.1478,4.9492,4.526,9.2876,4.526,9.2876" style="fill:none;stroke:#fff;stroke-linecap:round;stroke-linejoin:round;stroke-width:4.1157405771957984px"/><path d="M675.8457,292.5189l-2.5806-1.2355a41.5115,41.5115,0,0,0-5.9938-2.2385c-4.546-1.3611-9.4-2.1009-10.971.0319s.35,6.6333,2.56,10.5359c1.1214,1.9411,2.304,3.7675,3.1515,5.1738.8928,1.3607,1.478,2.2533,1.478,2.2533" style="fill:none;stroke:#fff;stroke-linecap:round;stroke-linejoin:round;stroke-width:4.1157405771957984px"/><path d="M647.38,271.3321c-1.41,2.206.9985,6.559,3.519,10.5041,1.2836,1.9474,2.6417,3.7481,3.6774,5.0615l1.7241,2.1786" style="fill:none;stroke:#fff;stroke-linecap:round;stroke-linejoin:round;stroke-width:4.1157405771957984px"/><path d="M610.54,328.3737c1.4436-2.2566,5.5916-2.4552,9.3573-1.8387a47.4546,47.4546,0,0,1,5.0682,1.0561,17.7652,17.7652,0,0,1,2.1961.6772" style="fill:none;stroke:#fff;stroke-linecap:round;stroke-linejoin:round;stroke-width:4.1157405771957984px"/><path d="M656.3,289.0763a25.263,25.263,0,0,0-2.6-.9742c-1.5937-.5324-3.7435-1.1906-5.97-1.6973-4.4261-1.0758-9.25-1.3129-10.6943.944-2.2149,3.5708,4.68,12.84,7.066,15.9322" style="fill:none;stroke:#fff;stroke-linecap:round;stroke-linejoin:round;stroke-width:4.1157405771957984px"/><path d="M627.1612,328.2683l-1.32-1.8813c-.792-1.1359-1.8222-2.7026-2.7756-4.4206-1.86-3.4858-3.5918-7.4031-2.1821-9.6092,2.3893-3.8335,12.731-1.03,16.4283.16" style="fill:none;stroke:#fff;stroke-linecap:round;stroke-linejoin:round;stroke-width:4.1157405771957984px"/><path d="M644.1973,329.7131s-.8711-.3614-2.1985-.9129a30.38,30.38,0,0,0-5.1393-1.5429c-3.9189-.8595-8.1281-1.1213-9.6987,1.0111s-.2957,6.1557,1.2878,9.5575c.8071,1.6911,1.6794,3.263,2.2966,4.4776.6617,1.1661,1.0959,1.9311,1.0959,1.9311" style="fill:none;stroke:#fff;stroke-linecap:round;stroke-linejoin:round;stroke-width:4.1157405771957984px"/><path d="M637.0352,287.3487a61.401,61.401,0,0,0-11.1545-1.8136c-5.8964-.2295-12.0679.5826-13.99,4.2438s.5533,9.32,3.3044,13.9377a83.0876,83.0876,0,0,0,5.6887,8.64" style="fill:none;stroke:#fff;stroke-linecap:round;stroke-linejoin:round;stroke-width:4.1157405771957984px"/><path d="M647.3794,271.3327a71.7553,71.7553,0,0,0-8.9551-2.3346c-4.6624-.79-9.6495-.7549-10.9131,1.5437-1.29,2.3424,1.2824,6.4211,3.9636,10.0376a74.4656,74.4656,0,0,0,5.5607,6.7694" style="fill:none;stroke:#fff;stroke-linecap:round;stroke-linejoin:round;stroke-width:4.1157405771957984px"/><path d="M616.3734,254.0559c-1.1213,2.3991,1.79,6.4976,4.8657,9.9573,1.5587,1.7025,3.1252,3.3384,4.291,4.5671,1.1961,1.1849,1.9811,1.9615,1.9811,1.9615" style="fill:none;stroke:#fff;stroke-linecap:round;stroke-linejoin:round;stroke-width:4.1157405771957984px"/><path d="M587.3445,315.4418c1.1215-2.3995,5.16-3.0408,9.0348-3.0437a27.8731,27.8731,0,0,1,5.1448.4142l2.25.4106" style="fill:none;stroke:#fff;stroke-linecap:round;stroke-linejoin:round;stroke-width:4.1157405771957984px"/><path d="M627.5112,270.5418s-1.0661-.2583-2.6914-.6525a38.3288,38.3288,0,0,0-6.1218-.93c-4.5878-.3659-9.3539-.0664-10.4754,2.3331-1.8347,4.0456,6.4271,11.9248,9.0593,14.9382" style="fill:none;stroke:#fff;stroke-linecap:round;stroke-linejoin:round;stroke-width:4.1157405771957984px"/><path d="M603.7746,313.2229s-.61-.681-1.54-1.7193c-.9006-1.0849-2.1121-2.532-3.314-4.0512-2.3618-3.0913-4.546-6.8477-3.4249-9.247.9274-1.9737,4.011-2.6707,7.3994-2.7726a41.6989,41.6989,0,0,1,5.0326.1883c1.5451.2083,2.9077.4673,3.8378.6578" style="fill:none;stroke:#fff;stroke-linecap:round;stroke-linejoin:round;stroke-width:4.1157405771957984px"/><path d="M620.8837,312.3572a52.69,52.69,0,0,0-7.5887-1.4825c-3.9734-.3754-8.2567.05-9.5206,2.3485-1.29,2.3423.5788,6.0309,2.5708,9.2326a50.5464,50.5464,0,0,0,4.1941,5.9185" style="fill:none;stroke:#fff;stroke-linecap:round;stroke-linejoin:round;stroke-width:4.1157405771957984px"/><path d="M608.2221,271.2917a29.9763,29.9763,0,0,0-3.4748-.3161,66.4978,66.4978,0,0,0-7.8426.0355c-5.8007.3694-11.9136,2.2351-13.3173,6.061-1.45,3.9366,1.8488,8.971,5.1085,13.3652a68.5581,68.5581,0,0,0,4.6442,5.5009c1.3055,1.3732,2.1549,2.267,2.1549,2.267" style="fill:none;stroke:#fff;stroke-linecap:round;stroke-linejoin:round;stroke-width:4.1157405771957984px"/><path d="M616.3734,254.0559a24.7984,24.7984,0,0,0-2.8259-.493c-1.72-.2336-4.0281-.4878-6.3824-.578-4.6946-.2468-9.616.4128-10.5883,2.9062-.9514,2.4424,2.1164,6.1777,5.2183,9.4866,1.5691,1.6254,3.1817,3.0919,4.4016,4.1515,1.2236,1.0647,2.0259,1.7631,2.0259,1.7631" style="fill:none;stroke:#fff;stroke-linecap:round;stroke-linejoin:round;stroke-width:4.1157405771957984px"/><path d="M583.3693,241.0655c-.8049,2.5438,2.6524,6.11,6.1413,9.1644a79.7871,79.7871,0,0,0,7.0662,5.6612" style="fill:none;stroke:#fff;stroke-linecap:round;stroke-linejoin:round;stroke-width:4.1157405771957984px"/><path d="M562.608,305.7174c.7918-2.5068,4.7558-3.7842,8.5886-4.2659a49.368,49.368,0,0,1,7.4418-.1366" style="fill:none;stroke:#fff;stroke-linecap:round;stroke-linejoin:round;stroke-width:4.1157405771957984px"/><path d="M596.5768,255.8911a67.8039,67.8039,0,0,0-8.938-.426c-4.5834.2118-9.3068,1.2468-10.099,3.7536-.6616,2.0782,1.36,4.8417,3.8839,7.35a73.7571,73.7571,0,0,0,7.061,6.2352" style="fill:none;stroke:#fff;stroke-linecap:round;stroke-linejoin:round;stroke-width:4.1157405771957984px"/><path d="M578.6384,301.3149a54.7621,54.7621,0,0,1-5.57-5.099c-2.7378-2.7838-5.4358-6.1084-4.6307-8.6518.6613-2.0778,3.6409-3.2093,7.0028-3.7974a43.8537,43.8537,0,0,1,8.8913-.278" style="fill:none;stroke:#fff;stroke-linecap:round;stroke-linejoin:round;stroke-width:4.1157405771957984px"/><path d="M595.4956,298.2055a17.6927,17.6927,0,0,0-2.3722-.2812,50.6165,50.6165,0,0,0-5.3761-.1283c-3.9591.0736-8.1369,1.026-9.1089,3.5189-.9514,2.4424,1.3725,5.8854,3.7385,8.8745a48.4978,48.4978,0,0,0,3.3955,3.7014c.9494.9367,1.5719,1.5513,1.5719,1.5513" style="fill:none;stroke:#fff;stroke-linecap:round;stroke-linejoin:round;stroke-width:4.1157405771957984px"/><path d="M564.37,284.12c2.3225,2.0521,4.0671,3.4447,4.0671,3.4447" style="fill:none;stroke:#fff;stroke-linecap:round;stroke-linejoin:round;stroke-width:4.1157405771957984px"/><path d="M577.539,259.2187a51.6716,51.6716,0,0,0-9.5271.8216" style="fill:none;stroke:#fff;stroke-linecap:round;stroke-linejoin:round;stroke-width:4.1157405771957984px"/><path d="M583.3693,241.0655s-1.1316-.0574-2.8572-.1453a41.7971,41.7971,0,0,0-6.3887.2342c-4.7143.4875-9.4763,1.666-10.1086,4.2382s2.8643,5.9924,6.401,8.7491c1.7791,1.3615,3.57,2.5986,4.8933,3.568,1.3473.9116,2.2307,1.509,2.2307,1.509" style="fill:none;stroke:#fff;stroke-linecap:round;stroke-linejoin:round;stroke-width:4.1157405771957984px"/><path d="M548.9976,232.4417c-.4643,2.6091,3.43,5.6489,7.262,8.339,1.9283,1.31,3.8689,2.4564,5.3268,3.2749l2.4284,1.337" style="fill:none;stroke:#fff;stroke-linecap:round;stroke-linejoin:round;stroke-width:4.1157405771957984px"/><path d="M564.0148,245.3926s-1.1-.0173-2.7758.1114c-1.6733.1163-3.9072.3289-6.1546.7109q-.477.0734-.9525.1613" style="fill:none;stroke:#fff;stroke-linecap:round;stroke-linejoin:round;stroke-width:4.1157405771957984px"/><path d="M552.2211,294.7074c.5975,2.1362,2.6785,4.466,4.7868,6.3955,1.3969,1.2527,2.8071,2.375,3.8446,3.2555,1.06.8213,1.7556,1.3594,1.7556,1.3594" style="fill:none;stroke:#fff;stroke-linecap:round;stroke-linejoin:round;stroke-width:4.1157405771957984px"/><path d="M568.4374,287.5644l-2.3814.0043a30.782,30.782,0,0,0-5.34.5465" style="fill:none;stroke:#fff;stroke-linecap:round;stroke-linejoin:round;stroke-width:4.1157405771957984px"/><path d="M548.9974,232.442a71.4805,71.4805,0,0,0-9.1451,1.2452c-.8411.2067-1.6806.4371-2.4931.6914" style="fill:none;stroke:#fff;stroke-linecap:round;stroke-linejoin:round;stroke-width:4.1157405771957984px"/><path d="M651.1839,633.8948c13.64-10.8219,5.0036-32.7664,5.0036-32.7664C641.2284,616.8052,651.1839,633.8948,651.1839,633.8948Z" style="fill:#413e34;stroke:#fff;stroke-miterlimit:10;stroke-width:5.487654102927731px"/><g style="clip-path:url(#clip-path)"><path d="M648.25,616.9736c.7749-3.8647,4.0178-6.4734,7.2435-5.8268s5.2121,4.3037,4.4373,8.1685-4.0178,6.4735-7.2433,5.8266S647.4749,620.8381,648.25,616.9736Z" style="fill:#e4dd95;stroke:#fff;stroke-miterlimit:10;stroke-width:5.487654102927731px"/></g><path d="M656.1875,601.1284s8.6364,21.9445-5.0036,32.7664C651.1839,633.8948,641.2284,616.8052,656.1875,601.1284Z" style="fill:none;stroke:#fff;stroke-miterlimit:10;stroke-width:5.487654102927731px"/><path d="M651.1839,633.8948c13.64-10.8219,5.0036-32.7664,5.0036-32.7664C641.2284,616.8052,651.1839,633.8948,651.1839,633.8948Z" style="fill:none;stroke:#fff;stroke-linecap:round;stroke-linejoin:round;stroke-width:4.1157405771957984px"/><path d="M705.3189,665.15c2.5521-17.2236,25.8747-20.7165,25.8747-20.7165C725.0967,665.2265,705.3189,665.15,705.3189,665.15Z" style="fill:#413e34;stroke:#fff;stroke-miterlimit:10;stroke-width:5.487654102927731px"/><g style="clip-path:url(#clip-path-2)"><path d="M721.4406,659.2305c2.9592-2.6036,3.597-6.7164,1.4242-9.1866s-6.3333-2.362-9.2928.2414-3.5974,6.7162-1.4244,9.1861S718.4812,661.8336,721.4406,659.2305Z" style="fill:#e4dd95;stroke:#fff;stroke-miterlimit:10;stroke-width:5.487654102927731px"/></g><path d="M705.3189,665.15c2.5521-17.2236,25.8747-20.7165,25.8747-20.7165C725.0967,665.2265,705.3189,665.15,705.3189,665.15Z" style="fill:none;stroke:#fff;stroke-miterlimit:10;stroke-width:5.487654102927731px"/><path d="M705.3189,665.15c2.5521-17.2236,25.8747-20.7165,25.8747-20.7165C725.0967,665.2265,705.3189,665.15,705.3189,665.15Z" style="fill:none;stroke:#fff;stroke-linecap:round;stroke-linejoin:round;stroke-width:4.1157405771957984px"/><line x1="721.2931" y1="612.6281" x2="724.105" y2="646.2993" style="fill:none;stroke:#fff;stroke-linecap:round;stroke-linejoin:round;stroke-width:4.1157405771957984px"/><line x1="698.8525" y1="643.5889" x2="724.105" y2="646.2993" style="fill:none;stroke:#fff;stroke-linecap:round;stroke-linejoin:round;stroke-width:4.1157405771957984px"/><line x1="741.2944" y1="599.826" x2="762.7351" y2="597.5659" style="fill:none;stroke:#fff;stroke-linecap:round;stroke-linejoin:round;stroke-width:4.1157405771957984px"/><path d="M696.5147,617.8893,688.6819,593.8l1.0864-23.7226S716.4232,541.9846,734.36,552.34s6.9349,47.4859,6.9349,47.4859l-20.0013,12.8021Z" style="fill:none;stroke:#fff;stroke-linecap:round;stroke-linejoin:round;stroke-width:4.1157405771957984px"/><polygon points="671.285 661.588 663.724 649.831 673.089 628.714 696.515 617.889 698.853 643.589 685.248 662.258 671.285 661.588" style="fill:none;stroke:#fff;stroke-linecap:round;stroke-linejoin:round;stroke-width:4.1157405771957984px"/><line x1="688.6819" y1="593.8" x2="658.1157" y2="608.2003" style="fill:none;stroke:#fff;stroke-linecap:round;stroke-linejoin:round;stroke-width:4.1157405771957984px"/><line x1="673.0893" y1="628.7145" x2="658.1157" y2="608.2003" style="fill:none;stroke:#fff;stroke-linecap:round;stroke-linejoin:round;stroke-width:4.1157405771957984px"/><line x1="689.7683" y1="570.0774" x2="681.0053" y2="550.3792" style="fill:none;stroke:#fff;stroke-linecap:round;stroke-linejoin:round;stroke-width:4.1157405771957984px"/><line x1="671.285" y1="661.5885" x2="663.0005" y2="675.9376" style="fill:none;stroke:#fff;stroke-linecap:round;stroke-linejoin:round;stroke-width:4.1157405771957984px"/><path d="M650.5177,636.7442A203.9825,203.9825,0,0,1,363.42,650.6563c-2.636-4.5653,8.4444-22.7026-2.6643-41.9435S288.097,539.3487,265.5951,552.34s-9.8691,91.357,1.24,110.5976,32.9267,18.3842,35.5625,22.95C386.8,775.471,524.5619,798.8593,635.7854,734.6444a270.7289,270.7289,0,0,0,81.8874-72.6784" style="fill:none;stroke:#fff;stroke-linecap:round;stroke-linejoin:round;stroke-width:5.487654102927731px"/><path d="M299.0483,682.0343c1.9526-1.7965.7717-6.6481-.7748-10.9988-1.4315-4.4658-3.7967-10.75-3.7967-10.75" style="fill:none;stroke:#fff;stroke-linecap:round;stroke-linejoin:round;stroke-width:4.1157405771957984px"/><path d="M299.0482,682.0339A48.1732,48.1732,0,0,0,307.12,686.55c4.3255,1.93,9.03,3.2892,10.8651,1.3662,1.8218-1.9093.5035-6.6289-1.1863-10.7859-.2561-.6007-.5154-1.1954-.7714-1.7725" style="fill:none;stroke:#fff;stroke-linecap:round;stroke-linejoin:round;stroke-width:4.1157405771957984px"/><path d="M324.5765,706.611c1.7194-2.0531-.183-6.5861-2.1561-10.839a78.8878,78.8878,0,0,0-4.4358-7.8555" style="fill:none;stroke:#fff;stroke-linecap:round;stroke-linejoin:round;stroke-width:4.1157405771957984px"/><path d="M368.3958,654.7389c-1.68,2.0082-5.9019,1.7562-9.5418.64a49.9788,49.9788,0,0,1-6.9988-2.6455" style="fill:none;stroke:#fff;stroke-linecap:round;stroke-linejoin:round;stroke-width:4.1157405771957984px"/><path d="M317.9846,687.9165a68.2574,68.2574,0,0,0,8.16,3.7267c4.2284,1.65,9.0552,2.4116,10.7358.4032,1.4243-1.6942.52-4.9164-.7836-8.2812a55.8838,55.8838,0,0,0-2.9387-6.22" style="fill:none;stroke:#fff;stroke-linecap:round;stroke-linejoin:round;stroke-width:4.1157405771957984px"/><path d="M346.9834,645.7982s6.7015,10.04,8.1466,13.7087c1.3845,3.72,2.6821,7.7436.9623,9.7968-1.3814,1.645-4.6572,1.6578-7.9148.8363a39.2552,39.2552,0,0,1-4.4232-1.4258" style="fill:none;stroke:#fff;stroke-linecap:round;stroke-linejoin:round;stroke-width:4.1157405771957984px"/><path d="M345.0209,632.9826s9.9223,11.18,18.7141,10.469" style="fill:none;stroke:#fff;stroke-linecap:round;stroke-linejoin:round;stroke-width:4.1157405771957984px"/><path d="M336.881,692.0467s1.28.53,3.2661,1.2094a45.5919,45.5919,0,0,0,7.5669,1.9977c5.7943,1.0092,11.9811,1.0487,14.4053-2.3965,2.3337-3.32.6437-9.3013-1.4745-14.2631-1.0982-2.4512-2.1886-4.8344-3.06-6.5321-.8685-1.7007-1.4926-2.7581-1.4926-2.7581" style="fill:none;stroke:#fff;stroke-linecap:round;stroke-linejoin:round;stroke-width:4.1157405771957984px"/><path d="M324.5765,706.611a64.6646,64.6646,0,0,0,8.5537,3.4679c4.568,1.3107,9.4438,2.0013,11.0091-.1354s-.3886-6.5974-2.6321-10.4594a84.6406,84.6406,0,0,0-4.6269-7.4382" style="fill:none;stroke:#fff;stroke-linecap:round;stroke-linejoin:round;stroke-width:4.1157405771957984px"/><path d="M353.0341,727.7024c1.3908-2.1828-.9317-6.6577-3.5109-10.5093-2.6292-3.8024-5.3844-7.2494-5.3844-7.2494" style="fill:none;stroke:#fff;stroke-linecap:round;stroke-linejoin:round;stroke-width:4.1157405771957984px"/><path d="M389.7834,670.6021c-1.4559,2.284-5.5262,2.3541-9.3554,1.8252a35.1092,35.1092,0,0,1-7.2565-1.7549" style="fill:none;stroke:#fff;stroke-linecap:round;stroke-linejoin:round;stroke-width:4.1157405771957984px"/><path d="M344.1388,709.9437a48.4318,48.4318,0,0,0,8.5435,2.674c4.4791.9786,9.2141,1.3358,10.6705-.9484,2.2693-3.6589-4.7313-12.7828-7.0563-15.96" style="fill:none;stroke:#fff;stroke-linecap:round;stroke-linejoin:round;stroke-width:4.1157405771957984px"/><path d="M373.1715,670.6724s2.12,2.9762,4.0974,6.33c1.9292,3.4014,3.5863,7.4494,2.196,9.6326-2.3255,3.7516-12.7707,1.091-16.4036-.18" style="fill:none;stroke:#fff;stroke-linecap:round;stroke-linejoin:round;stroke-width:4.1157405771957984px"/><path d="M356.0923,669.3037a47.5154,47.5154,0,0,0,7.3275,2.4652c3.948.8194,8.1866,1.04,9.7517-1.0965s.249-6.1278-1.3751-9.4989a57.7187,57.7187,0,0,0-3.4005-6.4353" style="fill:none;stroke:#fff;stroke-linecap:round;stroke-linejoin:round;stroke-width:4.1157405771957984px"/><path d="M363.3534,711.67a69.7451,69.7451,0,0,0,11.16,1.7777c5.8814.2412,12.0841-.63,14.0008-4.2821,1.9278-3.67-.5832-9.2726-3.33-13.9082a69.7817,69.7817,0,0,0-5.7193-8.6216" style="fill:none;stroke:#fff;stroke-linecap:round;stroke-linejoin:round;stroke-width:4.1157405771957984px"/><path d="M353.0341,727.7024a71.9965,71.9965,0,0,0,8.9707,2.266c4.5958.8837,9.6378.7351,10.8849-1.5369,1.3046-2.37-1.3257-6.3372-3.9464-10.0511a73.702,73.702,0,0,0-5.5905-6.7111" style="fill:none;stroke:#fff;stroke-linecap:round;stroke-linejoin:round;stroke-width:4.1157405771957984px"/><path d="M384.0108,744.8866c1.1228-2.3983-1.7887-6.477-4.8673-9.9179-1.5653-1.6823-3.075-3.42-4.2686-4.5909-1.1988-1.1756-1.9851-1.9459-1.9851-1.9459" style="fill:none;stroke:#fff;stroke-linecap:round;stroke-linejoin:round;stroke-width:4.1157405771957984px"/><path d="M413.0725,683.5165c-1.1228,2.3983-5.1773,3.053-9.0654,3.07a31.4367,31.4367,0,0,1-5.1378-.4467l-2.2621-.3992" style="fill:none;stroke:#fff;stroke-linecap:round;stroke-linejoin:round;stroke-width:4.1157405771957984px"/><path d="M372.89,728.4319l2.6951.6367a43.017,43.017,0,0,0,6.1.9546c4.5918.3467,9.3629.03,10.4864-2.3684,1.8119-3.9959-6.4047-11.9439-9.0556-14.9231" style="fill:none;stroke:#fff;stroke-linecap:round;stroke-linejoin:round;stroke-width:4.1157405771957984px"/><path d="M396.6072,685.74s.6147.6763,1.5518,1.7082c.933,1.0295,2.0941,2.5816,3.3066,4.083,2.375,3.0774,4.57,6.8182,3.447,9.217-1.7863,3.9469-12.5816,2.8536-16.2841,1.9328" style="fill:none;stroke:#fff;stroke-linecap:round;stroke-linejoin:round;stroke-width:4.1157405771957984px"/><path d="M379.4649,686.6353a53.1749,53.1749,0,0,0,7.6274,1.4319c3.9182.4765,8.2679-.0553,9.5153-2.3272,1.3044-2.37-.6332-5.9542-2.577-9.2613a50.2868,50.2868,0,0,0-4.2471-5.8769" style="fill:none;stroke:#fff;stroke-linecap:round;stroke-linejoin:round;stroke-width:4.1157405771957984px"/><path d="M392.1712,727.6553a29.584,29.584,0,0,0,3.4563.3524,66.8307,66.8307,0,0,0,7.8515-.0578c5.7762-.3079,11.9161-2.2285,13.32-6.04,1.459-3.9477-1.8568-8.9231-5.0925-13.378a67.966,67.966,0,0,0-4.6549-5.4788c-1.2952-1.3959-2.1388-2.3044-2.1388-2.3044" style="fill:none;stroke:#fff;stroke-linecap:round;stroke-linejoin:round;stroke-width:4.1157405771957984px"/><path d="M384.0108,744.8866s1.1055.2576,2.8046.53c1.72.2282,4.0288.4757,6.3843.5591,4.7069.2057,9.5949-.3708,10.5791-2.8849.945-2.419-2.0838-6.2354-5.1984-9.5033-1.5692-1.6184-3.183-3.0774-4.4034-4.1321-1.2118-1.0877-2.0059-1.8011-2.0059-1.8011" style="fill:none;stroke:#fff;stroke-linecap:round;stroke-linejoin:round;stroke-width:4.1157405771957984px"/><path d="M416.9676,757.9167c.8154-2.5612-2.6636-6.0576-6.1227-9.1858a79.4221,79.4221,0,0,0-7.0661-5.64" style="fill:none;stroke:#fff;stroke-linecap:round;stroke-linejoin:round;stroke-width:4.1157405771957984px"/><path d="M437.8172,693.2927c-.7893,2.4874-4.78,3.8346-8.59,4.2408a49.6537,49.6537,0,0,1-7.4572.1549" style="fill:none;stroke:#fff;stroke-linecap:round;stroke-linejoin:round;stroke-width:4.1157405771957984px"/><path d="M403.7788,743.0913a67.9081,67.9081,0,0,0,8.9455.4064c4.5575-.1357,9.3088-1.2393,10.0978-3.7264.6641-2.0771-1.3568-4.8336-3.8809-7.3341a64.2439,64.2439,0,0,0-7.0486-6.254" style="fill:none;stroke:#fff;stroke-linecap:round;stroke-linejoin:round;stroke-width:4.1157405771957984px"/><path d="M421.77,697.6884a54.5184,54.5184,0,0,1,5.5783,5.0781c2.7111,2.8579,5.4291,6.1105,4.6145,8.6719-.6644,2.0769-3.6488,3.2138-7.0153,3.8087a48.6546,48.6546,0,0,1-8.89.2563" style="fill:none;stroke:#fff;stroke-linecap:round;stroke-linejoin:round;stroke-width:4.1157405771957984px"/><path d="M404.9126,700.7484s.9268.1725,2.3562.3211a51.0005,51.0005,0,0,0,5.3885.1131c3.98-.1116,8.1291-.98,9.1129-3.4942.9455-2.4192-1.3449-5.944-3.7315-8.894a48.2732,48.2732,0,0,0-3.4084-3.6866l-1.5576-1.5916" style="fill:none;stroke:#fff;stroke-linecap:round;stroke-linejoin:round;stroke-width:4.1157405771957984px"/><path d="M422.8224,739.7714s1.3827.013,3.475-.099a45.6494,45.6494,0,0,0,7.7712-1.0568,30.8062,30.8062,0,0,0,8.0029-2.7339c2.28-1.29,3.9486-2.96,4.4135-4.9669.4691-2.0219-.2953-4.176-1.6308-6.3263a33.9865,33.9865,0,0,0-5.1533-6.2962c-1.93-1.9053-3.886-3.5479-5.3173-4.8475-1.4452-1.2562-2.42-2.0063-2.42-2.0063" style="fill:none;stroke:#fff;stroke-linecap:round;stroke-linejoin:round;stroke-width:4.1157405771957984px"/><path d="M416.9678,757.9165s1.1326.0556,2.86.14a42.6211,42.6211,0,0,0,6.3839-.2021c4.7218-.4957,9.4918-1.6834,10.1268-4.2547s-2.8633-5.9813-6.4022-8.7282c-1.7858-1.3376-3.55-2.6609-4.8829-3.597-1.3476-.9082-2.2314-1.5035-2.2314-1.5035" style="fill:none;stroke:#fff;stroke-linecap:round;stroke-linejoin:round;stroke-width:4.1157405771957984px"/><path d="M451.3572,766.5972c.2378-1.3028-.6264-2.7258-2.0268-4.1239a32.34,32.34,0,0,0-5.2382-4.2392c-1.9313-1.3036-3.8742-2.4438-5.3337-3.2582-1.4619-.8311-2.42-1.3761-2.42-1.3761" style="fill:none;stroke:#fff;stroke-linecap:round;stroke-linejoin:round;stroke-width:4.1157405771957984px"/><path d="M463.5831,699.8033a5.3789,5.3789,0,0,1-2.7575,3.3183,20.9189,20.9189,0,0,1-5.1873,1.9546,47.5879,47.5879,0,0,1-5.0918.9736,15.5146,15.5146,0,0,1-2.283.191" style="fill:none;stroke:#fff;stroke-linecap:round;stroke-linejoin:round;stroke-width:4.1157405771957984px"/><path d="M436.3383,753.6a22.0669,22.0669,0,0,0,2.7688-.0716c1.6759-.1207,3.9138-.34,6.1654-.7274a27.1415,27.1415,0,0,0,6.2668-1.7329c1.7662-.8577,3.013-1.9225,3.2509-3.2255.682-4.1508-9.2337-10.0752-12.62-12.0209" style="fill:none;stroke:#fff;stroke-linecap:round;stroke-linejoin:round;stroke-width:4.1157405771957984px"/><path d="M448.2635,706.2408s.766.4979,1.9345,1.2568a52.164,52.164,0,0,1,4.26,3.0119,24.9433,24.9433,0,0,1,4.159,4.0176c1.1045,1.341,1.7707,2.7281,1.5335,4.0311-.74,4.4515-11.3716,5.8173-15.2415,6.1317" style="fill:none;stroke:#fff;stroke-linecap:round;stroke-linejoin:round;stroke-width:4.1157405771957984px"/><path d="M431.963,711.4384s.9445-.0043,2.3845-.01a31.2287,31.2287,0,0,0,5.3327-.517c3.9542-.7177,7.948-2.0991,8.5832-4.6707s-2.0879-5.7877-4.8583-8.312c-1.4012-1.2277-2.7842-2.4359-3.8315-3.2832-1.0609-.8167-1.7563-1.3527-1.7563-1.3527" style="fill:none;stroke:#fff;stroke-linecap:round;stroke-linejoin:round;stroke-width:4.1157405771957984px"/><path d="M454.7905,747.8425a63.4217,63.4217,0,0,0,11-2.59c5.5366-2.0482,10.9294-5.1635,11.3059-9.2813s-4.0751-8.3954-8.3833-11.6045a79.2522,79.2522,0,0,0-8.562-5.8089" style="fill:none;stroke:#fff;stroke-linecap:round;stroke-linejoin:round;stroke-width:4.1157405771957984px"/><path d="M451.3572,766.5972a71.8245,71.8245,0,0,0,9.1667-1.2783c4.6067-1.0326,9.2048-2.9934,9.4929-5.5953.2971-2.663-3.6426-5.4261-7.4994-7.7629a74.2911,74.2911,0,0,0-7.7272-4.1183" style="fill:none;stroke:#fff;stroke-linecap:round;stroke-linejoin:round;stroke-width:4.1157405771957984px"/><path d="M486.615,770.6916c.1185-2.6456-4.1395-5.3142-8.3061-7.33-2.1229-.961-4.1791-1.8921-5.7113-2.5858l-2.5808-1.0525" style="fill:none;stroke:#fff;stroke-linecap:round;stroke-linejoin:round;stroke-width:4.1157405771957984px"/><path d="M489.9618,702.8706c-.1187,2.646-3.6046,4.7883-7.1827,6.2779a28.362,28.362,0,0,1-4.9111,1.5779l-2.2367.4837" style="fill:none;stroke:#fff;stroke-linecap:round;stroke-linejoin:round;stroke-width:4.1157405771957984px"/><path d="M470.0168,759.7236l2.7368-.4284a39.0968,39.0968,0,0,0,6.0123-1.4748c4.38-1.4219,8.67-3.5259,8.7887-6.1716.1473-4.4318-10.5-8.5577-14.0841-10.3344" style="fill:none;stroke:#fff;stroke-linecap:round;stroke-linejoin:round;stroke-width:4.1157405771957984px"/><path d="M475.6313,711.21s.8239.3954,2.0808.9971c1.2483.6451,2.9185,1.5439,4.61,2.4823,3.3644,1.9484,6.8186,4.5785,6.7,7.2243-.1332,4.2838-10.5278,7.4786-14.2958,8.0063" style="fill:none;stroke:#fff;stroke-linecap:round;stroke-linejoin:round;stroke-width:4.1157405771957984px"/><path d="M460.15,718.5578a52.7886,52.7886,0,0,0,7.582-1.5413c3.8126-1.1523,7.6107-3.2049,7.8986-5.8065.2967-2.6632-2.8423-5.3353-5.905-7.5524a50.4906,50.4906,0,0,0-6.1428-3.8551" style="fill:none;stroke:#fff;stroke-linecap:round;stroke-linejoin:round;stroke-width:4.1157405771957984px"/><path d="M487.5551,751.6487a26.12,26.12,0,0,0,3.3322-1.0236,66.7343,66.7343,0,0,0,7.2334-3.0472c5.22-2.5082,10.1527-6.6383,9.9852-10.6946-.1681-4.2076-5.14-7.5294-9.8327-10.3944a68.144,68.144,0,0,0-6.3942-3.2914l-2.8567-1.2836" style="fill:none;stroke:#fff;stroke-linecap:round;stroke-linejoin:round;stroke-width:4.1157405771957984px"/><path d="M486.615,770.6916a22.2989,22.2989,0,0,0,2.8-.6107c1.679-.4451,3.91-1.0969,6.1207-1.9184,4.4341-1.587,8.7311-4.0278,8.6749-6.7254-.0558-2.5985-4.3208-4.9276-8.4539-6.7791-2.072-.8976-4.1236-1.6316-5.6566-2.1407l-2.5461-.869" style="fill:none;stroke:#fff;stroke-linecap:round;stroke-linejoin:round;stroke-width:4.1157405771957984px"/><path d="M522.0948,770.0619c-.2327-2.6806-4.7867-4.5579-9.1859-6.1251a79.7345,79.7345,0,0,0-8.6978-2.5" style="fill:none;stroke:#fff;stroke-linecap:round;stroke-linejoin:round;stroke-width:4.1157405771957984px"/><path d="M516.5173,702.3878c.2275,2.5965-2.9388,5.3875-6.2967,7.2183a49.54,49.54,0,0,1-6.8184,3.0006" style="fill:none;stroke:#fff;stroke-linecap:round;stroke-linejoin:round;stroke-width:4.1157405771957984px"/><path d="M504.2111,761.4371a67.9709,67.9709,0,0,0,8.423-3.0535c4.16-1.8685,8.1213-4.7269,7.8942-7.3236-.1844-2.1726-3.1094-3.9381-6.4-5.2727a63.9759,63.9759,0,0,0-8.9128-3.0766" style="fill:none;stroke:#fff;stroke-linecap:round;stroke-linejoin:round;stroke-width:4.1157405771957984px"/><path d="M503.4022,712.6067a54.5372,54.5372,0,0,1,7.0932,2.5526c3.5974,1.6053,7.3565,3.55,7.5881,6.23.1847,2.1728-2.1338,4.3728-5.0124,6.2188a48.7829,48.7829,0,0,1-8.108,3.6419" style="fill:none;stroke:#fff;stroke-linecap:round;stroke-linejoin:round;stroke-width:4.1157405771957984px"/><path d="M489.022,721.9138a15.8575,15.8575,0,0,0,2.2982-.633,50.8048,50.8048,0,0,0,5.0151-1.949c3.629-1.6014,7.123-4.028,7.0668-6.7255-.0555-2.5984-3.518-4.9425-6.8459-6.78a48.1911,48.1911,0,0,0-4.5508-2.11c-1.2341-.5114-2.0439-.8465-2.0439-.8465" style="fill:none;stroke:#fff;stroke-linecap:round;stroke-linejoin:round;stroke-width:4.1157405771957984px"/><path d="M520.5288,751.06s1.2819-.5207,3.171-1.43a43.0379,43.0379,0,0,0,6.7687-3.9522c4.8222-3.34,9.2247-7.7124,8.5083-11.8638-.6926-3.9984-6.1078-7.0081-11.1158-9.0636-2.5107-.9838-4.9528-1.7978-6.7731-2.4414-1.8161-.6028-3.0042-.919-3.0042-.919" style="fill:none;stroke:#fff;stroke-linecap:round;stroke-linejoin:round;stroke-width:4.1157405771957984px"/><path d="M522.0948,770.0619s1.067-.3848,2.6942-.9719a43.7269,43.7269,0,0,0,5.8182-2.6243c4.1646-2.2848,8.1085-5.2263,7.7073-7.8443s-4.9371-4.41-9.2561-5.573c-2.16-.535-4.3046-1.1342-5.892-1.4607-1.5931-.3188-2.6381-.5277-2.6381-.5277" style="fill:none;stroke:#fff;stroke-linecap:round;stroke-linejoin:round;stroke-width:4.1157405771957984px"/><path d="M557.1525,764.9177c-.5557-2.5218-5.3661-4.0842-9.9079-4.9778-2.2791-.4569-4.503-.7368-6.1634-.9431-1.671-.2266-2.7666-.3749-2.7666-.3749" style="fill:none;stroke:#fff;stroke-linecap:round;stroke-linejoin:round;stroke-width:4.1157405771957984px"/><path d="M542.8531,698.5366c.5833,2.6518-2.2577,5.5408-5.34,7.8838a43.8227,43.8227,0,0,1-4.3336,2.8741c-1.2327.6161-2.0419,1.02-2.0419,1.02" style="fill:none;stroke:#fff;stroke-linecap:round;stroke-linejoin:round;stroke-width:4.1157405771957984px"/><path d="M538.3146,758.6219s1.0034-.4342,2.5329-1.0958A59.35,59.35,0,0,0,546.25,754.47c3.8593-2.4826,7.4706-5.5393,6.8875-8.1914-.9809-4.2115-12.38-5.738-16.2664-6.3162" style="fill:none;stroke:#fff;stroke-linecap:round;stroke-linejoin:round;stroke-width:4.1157405771957984px"/><path d="M531.1372,710.3146s.9017.1787,2.2759.4507c1.3677.2529,3.2034.5977,5.0942,1.126,3.7655,1.0323,7.8054,2.7626,8.3611,5.2844.9984,4.28-8.2783,9.763-11.743,11.4569" style="fill:none;stroke:#fff;stroke-linecap:round;stroke-linejoin:round;stroke-width:4.1157405771957984px"/><path d="M518.0835,721.39l2.1965-.9281a32.1905,32.1905,0,0,0,4.7269-2.51c3.3744-2.1954,6.5315-5.0187,6.1308-7.6364s-4.1509-4.5281-7.68-5.7814c-1.7663-.58-3.5109-1.2206-4.8007-1.5744-1.2925-.3451-2.1395-.5715-2.1395-.5715" style="fill:none;stroke:#fff;stroke-linecap:round;stroke-linejoin:round;stroke-width:4.1157405771957984px"/><path d="M553.1379,746.2787a69.9133,69.9133,0,0,0,9.15-6.65c4.3572-3.8971,8.1051-9.006,6.89-12.9193-1.235-3.9859-6.9366-6.0683-12.1768-7.4961a69.5352,69.5352,0,0,0-10.1319-2.0374" style="fill:none;stroke:#fff;stroke-linecap:round;stroke-linejoin:round;stroke-width:4.1157405771957984px"/><path d="M557.1522,764.9175a72.0514,72.0514,0,0,0,7.9444-4.7514c3.8764-2.6174,7.3582-6.2334,6.6279-8.7568-.7406-2.5654-5.42-3.567-9.8969-4.3477a73.4419,73.4419,0,0,0-8.69-.783" style="fill:none;stroke:#fff;stroke-linecap:round;stroke-linejoin:round;stroke-width:4.1157405771957984px"/><path d="M591.2231,755.174c-.9019-2.4985-5.83-3.27-10.4432-3.5332a79.9813,79.9813,0,0,0-9.0554-.2315" style="fill:none;stroke:#fff;stroke-linecap:round;stroke-linejoin:round;stroke-width:4.1157405771957984px"/><path d="M568.4383,691.2071c.8973,2.4834-1.4863,5.8655-4.2236,8.62a49.27,49.27,0,0,1-5.84,4.6054" style="fill:none;stroke:#fff;stroke-linecap:round;stroke-linejoin:round;stroke-width:4.1157405771957984px"/><path d="M571.7245,751.4093a67.5923,67.5923,0,0,0,7.3626-5.0642c3.4984-2.9964,6.6362-6.6487,5.7387-9.1318-.7368-2.0524-4.0234-3.0227-7.5535-3.4856a81.7445,81.7445,0,0,0-9.3948-.6635" style="fill:none;stroke:#fff;stroke-linecap:round;stroke-linejoin:round;stroke-width:4.1157405771957984px"/><path d="M558.3743,704.4324a54.9891,54.9891,0,0,1,7.5337.691c3.8514.5045,8.0252,1.546,8.9281,4.0448.7371,2.0521-.9434,4.7577-3.2573,7.2634a41.171,41.171,0,0,1-6.8942,5.6228" style="fill:none;stroke:#fff;stroke-linecap:round;stroke-linejoin:round;stroke-width:4.1157405771957984px"/><path d="M546.8684,717.1757a53.4015,53.4015,0,0,0,6.408-4.3949c3.1141-2.4291,5.8276-5.8253,5.0978-8.3489-.7411-2.5652-4.652-3.7863-8.3669-4.7561a50.0832,50.0832,0,0,0-7.1543-1.14" style="fill:none;stroke:#fff;stroke-linecap:round;stroke-linejoin:round;stroke-width:4.1157405771957984px"/><path d="M584.8263,737.2132a50.5652,50.5652,0,0,0,8.2191-7.7688,30.0167,30.0167,0,0,0,4.6891-7.0319c1.0121-2.4387,1.3292-4.7549.4734-6.6373s-2.7847-3.15-5.1413-4.0158a35.0371,35.0371,0,0,0-7.9236-1.8673c-5.36-.6145-10.3067-.7242-10.3067-.7242" style="fill:none;stroke:#fff;stroke-linecap:round;stroke-linejoin:round;stroke-width:4.1157405771957984px"/><path d="M591.223,755.1736l2.36-1.6171a41.4831,41.4831,0,0,0,4.9358-4.0714c3.4518-3.2566,6.52-7.0908,5.4578-9.5171s-5.9192-3.014-10.4046-3.0507c-2.2417.0007-4.4146.1117-6.0565.1422-1.6245.0928-2.69.1532-2.69.1532" style="fill:none;stroke:#fff;stroke-linecap:round;stroke-linejoin:round;stroke-width:4.1157405771957984px"/><path d="M623.8038,741.1147c-1.2052-2.3235-6.1789-2.4148-10.8559-2.2045-2.3286.1383-4.5667.4139-6.2223.6542l-2.7488.4038" style="fill:none;stroke:#fff;stroke-linecap:round;stroke-linejoin:round;stroke-width:4.1157405771957984px"/><path d="M592.8245,680.69c1.2328,2.3784-.6694,6.07-3.0861,9.023a47.4789,47.4789,0,0,1-3.4487,3.8614,17.803,17.803,0,0,1-1.6846,1.5631" style="fill:none;stroke:#fff;stroke-linecap:round;stroke-linejoin:round;stroke-width:4.1157405771957984px"/><path d="M603.9768,739.9682a25.2327,25.2327,0,0,0,2.1441-1.7648c1.2579-1.114,2.9024-2.6466,4.4546-4.3218,3.1451-3.2949,5.7623-7.3548,4.53-9.7337-1.985-3.7034-13.4593-2.3664-17.3307-1.8463" style="fill:none;stroke:#fff;stroke-linecap:round;stroke-linejoin:round;stroke-width:4.1157405771957984px"/><path d="M584.6051,695.1371l2.2891-.2022c1.38-.118,3.2518-.2271,5.2163-.1938,3.9487.1318,8.2073.5911,9.4126,2.9151,2.1256,3.9861-5.4735,11.54-8.3525,14.1472" style="fill:none;stroke:#fff;stroke-linecap:round;stroke-linejoin:round;stroke-width:4.1157405771957984px"/><path d="M574.8361,709.1682s.7483-.5736,1.89-1.4475a30.3574,30.3574,0,0,0,3.906-3.6793c2.7036-2.964,5.0348-6.4783,3.9733-8.9047s-5.1829-3.3339-8.9206-3.6633c-1.8681-.1467-3.6656-.1773-5.0263-.25-1.3406-.01-2.22-.0166-2.22-.0166" style="fill:none;stroke:#fff;stroke-linecap:round;stroke-linejoin:round;stroke-width:4.1157405771957984px"/><path d="M615.1057,724.148a61.4272,61.4272,0,0,0,7.1477-8.7534c3.147-4.9918,5.53-10.7423,3.32-14.2378s-8.3483-4.1813-13.7225-4.1073a83.0777,83.0777,0,0,0-10.3276.6064" style="fill:none;stroke:#fff;stroke-linecap:round;stroke-linejoin:round;stroke-width:4.1157405771957984px"/><path d="M623.804,741.1145a71.7687,71.7687,0,0,0,6.4989-6.5881c3.0155-3.6429,5.4784-7.9793,4.12-10.2233-1.3838-2.2879-6.2021-2.1-10.6747-1.5859a74.564,74.564,0,0,0-8.6426,1.4307" style="fill:none;stroke:#fff;stroke-linecap:round;stroke-linejoin:round;stroke-width:4.1157405771957984px"/><path d="M654.2689,722.9007c-1.5171-2.17-6.5219-1.6986-11.0562-.7649-2.2539.499-4.4536,1.0375-6.1007,1.4328-1.6242.4434-2.6893.7345-2.6893.7345" style="fill:none;stroke:#fff;stroke-linecap:round;stroke-linejoin:round;stroke-width:4.1157405771957984px"/><path d="M615.6216,667.0679c1.517,2.1712.0533,5.99-1.8813,9.3461a27.8881,27.8881,0,0,1-2.9311,4.2484l-1.481,1.7442" style="fill:none;stroke:#fff;stroke-linecap:round;stroke-linejoin:round;stroke-width:4.1157405771957984px"/><path d="M634.4227,724.3031s.7569-.7936,1.9112-2.0043a38.3764,38.3764,0,0,0,3.8661-4.8365c2.6106-3.79,4.7345-8.0673,3.2174-10.2385-2.5865-3.6115-13.541-.3961-17.4668.3764" style="fill:none;stroke:#fff;stroke-linecap:round;stroke-linejoin:round;stroke-width:4.1157405771957984px"/><path d="M609.3282,682.4066l2.2592-.4744c1.39-.238,3.2488-.5636,5.1654-.8445,3.8582-.5,8.2032-.5133,9.7205,1.6572,1.2456,1.79.3074,4.8091-1.2986,7.7945a41.747,41.747,0,0,1-2.6791,4.2641c-.9533,1.2342-1.8584,2.2845-2.4888,2.9947" style="fill:none;stroke:#fff;stroke-linecap:round;stroke-linejoin:round;stroke-width:4.1157405771957984px"/><path d="M601.5231,697.6562a52.6933,52.6933,0,0,0,5.0785-5.8309c2.312-3.2533,4.0852-7.1755,2.7265-9.4192-1.3838-2.2879-5.5124-2.5141-9.2811-2.39a50.5372,50.5372,0,0,0-7.2226.673" style="fill:none;stroke:#fff;stroke-linecap:round;stroke-linejoin:round;stroke-width:4.1157405771957984px"/><path d="M643.4179,707.2237a30.0216,30.0216,0,0,0,2.0113-2.8514,66.5173,66.5173,0,0,0,3.89-6.8094c2.58-5.2083,4.0212-11.4352,1.41-14.5639-2.6846-3.2236-8.6935-2.8845-14.129-2.2583a68.4076,68.4076,0,0,0-7.0863,1.2715c-1.8414.4439-3.04.7326-3.04.7326" style="fill:none;stroke:#fff;stroke-linecap:round;stroke-linejoin:round;stroke-width:4.1157405771957984px"/><path d="M654.2689,722.9007a24.8294,24.8294,0,0,0,1.84-2.2006c1.062-1.3729,2.4363-3.2446,3.6913-5.2385,2.5614-3.942,4.4506-8.5343,2.7773-10.6228-1.6392-2.0453-6.4081-1.2561-10.8244-.2241-2.1922.5459-4.2686,1.2094-5.7961,1.736-1.534.5273-2.54.8729-2.54.8729" style="fill:none;stroke:#fff;stroke-linecap:round;stroke-linejoin:round;stroke-width:4.1157405771957984px"/><path d="M682.0209,700.8135c-1.8-1.969-6.618-.7579-11.0071.7363a79.8461,79.8461,0,0,0-8.4362,3.289" style="fill:none;stroke:#fff;stroke-linecap:round;stroke-linejoin:round;stroke-width:4.1157405771957984px"/><path d="M636.4113,650.5081c1.775,1.939.8992,6.01-.6,9.5706a49.4289,49.4289,0,0,1-3.6028,6.5131" style="fill:none;stroke:#fff;stroke-linecap:round;stroke-linejoin:round;stroke-width:4.1157405771957984px"/><path d="M662.5776,704.8388a67.7753,67.7753,0,0,0,4.8382-7.528c2.1085-4.0749,3.5738-8.6826,1.7986-10.6226-1.4688-1.6117-4.8727-1.2427-8.307-.311a73.77,73.77,0,0,0-8.93,2.997" style="fill:none;stroke:#fff;stroke-linecap:round;stroke-linejoin:round;stroke-width:4.1157405771957984px"/><path d="M632.209,666.5918a54.7949,54.7949,0,0,1,7.2009-2.2744c3.78-.9792,8.0078-1.6533,9.8079.3155,1.4688,1.6117.959,4.7579-.2127,7.9635a43.8536,43.8536,0,0,1-4.2049,7.8392" style="fill:none;stroke:#fff;stroke-linecap:round;stroke-linejoin:round;stroke-width:4.1157405771957984px"/><path d="M626.4732,682.7452a17.7032,17.7032,0,0,0,1.4295-1.9138,50.5439,50.5439,0,0,0,2.7992-4.5916c1.9157-3.4655,3.18-7.56,1.5071-9.648-1.64-2.0451-5.7834-1.754-9.5547-1.2a48.5127,48.5127,0,0,0-4.9035,1.09l-2.13.5857" style="fill:none;stroke:#fff;stroke-linecap:round;stroke-linejoin:round;stroke-width:4.1157405771957984px"/><path d="M654.2348,662.8327c-2.9385.9855-5.0168,1.8-5.0168,1.8" style="fill:none;stroke:#fff;stroke-linecap:round;stroke-linejoin:round;stroke-width:4.1157405771957984px"/><path d="M669.215,686.6878a51.6811,51.6811,0,0,0,4.0519-8.6614" style="fill:none;stroke:#fff;stroke-linecap:round;stroke-linejoin:round;stroke-width:4.1157405771957984px"/><path d="M682.0209,700.8135s.6154-.951,1.5544-2.4016a41.8,41.8,0,0,0,2.9915-5.65c1.9352-4.3262,3.2955-9.04,1.3843-10.8735s-6.6219-.5155-10.7779,1.169c-2.0686.86-4.0351,1.7923-5.5364,2.4541-1.4631.7109-2.4224,1.1767-2.4224,1.1767" style="fill:none;stroke:#fff;stroke-linecap:round;stroke-linejoin:round;stroke-width:4.1157405771957984px"/><path d="M706.6752,675.3587c-2.0273-1.7069-6.6073.1464-10.8527,2.12-2.0986,1.0151-4.0619,2.1225-5.5,2.9755l-2.3718,1.4346" style="fill:none;stroke:#fff;stroke-linecap:round;stroke-linejoin:round;stroke-width:4.1157405771957984px"/><path d="M687.9511,681.8884s.5644-.9436,1.2911-2.46c.7361-1.507,1.6687-3.5482,2.4617-5.6857q.1752-.4493.3365-.9054" style="fill:none;stroke:#fff;stroke-linecap:round;stroke-linejoin:round;stroke-width:4.1157405771957984px"/><path d="M651.14,647.0174c-2.1488-.5506-5.207.0866-7.9322.9478-1.7832.5837-3.46,1.2436-4.7418,1.7018-1.241.5075-2.0547.8406-2.0547.8406" style="fill:none;stroke:#fff;stroke-linecap:round;stroke-linejoin:round;stroke-width:4.1157405771957984px"/><path d="M649.218,664.6326s.47-.8176,1.1868-2.0646a30.7818,30.7818,0,0,0,2.1965-4.8975" style="fill:none;stroke:#fff;stroke-linecap:round;stroke-linejoin:round;stroke-width:4.1157405771957984px"/><path d="M706.6751,675.3582a71.51,71.51,0,0,0,3.4943-8.5423c.2414-.8317.4616-1.6741.6476-2.5049" style="fill:none;stroke:#fff;stroke-linecap:round;stroke-linejoin:round;stroke-width:4.1157405771957984px"/><path d="M307.9132,563.1281c2.5524,17.2236,25.8749,20.7164,25.8749,20.7164C327.6913,563.051,307.9132,563.1281,307.9132,563.1281Z" style="fill:#413e34;stroke:#fff;stroke-miterlimit:10;stroke-width:5.487654102927731px"/><g style="clip-path:url(#clip-path-3)"><path d="M324.0351,569.0476c2.9593,2.6032,3.5973,6.716,1.4242,9.1862s-6.3333,2.3621-9.2927-.2416-3.5973-6.7159-1.4242-9.1861S321.0755,566.4442,324.0351,569.0476Z" style="fill:#e4dd95;stroke:#fff;stroke-miterlimit:10;stroke-width:5.487654102927731px"/></g><path d="M333.7881,583.8445s-23.3225-3.4928-25.8749-20.7164C307.9132,563.1281,327.6913,563.051,333.7881,583.8445Z" style="fill:none;stroke:#fff;stroke-miterlimit:10;stroke-width:5.487654102927731px"/><path d="M307.9132,563.1281c2.5524,17.2236,25.8749,20.7164,25.8749,20.7164C327.6913,563.051,307.9132,563.1281,307.9132,563.1281Z" style="fill:none;stroke:#fff;stroke-linecap:round;stroke-linejoin:round;stroke-width:4.1157405771957984px"/><path d="M253.7786,594.383c13.64,10.822,5.0033,32.7663,5.0033,32.7663C243.8229,611.4728,253.7786,594.383,253.7786,594.383Z" style="fill:#413e34;stroke:#fff;stroke-miterlimit:10;stroke-width:5.487654102927731px"/><g style="clip-path:url(#clip-path-4)"><path d="M250.8439,611.3044c.775,3.8645,4.0181,6.4732,7.2435,5.8267s5.2123-4.3039,4.4374-8.1687-4.0179-6.4735-7.2434-5.8266S250.069,607.44,250.8439,611.3044Z" style="fill:#e4dd95;stroke:#fff;stroke-miterlimit:10;stroke-width:5.487654102927731px"/></g><path d="M253.7786,594.383c13.64,10.822,5.0033,32.7663,5.0033,32.7663C243.8229,611.4728,253.7786,594.383,253.7786,594.383Z" style="fill:none;stroke:#fff;stroke-miterlimit:10;stroke-width:5.487654102927731px"/><path d="M253.7786,594.383c13.64,10.822,5.0033,32.7663,5.0033,32.7663C243.8229,611.4728,253.7786,594.383,253.7786,594.383Z" style="fill:none;stroke:#fff;stroke-linecap:round;stroke-linejoin:round;stroke-width:4.1157405771957984px"/><line x1="291.2763" y1="634.4779" x2="260.7103" y2="620.0772" style="fill:none;stroke:#fff;stroke-linecap:round;stroke-linejoin:round;stroke-width:4.1157405771957984px"/><line x1="275.6841" y1="599.5632" x2="260.7103" y2="620.0772" style="fill:none;stroke:#fff;stroke-linecap:round;stroke-linejoin:round;stroke-width:4.1157405771957984px"/><line x1="292.3628" y1="658.2006" x2="283.5997" y2="677.8984" style="fill:none;stroke:#fff;stroke-linecap:round;stroke-linejoin:round;stroke-width:4.1157405771957984px"/><path d="M299.1092,610.3885l24.7785,5.261,20.0012,12.8022s11.0013,37.13-6.9348,47.4858-44.5913-17.7369-44.5913-17.7369l-1.0865-23.7227Z" style="fill:none;stroke:#fff;stroke-linecap:round;stroke-linejoin:round;stroke-width:4.1157405771957984px"/><polygon points="273.879 566.689 287.842 566.02 301.447 584.689 299.109 610.388 275.684 599.563 266.319 578.446 273.879 566.689" style="fill:none;stroke:#fff;stroke-linecap:round;stroke-linejoin:round;stroke-width:4.1157405771957984px"/><line x1="323.8877" y1="615.6495" x2="326.6996" y2="581.9784" style="fill:none;stroke:#fff;stroke-linecap:round;stroke-linejoin:round;stroke-width:4.1157405771957984px"/><line x1="301.4469" y1="584.689" x2="326.6996" y2="581.9784" style="fill:none;stroke:#fff;stroke-linecap:round;stroke-linejoin:round;stroke-width:4.1157405771957984px"/><line x1="343.8889" y1="628.4517" x2="365.3296" y2="630.7119" style="fill:none;stroke:#fff;stroke-linecap:round;stroke-linejoin:round;stroke-width:4.1157405771957984px"/><line x1="273.8794" y1="566.6892" x2="265.5951" y2="552.3404" style="fill:none;stroke:#fff;stroke-linecap:round;stroke-linejoin:round;stroke-width:4.1157405771957984px"/><path d="M305.7788,561.1266a203.9836,203.9836,0,0,1,131.5006-255.59c5.2718,0,15.439,18.6643,37.6563,18.6646s96.4006-28.2426,96.4-54.2254-74.1831-54.2252-96.4-54.2255-32.3845,19.3237-37.6564,19.3238C317.497,263.3767,228.3612,370.9881,228.3611,499.4179a270.724,270.724,0,0,0,21.9978,107.2556" style="fill:none;stroke:#fff;stroke-linecap:round;stroke-linejoin:round;stroke-width:5.487654102927731px"/><path d="M442.2914,234.1c.5793,2.59,5.3716,3.9924,9.9126,4.8284,4.5834.9934,11.2077,2.0869,11.2077,2.0869" style="fill:none;stroke:#fff;stroke-linecap:round;stroke-linejoin:round;stroke-width:4.1157405771957984px"/><path d="M442.2917,234.1a48.1973,48.1973,0,0,0-7.9468,4.7316c-3.8339,2.7815-7.3638,6.176-6.616,8.7268.7426,2.5321,5.4891,3.75,9.934,4.3656.6483.0783,1.2929.1509,1.9211.218" style="fill:none;stroke:#fff;stroke-linecap:round;stroke-linejoin:round;stroke-width:4.1157405771957984px"/><path d="M408.243,243.92c.9183,2.5156,5.7954,3.1347,10.4651,3.5522a78.896,78.896,0,0,0,9.0208.0865" style="fill:none;stroke:#fff;stroke-linecap:round;stroke-linejoin:round;stroke-width:4.1157405771957984px"/><path d="M431.2561,307.8044c-.8988-2.4591,1.43-5.9894,4.2172-8.5832a49.9609,49.9609,0,0,1,5.79-4.7386" style="fill:none;stroke:#fff;stroke-linecap:round;stroke-linejoin:round;stroke-width:4.1157405771957984px"/><path d="M427.7289,247.5584a68.2159,68.2159,0,0,0-7.3074,5.2031c-3.5429,2.837-6.6159,6.6365-5.717,9.0961.755,2.0806,3.9977,2.9083,7.5632,3.4618a55.887,55.887,0,0,0,6.8565.565" style="fill:none;stroke:#fff;stroke-linecap:round;stroke-linejoin:round;stroke-width:4.1157405771957984px"/><path d="M449.7054,293.7311s-12.0457.7839-15.9459.2007c-3.9135-.6611-8.0469-1.5491-8.9651-4.065-.7338-2.0189.8928-4.8622,3.2332-7.2726a39.1461,39.1461,0,0,1,3.4462-3.1175" style="fill:none;stroke:#fff;stroke-linecap:round;stroke-linejoin:round;stroke-width:4.1157405771957984px"/><path d="M461.7852,298.4393s-14.6441,3.0028-18.4235,10.9723" style="fill:none;stroke:#fff;stroke-linecap:round;stroke-linejoin:round;stroke-width:4.1157405771957984px"/><path d="M414.704,261.8577s-1.0985.8434-2.68,2.2239a45.5719,45.5719,0,0,0-5.5135,5.5543c-3.7712,4.5137-6.8988,9.8514-5.1273,13.6738,1.708,3.6807,7.7334,5.2078,13.09,5.8542,2.672.2748,5.2809.5222,7.1868.6162,1.9075.0981,3.1347.0864,3.1347.0864" style="fill:none;stroke:#fff;stroke-linecap:round;stroke-linejoin:round;stroke-width:4.1157405771957984px"/><path d="M408.243,243.92a64.6827,64.6827,0,0,0-7.28,5.6737c-3.4189,3.3006-6.4549,7.178-5.3871,9.6018s5.9078,2.9624,10.374,2.95a84.6949,84.6949,0,0,0,8.755-.2877" style="fill:none;stroke:#fff;stroke-linecap:round;stroke-linejoin:round;stroke-width:4.1157405771957984px"/><path d="M375.7485,258.0191c1.195,2.2957,6.2316,2.522,10.8567,2.2139,4.6078-.3756,8.9708-1.0381,8.9708-1.0381" style="fill:none;stroke:#fff;stroke-linecap:round;stroke-linejoin:round;stroke-width:4.1157405771957984px"/><path d="M406.8241,318.395c-1.25-2.403.7246-5.9629,3.0973-9.0145a35.0957,35.0957,0,0,1,5.1479-5.4071" style="fill:none;stroke:#fff;stroke-linecap:round;stroke-linejoin:round;stroke-width:4.1157405771957984px"/><path d="M395.576,259.1949a48.4222,48.4222,0,0,0-6.5875,6.0617c-3.0874,3.39-5.7642,7.3117-4.5142,9.7153,2.034,3.7944,13.4359,2.2937,17.3506,1.8691" style="fill:none;stroke:#fff;stroke-linecap:round;stroke-linejoin:round;stroke-width:4.1157405771957984px"/><path d="M415.0693,303.9734s-3.6374.3476-7.531.3832c-3.91-.03-8.2442-.6186-9.44-2.9144-2.0864-3.89,5.44-11.6054,8.3582-14.1156" style="fill:none;stroke:#fff;stroke-linecap:round;stroke-linejoin:round;stroke-width:4.1157405771957984px"/><path d="M424.7944,289.8668a47.5052,47.5052,0,0,0-5.7987,5.1132c-2.6835,3.0094-4.9941,6.57-3.9264,8.9934s5.1825,3.2795,8.9139,3.5587a57.77,57.77,0,0,0,7.2735.2726" style="fill:none;stroke:#fff;stroke-linecap:round;stroke-linejoin:round;stroke-width:4.1157405771957984px"/><path d="M384.4739,274.972a69.7227,69.7227,0,0,0-7.12,8.7763c-3.15,4.9726-5.4967,10.78-3.2921,14.2661,2.2149,3.5048,8.322,4.1312,13.71,4.07a69.7894,69.7894,0,0,0,10.3259-.6423" style="fill:none;stroke:#fff;stroke-linecap:round;stroke-linejoin:round;stroke-width:4.1157405771957984px"/><path d="M375.7485,258.0191a71.9863,71.9863,0,0,0-6.4476,6.6356c-3.0629,3.5383-5.4555,7.9792-4.1114,10.1952,1.4,2.3148,6.151,2.02,10.6778,1.6078a73.686,73.686,0,0,0,8.607-1.4858" style="fill:none;stroke:#fff;stroke-linecap:round;stroke-linejoin:round;stroke-width:4.1157405771957984px"/><path d="M345.3784,276.2534c1.5156,2.1716,6.5036,1.69,11.0227.7436,2.24-.5142,4.4991-.9528,6.11-1.4011,1.6174-.45,2.678-.7461,2.678-.7461" style="fill:none;stroke:#fff;stroke-linecap:round;stroke-linejoin:round;stroke-width:4.1157405771957984px"/><path d="M383.9954,332.1068c-1.5156-2.1716-.0551-6.0105,1.8744-9.3858a31.4519,31.4519,0,0,1,2.9559-4.2262l1.4768-1.7592" style="fill:none;stroke:#fff;stroke-linecap:round;stroke-linejoin:round;stroke-width:4.1157405771957984px"/><path d="M365.1892,274.85l-1.8992,2.0155a43.0632,43.0632,0,0,0-3.8766,4.8057c-2.5963,3.803-4.7077,8.093-3.192,10.265,2.5548,3.5674,13.546.4257,17.4517-.38" style="fill:none;stroke:#fff;stroke-linecap:round;stroke-linejoin:round;stroke-width:4.1157405771957984px"/><path d="M390.3025,316.7356l-2.2554.49c-1.3582.2936-3.2826.5229-5.1892.8225-3.8524.5178-8.1894.548-9.7055-1.6235-2.5249-3.5206,3.8194-12.3228,6.4681-15.0688" style="fill:none;stroke:#fff;stroke-linecap:round;stroke-linejoin:round;stroke-width:4.1157405771957984px"/><path d="M398.0983,301.4422a53.1889,53.1889,0,0,0-5.0536,5.89c-2.3717,3.1552-4.086,7.1879-2.7424,9.4041,1.4,2.3146,5.4731,2.4287,9.3088,2.3988a50.2538,50.2538,0,0,0,7.2133-.74" style="fill:none;stroke:#fff;stroke-linecap:round;stroke-linejoin:round;stroke-width:4.1157405771957984px"/><path d="M356.2208,291.9365a29.6534,29.6534,0,0,0-2.0332,2.8167,66.7651,66.7651,0,0,0-3.8757,6.8284c-2.6215,5.1563-4.028,11.434-1.4294,14.5558,2.6893,3.2373,8.6562,2.8536,14.1322,2.2786a68.0394,68.0394,0,0,0,7.0721-1.2915l3.0651-.7" style="fill:none;stroke:#fff;stroke-linecap:round;stroke-linejoin:round;stroke-width:4.1157405771957984px"/><path d="M345.3784,276.2534s-.7756.8287-1.862,2.1637c-1.0573,1.3756-2.4263,3.2511-3.676,5.2493-2.5317,3.9736-4.4765,8.495-2.7911,10.6042,1.6224,2.0281,6.4417,1.3132,10.829.25,2.1865-.55,4.2568-1.2181,5.78-1.7476l2.5629-.8369" style="fill:none;stroke:#fff;stroke-linecap:round;stroke-linejoin:round;stroke-width:4.1157405771957984px"/><path d="M317.6155,298.28c1.81,1.9869,6.5779.7221,11.0164-.7095a79.424,79.424,0,0,0,8.4174-3.3" style="fill:none;stroke:#fff;stroke-linecap:round;stroke-linejoin:round;stroke-width:4.1157405771957984px"/><path d="M363.1567,348.6481c-1.7593-1.9272-.9309-6.0566.6225-9.5593a49.6249,49.6249,0,0,1,3.5942-6.5357" style="fill:none;stroke:#fff;stroke-linecap:round;stroke-linejoin:round;stroke-width:4.1157405771957984px"/><path d="M337.0493,294.2706a67.94,67.94,0,0,0-4.8248,7.544c-2.1613,4.015-3.5813,8.6814-1.8218,10.6079,1.4666,1.6141,4.8642,1.2418,8.2922.3061a64.2418,64.2418,0,0,0,8.94-2.9771" style="fill:none;stroke:#fff;stroke-linecap:round;stroke-linejoin:round;stroke-width:4.1157405771957984px"/><path d="M367.3734,332.5531a54.52,54.52,0,0,1-7.1867,2.292c-3.8307.9188-8.0067,1.6465-9.8174-.34-1.4664-1.6139-.9589-4.7669.2091-7.98a48.6335,48.6335,0,0,1,4.2233-7.827" style="fill:none;stroke:#fff;stroke-linecap:round;stroke-linejoin:round;stroke-width:4.1157405771957984px"/><path d="M373.1524,316.4241s-.6127.7162-1.4563,1.88a50.9082,50.9082,0,0,0-2.7922,4.61c-1.8932,3.5025-3.216,7.53-1.5305,9.6389,1.6222,2.0284,5.82,1.8076,9.5685,1.2157a48.31,48.31,0,0,0,4.8965-1.1087l2.1571-.5529" style="fill:none;stroke:#fff;stroke-linecap:round;stroke-linejoin:round;stroke-width:4.1157405771957984px"/><path d="M330.4025,312.4228s-.7029,1.191-1.6516,3.059a45.6225,45.6225,0,0,0-2.97,7.2586,30.8094,30.8094,0,0,0-1.6341,8.2974c-.023,2.62.5891,4.9,2.095,6.3058,1.5163,1.4172,3.7638,1.8323,6.2936,1.751a33.9877,33.9877,0,0,0,8.03-1.315c2.6152-.7188,5.0156-1.5912,6.8567-2.1814,1.8107-.6232,2.9476-1.0923,2.9476-1.0923" style="fill:none;stroke:#fff;stroke-linecap:round;stroke-linejoin:round;stroke-width:4.1157405771957984px"/><path d="M317.6158,298.28s-.6145.9531-1.5513,2.4066a42.544,42.544,0,0,0-3.0168,5.63c-1.932,4.3372-3.2884,9.0618-1.3789,10.8974s6.6116.5111,10.76-1.18c2.0515-.8778,4.08-1.7442,5.5568-2.43l2.4177-1.1807" style="fill:none;stroke:#fff;stroke-linecap:round;stroke-linejoin:round;stroke-width:4.1157405771957984px"/><path d="M292.9034,323.7221c1.0091.857,2.6736.82,4.5845.3064a32.3269,32.3269,0,0,0,6.29-2.4168c2.0944-1.0207,4.0536-2.1332,5.4885-2.99l2.402-1.4077" style="fill:none;stroke:#fff;stroke-linecap:round;stroke-linejoin:round;stroke-width:4.1157405771957984px"/><path d="M344.6354,367.7067a5.3793,5.3793,0,0,1-1.495-4.0469,20.9366,20.9366,0,0,1,.9009-5.47,47.6512,47.6512,0,0,1,1.7031-4.8959,15.4811,15.4811,0,0,1,.9756-2.0728" style="fill:none;stroke:#fff;stroke-linecap:round;stroke-linejoin:round;stroke-width:4.1157405771957984px"/><path d="M311.6688,317.2138a22.1045,22.1045,0,0,0-1.3226,2.4335c-.7333,1.5118-1.6627,3.56-2.4526,5.7032a27.15,27.15,0,0,0-1.6327,6.2937c-.14,1.9584.1587,3.5706,1.1682,4.4283,3.2535,2.666,13.3419-2.9591,16.72-4.9189" style="fill:none;stroke:#fff;stroke-linecap:round;stroke-linejoin:round;stroke-width:4.1157405771957984px"/><path d="M346.72,351.2208l-2.0554,1.0468a52.013,52.013,0,0,1-4.7383,2.1833,24.9555,24.9555,0,0,1-5.5589,1.5932c-1.7136.2859-3.248.17-4.2577-.6878-3.4852-2.8668.6477-12.7564,2.31-16.2651" style="fill:none;stroke:#fff;stroke-linecap:round;stroke-linejoin:round;stroke-width:4.1157405771957984px"/><path d="M350.3693,334.5053s-.4685.82-1.1833,2.0705a31.2328,31.2328,0,0,0-2.2187,4.8765c-1.3555,3.7832-2.1561,7.9329-.2466,9.7686s6.056,1.0857,9.6277-.0513c1.7638-.6,3.5014-1.1932,4.7587-1.6768,1.238-.51,2.05-.8442,2.05-.8442" style="fill:none;stroke:#fff;stroke-linecap:round;stroke-linejoin:round;stroke-width:4.1157405771957984px"/><path d="M307.4286,336.0726a63.3863,63.3863,0,0,0-3.2568,10.8207c-.9947,5.8188-.9931,12.0469,2.385,14.4321s9.3082.6683,14.2414-1.4581a79.1691,79.1691,0,0,0,9.3112-4.51" style="fill:none;stroke:#fff;stroke-linecap:round;stroke-linejoin:round;stroke-width:4.1157405771957984px"/><path d="M292.9034,323.7221a71.8413,71.8413,0,0,0-3.4766,8.5776c-1.4091,4.5057-2.01,9.4681.0994,11.0185,2.1575,1.5887,6.5206-.4416,10.4727-2.613a74.3589,74.3589,0,0,0,7.43-4.6327" style="fill:none;stroke:#fff;stroke-linecap:round;stroke-linejoin:round;stroke-width:4.1157405771957984px"/><path d="M271.7282,352.2088c2.2321,1.4256,6.6724-.9279,10.501-3.5286,1.8938-1.3576,3.7283-2.6731,5.0949-3.653l2.2021-1.709" style="fill:none;stroke:#fff;stroke-linecap:round;stroke-linejoin:round;stroke-width:4.1157405771957984px"/><path d="M328.79,389.0174c-2.2321-1.4255-2.3445-5.5156-1.8454-9.3591a28.2666,28.2666,0,0,1,1.0891-5.0418c.4225-1.3164.6992-2.1795.6992-2.1795" style="fill:none;stroke:#fff;stroke-linecap:round;stroke-linejoin:round;stroke-width:4.1157405771957984px"/><path d="M289.5262,343.3182l-.9974,2.5845a39.0944,39.0944,0,0,0-1.7291,5.944c-.9584,4.5044-1.2814,9.2718.95,10.6975,3.7647,2.3429,12.6613-4.814,15.992-7.03" style="fill:none;stroke:#fff;stroke-linecap:round;stroke-linejoin:round;stroke-width:4.1157405771957984px"/><path d="M328.7328,372.437s-.7544.5164-1.9037,1.3038c-1.1833.7587-2.7967,1.7557-4.455,2.7511-3.37,1.94-7.3743,3.6158-9.6065,2.19-3.643-2.2569-1.2127-12.8566.2145-16.3832" style="fill:none;stroke:#fff;stroke-linecap:round;stroke-linejoin:round;stroke-width:4.1157405771957984px"/><path d="M330.11,355.3565a52.8034,52.8034,0,0,0-2.4561,7.3371c-.9085,3.8781-1.03,8.1934,1.0792,9.7436,2.1581,1.5886,6.0417.206,9.4931-1.338a50.4528,50.4528,0,0,0,6.41-3.3917" style="fill:none;stroke:#fff;stroke-linecap:round;stroke-linejoin:round;stroke-width:4.1157405771957984px"/><path d="M287.75,362.5447a26.1016,26.1016,0,0,0-.78,3.397,66.7692,66.7692,0,0,0-.978,7.7882c-.4377,5.775.6727,12.1117,4.2691,13.9948,3.7283,1.9585,9.091-.6869,13.9183-3.3183a68.0947,68.0947,0,0,0,6.0475-3.8918c1.5387-1.1095,2.54-1.8322,2.54-1.8322" style="fill:none;stroke:#fff;stroke-linecap:round;stroke-linejoin:round;stroke-width:4.1157405771957984px"/><path d="M271.7282,352.2088a22.3333,22.3333,0,0,0-.8709,2.7308c-.4543,1.6764-1.0052,3.9344-1.3992,6.26-.8427,4.6335-.8773,9.5749,1.4871,10.8753,2.2778,1.2508,6.4279-1.2785,10.0976-3.9317,1.8134-1.3457,3.4747-2.7556,4.6823-3.8286,1.2233-1.0692,2.0257-1.77,2.0257-1.77" style="fill:none;stroke:#fff;stroke-linecap:round;stroke-linejoin:round;stroke-width:4.1157405771957984px"/><path d="M254.5338,383.25c2.4378,1.1389,6.34-1.8664,9.8976-4.8924a79.7886,79.7886,0,0,0,6.5138-6.2826" style="fill:none;stroke:#fff;stroke-linecap:round;stroke-linejoin:round;stroke-width:4.1157405771957984px"/><path d="M315.93,412.2569c-2.3621-1.1014-3.1964-5.2386-3.1028-9.0622a49.5516,49.5516,0,0,1,.8105-7.4051" style="fill:none;stroke:#fff;stroke-linecap:round;stroke-linejoin:round;stroke-width:4.1157405771957984px"/><path d="M270.9452,372.0749a67.9672,67.9672,0,0,0-1.5673,8.8213c-.4618,4.5367.033,9.3964,2.3952,10.4983,1.9739.9263,4.9653-.724,7.7665-2.9065a64.0062,64.0062,0,0,0,7.1211-6.1806" style="fill:none;stroke:#fff;stroke-linecap:round;stroke-linejoin:round;stroke-width:4.1157405771957984px"/><path d="M313.6378,395.79a54.5278,54.5278,0,0,1-5.757,4.8664c-3.189,2.3129-6.7523,4.5959-9.19,3.4563-1.9738-.9263-2.72-4.0341-2.8793-7.45a48.828,48.828,0,0,1,.9-8.8428" style="fill:none;stroke:#fff;stroke-linecap:round;stroke-linejoin:round;stroke-width:4.1157405771957984px"/><path d="M312.7676,378.6821a15.9021,15.9021,0,0,0-.6007,2.307,50.7823,50.7823,0,0,0-.82,5.3175c-.4276,3.9437-.073,8.1826,2.2914,9.483,2.2778,1.2508,6.039-.5757,9.2939-2.539a48.1887,48.1887,0,0,0,4.1028-2.8861c1.06-.8132,1.755-1.3469,1.755-1.3469" style="fill:none;stroke:#fff;stroke-linecap:round;stroke-linejoin:round;stroke-width:4.1157405771957984px"/><path d="M271.7732,391.395s-.19,1.37-.3469,3.461a43.041,43.041,0,0,0,.0383,7.8383c.4808,5.8457,2.0666,11.845,6.02,13.3,3.809,1.4,9.1233-1.7851,13.407-5.0946,2.1078-1.6822,4.0337-3.39,5.501-4.6449,1.43-1.2713,2.298-2.1421,2.298-2.1421" style="fill:none;stroke:#fff;stroke-linecap:round;stroke-linejoin:round;stroke-width:4.1157405771957984px"/><path d="M254.5338,383.25s-.2,1.1167-.5054,2.8195a43.7381,43.7381,0,0,0-.6366,6.3509c-.1034,4.7491.4723,9.6351,2.94,10.5969s6.2874-2.0707,9.4545-5.23c1.5429-1.603,3.1343-3.1608,4.2109-4.3724,1.0726-1.22,1.7758-2.0205,1.7758-2.0205" style="fill:none;stroke:#fff;stroke-linecap:round;stroke-linejoin:round;stroke-width:4.1157405771957984px"/><path d="M241.46,416.1828c2.4615.78,6.22-2.6049,9.2646-6.0913,1.5353-1.7454,2.89-3.5314,3.8985-4.866l1.708-2.2087" style="fill:none;stroke:#fff;stroke-linecap:round;stroke-linejoin:round;stroke-width:4.1157405771957984px"/><path d="M306.0973,436.99c-2.5878-.821-3.67-4.7258-4.1573-8.5671a43.81,43.81,0,0,1-.3221-5.19c.0826-1.3762.1375-2.2787.1375-2.2787" style="fill:none;stroke:#fff;stroke-linecap:round;stroke-linejoin:round;stroke-width:4.1157405771957984px"/><path d="M256.3314,403.0168s-.1256,1.086-.3176,2.7413a59.406,59.406,0,0,0-.0544,6.2069c.22,4.5835,1.062,9.2392,3.65,10.06,4.138,1.2564,11.1593-7.8527,13.6029-10.9288" style="fill:none;stroke:#fff;stroke-linecap:round;stroke-linejoin:round;stroke-width:4.1157405771957984px"/><path d="M301.7554,420.9546s-.6055.6917-1.5285,1.7458c-.9029,1.0579-2.119,2.4751-3.5218,3.8489-2.7771,2.7444-6.2954,5.3785-8.7572,4.5985-4.2059-1.2757-4.3158-12.05-4.0506-15.8983" style="fill:none;stroke:#fff;stroke-linecap:round;stroke-linejoin:round;stroke-width:4.1157405771957984px"/><path d="M298.6908,404.1123s-.1162.9374-.2944,2.3665a32.1869,32.1869,0,0,0-.1889,5.3487c.2137,4.02,1.08,8.1655,3.5476,9.1277s5.997-1.3308,8.8467-3.76c1.3859-1.2392,2.8126-2.43,3.7637-3.37.9453-.9468,1.565-1.5671,1.565-1.5671" style="fill:none;stroke:#fff;stroke-linecap:round;stroke-linejoin:round;stroke-width:4.1157405771957984px"/><path d="M259.6092,422.0259a69.9354,69.9354,0,0,0,1.1844,11.249c1.1966,5.722,3.747,11.5223,7.7437,12.4263,4.0694.9236,8.7235-2.973,12.58-6.7971a69.5423,69.5423,0,0,0,6.83-7.7558" style="fill:none;stroke:#fff;stroke-linecap:round;stroke-linejoin:round;stroke-width:4.1157405771957984px"/><path d="M241.4606,416.183a71.9876,71.9876,0,0,0,.1425,9.2557c.3283,4.6659,1.7191,9.4889,4.2695,10.1181,2.5919.6414,5.7988-2.91,8.7137-6.3968a73.5216,73.5216,0,0,0,5.0234-7.1349" style="fill:none;stroke:#fff;stroke-linecap:round;stroke-linejoin:round;stroke-width:4.1157405771957984px"/><path d="M232.863,450.5608c2.615.4685,5.7471-3.4137,8.2815-7.2772a80.0184,80.0184,0,0,0,4.7281-7.7268" style="fill:none;stroke:#fff;stroke-linecap:round;stroke-linejoin:round;stroke-width:4.1157405771957984px"/><path d="M299.6525,462.812c-2.5992-.4645-4.337-4.22-5.3535-7.9675a49.2944,49.2944,0,0,1-1.0681-7.3606" style="fill:none;stroke:#fff;stroke-linecap:round;stroke-linejoin:round;stroke-width:4.1157405771957984px"/><path d="M245.8726,435.5568a67.596,67.596,0,0,0,.7049,8.9084c.8451,4.528,2.44,9.0714,5.0388,9.5359,2.1457.3877,4.6294-1.9729,6.7952-4.7986a81.756,81.756,0,0,0,5.272-7.8045" style="fill:none;stroke:#fff;stroke-linecap:round;stroke-linejoin:round;stroke-width:4.1157405771957984px"/><path d="M293.2309,447.4839a55.0292,55.0292,0,0,1-4.365,6.1786c-2.3629,3.0835-5.3518,6.1772-7.967,5.71-2.1458-.3881-3.6488-3.1961-4.6616-6.4526a41.1516,41.1516,0,0,1-1.4223-8.7821" style="fill:none;stroke:#fff;stroke-linecap:round;stroke-linejoin:round;stroke-width:4.1157405771957984px"/><path d="M287.9479,431.1478a53.3948,53.3948,0,0,0,.6021,7.7467c.5468,3.9115,2.1311,7.96,4.6812,8.59,2.5924.64,5.6054-2.1355,8.3026-4.868a50.0858,50.0858,0,0,0,4.5643-5.626" style="fill:none;stroke:#fff;stroke-linecap:round;stroke-linejoin:round;stroke-width:4.1157405771957984px"/><path d="M251.6161,454.0014a50.55,50.55,0,0,0,2.6182,11.0023,30.017,30.017,0,0,0,3.7453,7.5772c1.6062,2.0956,3.4531,3.5285,5.5113,3.7281s4.12-.8363,6.0486-2.4442a35.0139,35.0139,0,0,0,5.5788-5.9286c3.2122-4.3347,5.78-8.5636,5.78-8.5636" style="fill:none;stroke:#fff;stroke-linecap:round;stroke-linejoin:round;stroke-width:4.1157405771957984px"/><path d="M232.8633,450.561s.0877,1.13.22,2.8524a41.4929,41.4929,0,0,0,1.0582,6.31c1.0943,4.6173,2.8809,9.1913,5.5132,9.4851s5.57-3.62,7.8445-7.4851c1.12-1.9419,2.1106-3.8792,2.9046-5.3163.7321-1.4533,1.2126-2.4065,1.2126-2.4065" style="fill:none;stroke:#fff;stroke-linecap:round;stroke-linejoin:round;stroke-width:4.1157405771957984px"/><path d="M228.7483,485.8061c2.615.1181,5.1806-4.1437,7.3372-8.2994,1.0444-2.0853,1.9249-4.1617,2.5447-5.7154.6187-1.56,1.0248-2.5824,1.0248-2.5824" style="fill:none;stroke:#fff;stroke-linecap:round;stroke-linejoin:round;stroke-width:4.1157405771957984px"/><path d="M296.5679,489.19c-2.6764-.1217-4.9223-3.615-6.2712-7.1843a47.4623,47.4623,0,0,1-1.62-4.9175,17.7667,17.7667,0,0,1-.5115-2.24" style="fill:none;stroke:#fff;stroke-linecap:round;stroke-linejoin:round;stroke-width:4.1157405771957984px"/><path d="M239.655,469.2089a25.22,25.22,0,0,0,.4561,2.7391c.3358,1.6464.8407,3.837,1.5153,6.0189,1.2811,4.3711,3.4884,8.6674,6.1649,8.7895,4.2.1329,8.779-10.4728,10.2644-14.0853" style="fill:none;stroke:#fff;stroke-linecap:round;stroke-linejoin:round;stroke-width:4.1157405771957984px"/><path d="M288.1656,474.848l-.9693,2.0836c-.5879,1.2539-1.43,2.93-2.4406,4.6143-2.0887,3.3536-4.6155,6.8121-7.2305,6.6941-4.5151-.1522-7.2573-10.5106-8.0758-14.3073" style="fill:none;stroke:#fff;stroke-linecap:round;stroke-linejoin:round;stroke-width:4.1157405771957984px"/><path d="M280.8989,459.3723s.1224.9348.3086,2.36a30.3718,30.3718,0,0,0,1.2332,5.2221c1.2151,3.8234,3.0933,7.6,5.7252,7.8935s5.4786-2.8218,7.633-5.894c1.0609-1.5441,1.9863-3.0858,2.7294-4.2276.679-1.1562,1.1245-1.9144,1.1245-1.9144" style="fill:none;stroke:#fff;stroke-linecap:round;stroke-linejoin:round;stroke-width:4.1157405771957984px"/><path d="M247.7911,486.7567a61.4293,61.4293,0,0,0,4.0068,10.5671c2.75,5.2209,6.5385,10.16,10.67,9.9939s7.795-5.1391,10.4181-9.83a83.1145,83.1145,0,0,0,4.6386-9.2471" style="fill:none;stroke:#fff;stroke-linecap:round;stroke-linejoin:round;stroke-width:4.1157405771957984px"/><path d="M228.7486,485.8063a71.7592,71.7592,0,0,0,2.4558,8.9224c1.6472,4.4332,4.1712,8.7343,6.7938,8.68,2.6733-.0542,4.9193-4.3213,6.7107-8.4515a74.5128,74.5128,0,0,0,3.0824-8.2" style="fill:none;stroke:#fff;stroke-linecap:round;stroke-linejoin:round;stroke-width:4.1157405771957984px"/><path d="M229.2894,521.2967c2.6387-.2286,4.7323-4.7986,6.1908-9.1923.6947-2.2013,1.3287-4.3757,1.81-6,.4279-1.6286.7084-2.6964.7084-2.6964" style="fill:none;stroke:#fff;stroke-linecap:round;stroke-linejoin:round;stroke-width:4.1157405771957984px"/><path d="M296.9659,515.7437c-2.6388.2282-5.2138-2.949-7.1533-6.3026a27.8544,27.8544,0,0,1-2.2137-4.6626c-.465-1.3011-.77-2.1545-.77-2.1545" style="fill:none;stroke:#fff;stroke-linecap:round;stroke-linejoin:round;stroke-width:4.1157405771957984px"/><path d="M237.9982,503.4082s.3089,1.0526.78,2.6574a38.3325,38.3325,0,0,0,2.2553,5.7666c1.9773,4.1561,4.6194,8.1337,7.2584,7.9053,4.4208-.4342,7.1135-11.5285,8.4072-15.3148" style="fill:none;stroke:#fff;stroke-linecap:round;stroke-linejoin:round;stroke-width:4.1157405771957984px"/><path d="M286.8293,502.624s-.2853.8688-.7191,2.1939c-.489,1.3224-1.1364,3.095-1.8513,4.8954-1.4963,3.5912-3.6571,7.3611-6.2955,7.59-2.173.1839-4.3187-2.1385-6.1008-5.0218a41.734,41.734,0,0,1-2.3535-4.4524c-.5918-1.4426-1.049-2.7517-1.349-3.6526" style="fill:none;stroke:#fff;stroke-linecap:round;stroke-linejoin:round;stroke-width:4.1157405771957984px"/><path d="M277.5252,488.24a52.6766,52.6766,0,0,0,2.51,7.3134c1.6619,3.6289,4.1716,7.1255,6.7942,7.0708,2.6735-.0545,4.9336-3.5169,6.71-6.8425a50.5373,50.5373,0,0,0,3.0287-6.5917" style="fill:none;stroke:#fff;stroke-linecap:round;stroke-linejoin:round;stroke-width:4.1157405771957984px"/><path d="M248.2919,519.7381a30.0649,30.0649,0,0,0,1.4637,3.1675,66.4675,66.4675,0,0,0,3.952,6.7737c3.22,4.8391,7.8924,9.2,11.9075,8.503,4.1342-.713,6.8449-6.0864,9.0205-11.1069a68.5536,68.5536,0,0,0,2.4419-6.7726c.5362-1.8168.8857-2.9994.8857-2.9994" style="fill:none;stroke:#fff;stroke-linecap:round;stroke-linejoin:round;stroke-width:4.1157405771957984px"/><path d="M229.2894,521.2967a24.7828,24.7828,0,0,0,.9863,2.6939c.6578,1.6061,1.5916,3.7322,2.69,5.8161,2.1335,4.189,5.1656,8.1213,7.8111,7.7167,2.5909-.397,4.292-4.9215,5.6064-9.2624.6233-2.1715,1.0868-4.3012,1.3945-5.8874.31-1.5922.5138-2.6363.5138-2.6363" style="fill:none;stroke:#fff;stroke-linecap:round;stroke-linejoin:round;stroke-width:4.1157405771957984px"/><path d="M234.5417,556.3744c2.6053-.5748,3.9653-5.3524,4.8659-9.9007a79.8793,79.8793,0,0,0,1.37-8.95" style="fill:none;stroke:#fff;stroke-linecap:round;stroke-linejoin:round;stroke-width:4.1157405771957984px"/><path d="M300.9125,542.0283c-2.567.5676-5.6551-2.2268-7.9886-5.3049a49.3547,49.3547,0,0,1-3.8391-6.3765" style="fill:none;stroke:#fff;stroke-linecap:round;stroke-linejoin:round;stroke-width:4.1157405771957984px"/><path d="M240.7773,537.5234a67.812,67.812,0,0,0,4.1,7.9539c2.4748,3.8634,5.7327,7.4364,8.3,6.8687,2.13-.4656,3.5127-3.5981,4.423-7.0381a73.7007,73.7007,0,0,0,1.8695-9.2326" style="fill:none;stroke:#fff;stroke-linecap:round;stroke-linejoin:round;stroke-width:4.1157405771957984px"/><path d="M289.0848,530.3469a54.78,54.78,0,0,1-1.631,7.3732c-1.0419,3.7631-2.572,7.7618-5.1775,8.3362-2.13.4663-4.6-1.5485-6.79-4.1659a43.8367,43.8367,0,0,1-4.6864-7.5612" style="fill:none;stroke:#fff;stroke-linecap:round;stroke-linejoin:round;stroke-width:4.1157405771957984px"/><path d="M277.9632,517.3027a17.7327,17.7327,0,0,0,.9426,2.1951,50.6171,50.6171,0,0,0,2.577,4.72c2.043,3.3918,4.9567,6.5337,7.602,6.1293,2.5907-.3974,4.4107-4.1316,5.8159-7.6751a48.493,48.493,0,0,0,1.5082-4.7912c.3366-1.2907.5575-2.137.5575-2.137" style="fill:none;stroke:#fff;stroke-linecap:round;stroke-linejoin:round;stroke-width:4.1157405771957984px"/><path d="M281.3272,551.3011c.6158-3.0372.95-5.2442.95-5.2442" style="fill:none;stroke:#fff;stroke-linecap:round;stroke-linejoin:round;stroke-width:4.1157405771957984px"/><path d="M253.1777,552.3468a51.6731,51.6731,0,0,0,5.4754,7.84" style="fill:none;stroke:#fff;stroke-linecap:round;stroke-linejoin:round;stroke-width:4.1157405771957984px"/><path d="M234.5417,556.3744l1.3025,2.5468a41.8021,41.8021,0,0,0,3.3973,5.4157c2.7792,3.8393,6.1812,7.374,8.7246,6.6356s3.7576-5.477,4.3768-9.9182c.2893-2.2217.4651-4.3909.643-6.0218.1158-1.6224.1918-2.6865.1918-2.6865" style="fill:none;stroke:#fff;stroke-linecap:round;stroke-linejoin:round;stroke-width:4.1157405771957984px"/><path d="M244.2591,590.4531c2.4918-.9023,3.177-5.7954,3.5908-10.4586.17-2.325.1925-4.5789.1728-6.25-.0341-1.6738-.0566-2.7715-.0566-2.7715" style="fill:none;stroke:#fff;stroke-linecap:round;stroke-linejoin:round;stroke-width:4.1157405771957984px"/><path d="M247.9661,570.9725s.5351.9609,1.4847,2.3481c.9373,1.3907,2.2383,3.2192,3.6929,4.9748q.3016.3759.6157.744" style="fill:none;stroke:#fff;stroke-linecap:round;stroke-linejoin:round;stroke-width:4.1157405771957984px"/><path d="M296.5709,556.5286c1.5515-1.5858,2.5285-4.5525,3.1455-7.3433.3861-1.836.6531-3.6186.8969-4.9574.1813-1.3286.3-2.2.3-2.2" style="fill:none;stroke:#fff;stroke-linecap:round;stroke-linejoin:round;stroke-width:4.1157405771957984px"/><path d="M282.2769,546.0566s.4731.8157,1.1943,2.06a30.8018,30.8018,0,0,0,3.1432,4.3509" style="fill:none;stroke:#fff;stroke-linecap:round;stroke-linejoin:round;stroke-width:4.1157405771957984px"/><path d="M244.2594,590.4533a71.499,71.499,0,0,0,5.6509,7.297c.6.625,1.2187,1.2368,1.8455,1.8135" style="fill:none;stroke:#fff;stroke-linecap:round;stroke-linejoin:round;stroke-width:4.1157405771957984px"/><path d="M540.8345,301.23c-16.1921-6.4015-30.8781,12.05-30.8781,12.05C531.0123,318.3972,540.8345,301.23,540.8345,301.23Z" style="fill:#413e34;stroke:#fff;stroke-miterlimit:10;stroke-width:5.487654102927731px"/><g style="clip-path:url(#clip-path-5)"><path d="M527.6472,312.2325c-3.734,1.2612-7.6149-.2428-8.6675-3.36s1.1211-6.6659,4.8555-7.9273,7.6149.2428,8.6676,3.36S531.3816,310.9711,527.6472,312.2325Z" style="fill:#e4dd95;stroke:#fff;stroke-miterlimit:10;stroke-width:5.487654102927731px"/></g><path d="M509.9564,313.2806s14.686-18.4517,30.8781-12.05C540.8345,301.23,531.0123,318.3972,509.9564,313.2806Z" style="fill:none;stroke:#fff;stroke-miterlimit:10;stroke-width:5.487654102927731px"/><path d="M540.8345,301.23c-16.1921-6.4015-30.8781,12.05-30.8781,12.05C531.0123,318.3972,540.8345,301.23,540.8345,301.23Z" style="fill:none;stroke:#fff;stroke-linecap:round;stroke-linejoin:round;stroke-width:4.1157405771957984px"/><path d="M540.8344,238.7208c-16.1919,6.4016-30.8782-12.05-30.8782-12.05C531.0121,221.554,540.8344,238.7208,540.8344,238.7208Z" style="fill:#413e34;stroke:#fff;stroke-miterlimit:10;stroke-width:5.487654102927731px"/><g style="clip-path:url(#clip-path-6)"><path d="M527.6473,227.7188c-3.7343-1.2614-7.6149.2429-8.6675,3.36s1.121,6.6659,4.8554,7.9273,7.6149-.2429,8.6675-3.36S531.3817,228.98,527.6473,227.7188Z" style="fill:#e4dd95;stroke:#fff;stroke-miterlimit:10;stroke-width:5.487654102927731px"/></g><path d="M540.8344,238.7208c-16.1919,6.4016-30.8782-12.05-30.8782-12.05C531.0121,221.554,540.8344,238.7208,540.8344,238.7208Z" style="fill:none;stroke:#fff;stroke-miterlimit:10;stroke-width:5.487654102927731px"/><path d="M540.8344,238.7208c-16.1919,6.4016-30.8782-12.05-30.8782-12.05C531.0121,221.554,540.8344,238.7208,540.8344,238.7208Z" style="fill:none;stroke:#fff;stroke-linecap:round;stroke-linejoin:round;stroke-width:4.1157405771957984px"/><line x1="487.3623" y1="251.1472" x2="515.1168" y2="231.8767" style="fill:none;stroke:#fff;stroke-linecap:round;stroke-linejoin:round;stroke-width:4.1157405771957984px"/><line x1="525.3954" y1="255.1014" x2="515.1168" y2="231.8767" style="fill:none;stroke:#fff;stroke-linecap:round;stroke-linejoin:round;stroke-width:4.1157405771957984px"/><line x1="466.275" y1="240.227" x2="453.5973" y2="222.7888" style="fill:none;stroke:#fff;stroke-linecap:round;stroke-linejoin:round;stroke-width:4.1157405771957984px"/><path d="M504.3078,269.9755l-16.9454,18.8284-21.0876,10.92s-37.6566-9.0376-37.6563-29.7488S466.275,240.227,466.275,240.227l21.0873,10.92Z" style="fill:none;stroke:#fff;stroke-linecap:round;stroke-linejoin:round;stroke-width:4.1157405771957984px"/><polygon points="554.767 269.976 548.366 282.402 525.395 284.85 504.308 269.976 525.395 255.101 548.366 257.549 554.767 269.976" style="fill:none;stroke:#fff;stroke-linecap:round;stroke-linejoin:round;stroke-width:4.1157405771957984px"/><line x1="487.3624" y1="288.8039" x2="515.1168" y2="308.0745" style="fill:none;stroke:#fff;stroke-linecap:round;stroke-linejoin:round;stroke-width:4.1157405771957984px"/><line x1="525.3954" y1="284.8501" x2="515.1168" y2="308.0745" style="fill:none;stroke:#fff;stroke-linecap:round;stroke-linejoin:round;stroke-width:4.1157405771957984px"/><line x1="466.2748" y1="299.7243" x2="453.5975" y2="317.1623" style="fill:none;stroke:#fff;stroke-linecap:round;stroke-linejoin:round;stroke-width:4.1157405771957984px"/><line x1="554.7674" y1="269.9756" x2="571.3362" y2="269.9757" style="fill:none;stroke:#fff;stroke-linecap:round;stroke-linejoin:round;stroke-width:4.1157405771957984px"/><path d="M644.1327,643.4234s-.7151,29.35,15.3424,38.62c18.1706,10.4908,51.3049-11.2823,51.3049-11.2823l5.9068-8.5266L705.3189,665.15s-21.7288,16.2932-37.8872,12.4536-16.7533-34.7552-16.7533-34.7552l-.1515-5.1162Z" style="fill:#fff"/><path d="M552.6121,302.5725s25.7751-14.0556,25.7751-32.5969c0-20.9817-35.4231-38.79-35.4231-38.79l-10.338-.852,8.2083,8.3874s24.9749,10.6709,29.7286,26.5847-21.7218,31.8861-21.7218,31.8861l-4.355,2.6892Z" style="fill:#fff"/><path d="M303.1868,552.2573s-25.06-15.294-41.1171-6.0233c-18.1708,10.491-15.8818,50.0725-15.8818,50.0725l4.4309,9.379,3.16-11.3025s-3.2459-26.9645,8.1584-39.038,38.4754,2.8687,38.4754,2.8687l4.5066,2.4267Z" style="fill:#fff"/></g><circle id="右-7" data-name="右" cx="499.9999" cy="500" r="490.0001" transform="translate(-207.1068 499.9999) rotate(-45)" style="fill:none;stroke:#fff;stroke-miterlimit:10;stroke-width:10.975308205855463px"/></g></svg>