<svg id="图层_1" data-name="图层 1" xmlns="http://www.w3.org/2000/svg" viewBox="0 0 209.6 239.82"><path d="M1322.84,539.84a20,20,0,0,1-2,9c-23.08,3.24-31.94,7.4-50.22,17.07-17.08,9-27.12,14.07-45.2,26.12,35.15,26.12,22.1,43.19,57.25,60.27,2.38-2.76,19.09-26.12,19.09-26.12s2.45,4.72,9,15.07c7,11.05,16.07,9,26.11,6a68.61,68.61,0,0,0,15.07-7,35.49,35.49,0,0,0,7,1c3,0,7-2,7-2s16.39,5.31,30.14,7c8,1,16.14.06,20.09-5,7-9-3.44-33.37-10-42.19-18.08-24.11-31.36-36.82-49.22-42.19,7-4,6-11,6-17.07s1-13.06-6-17.08c17.86-5.37,31.14-18.08,49.22-42.19,6.61-8.81,17.08-33.14,10-42.18-4-5.08-12.06-6-20.09-5-13.75,1.72-30.14,7-30.14,7s-4-2-7-2a35.82,35.82,0,0,0-7,1,68.82,68.82,0,0,0-15.07-7c-10-3-19.08-5-26.11,6-6.59,10.34-9,15.06-9,15.06s-16.71-23.36-19.09-26.11c-35.15,17.07-22.1,34.15-57.25,60.27,18.08,12.05,28.12,17.07,45.2,26.11,18.28,9.68,27.14,13.84,50.22,17.08A20,20,0,0,1,1322.84,539.84Z" transform="translate(-1214.99 -419.93)" style="fill:#fff;stroke:#000;stroke-miterlimit:10;stroke-width:12px"/><path d="M1322.84,539.84a20,20,0,0,1-2,9c-11,23.1-19.08,77.34-19.08,77.34s2.45,4.72,9,15.07c7,11.05,16.07,9,26.11,6a68.61,68.61,0,0,0,15.07-7,35.49,35.49,0,0,0,7,1c3,0,7-2,7-2s16.39,5.31,30.14,7c8,1,16.14.06,20.09-5,7-9-3.44-33.37-10-42.19-18.08-24.11-31.36-36.82-49.22-42.19,7-4,6-11,6-17.07s1-13.06-6-17.08c17.86-5.37,31.14-18.08,49.22-42.19,6.61-8.81,17.08-33.14,10-42.18-4-5.08-12.06-6-20.09-5-13.75,1.72-30.14,7-30.14,7s-4-2-7-2a35.82,35.82,0,0,0-7,1,68.82,68.82,0,0,0-15.07-7c-10-3-19.08-5-26.11,6-6.59,10.34-9,15.06-9,15.06s8,54.24,19.08,77.35A20,20,0,0,1,1322.84,539.84Z" transform="translate(-1214.99 -419.93)" style="fill:#999;stroke:#000;stroke-miterlimit:10;stroke-width:12px"/><path d="M1322.84,539.84a20,20,0,0,1-2,9c17.58,17.58,15.57,53.74,15.57,53.74s-2.92,30.2-10,40.17a12.05,12.05,0,0,1-9,5s5,5,19.58-.5a133.66,133.66,0,0,0,15.07-7,35.49,35.49,0,0,0,7,1c3,0,7-2,7-2s16.39,5.31,30.14,7c8,1,16.14.06,20.09-5,7-9-3.44-33.37-10-42.19-18.08-24.11-31.36-36.82-49.22-42.19,7-4,6-11,6-17.07s1-13.06-6-17.08c17.86-5.37,31.14-18.08,49.22-42.19,6.61-8.81,17.08-33.14,10-42.18-4-5.08-12.06-6-20.09-5-13.75,1.72-30.14,7-30.14,7s-4-2-7-2a35.82,35.82,0,0,0-7,1,132.57,132.57,0,0,0-15.07-7c-14.56-5.52-19.58-.5-19.58-.5a12,12,0,0,1,9,5c7.12,10,10,40.18,10,40.18s2,36.16-15.57,53.74A20,20,0,0,1,1322.84,539.84Z" transform="translate(-1214.99 -419.93)" style="fill:#fff;stroke:#000;stroke-miterlimit:10;stroke-width:12px"/></svg>