<svg id="图层_1" data-name="图层 1" xmlns="http://www.w3.org/2000/svg" viewBox="0 0 1020 239.82"><defs><style>.cls-1{fill:#fff;}.cls-1,.cls-2{stroke:#000;stroke-miterlimit:10;stroke-width:12px;}.cls-2{fill:#999;}</style></defs><g id="闭眼"><path d="M960,566c-51.5,0-86.3-2.92-130.37-6.62C758.54,553.42,670.06,546,460,546h-5V534h5c210.06,0,298.54-7.42,369.63-13.38C873.7,516.92,908.5,514,960,514s86.3,2.92,130.37,6.62c71.09,6,159.57,13.38,369.63,13.38h5v12h-5c-210.06,0-298.54,7.42-369.63,13.38C1046.3,563.08,1011.5,566,960,566Z" transform="translate(-450 -419.93)"/><path d="M960,519c133.38,0,158.35,20,500,20v2c-341.65,0-366.62,20-500,20s-158.35-20-500-20v-2c341.65,0,366.62-20,500-20m0-10c-51.71,0-86.61,2.93-130.79,6.63-71,6-159.36,13.37-369.21,13.37H450v22h10c209.85,0,298.21,7.41,369.21,13.37C873.39,568.07,908.29,571,960,571s86.61-2.93,130.79-6.63c71-6,159.36-13.37,369.21-13.37h10V529h-10c-209.85,0-298.21-7.41-369.21-13.37-44.18-3.7-79.08-6.63-130.79-6.63Z" transform="translate(-450 -419.93)"/></g><path class="cls-1" d="M597.16,539.84a20,20,0,0,0,2,9c23.08,3.24,31.94,7.4,50.22,17.07,17.08,9,27.12,14.07,45.2,26.12-35.15,26.12-22.1,43.19-57.25,60.27-2.38-2.76-19.09-26.12-19.09-26.12s-2.45,4.72-9,15.07c-7,11.05-16.07,9-26.11,6a68.61,68.61,0,0,1-15.07-7,35.49,35.49,0,0,1-7,1c-3,0-7-2-7-2s-16.39,5.31-30.14,7c-8,1-16.14.06-20.09-5-7-9,3.44-33.37,10-42.19C531.87,575,545.15,562.28,563,556.91c-7-4-6-11-6-17.07s-1-13.06,6-17.08c-17.86-5.37-31.14-18.08-49.22-42.19-6.61-8.81-17.08-33.14-10-42.18,3.95-5.08,12.06-6,20.09-5,13.75,1.72,30.14,7,30.14,7s4-2,7-2a35.82,35.82,0,0,1,7,1,68.82,68.82,0,0,1,15.07-7c10-3,19.08-5,26.11,6,6.59,10.34,9,15.06,9,15.06s16.71-23.36,19.09-26.11c35.15,17.07,22.1,34.15,57.25,60.27-18.08,12.05-28.12,17.07-45.2,26.11-18.28,9.68-27.14,13.84-50.22,17.08A20,20,0,0,0,597.16,539.84Z" transform="translate(-450 -419.93)"/><path class="cls-2" d="M597.16,539.84a20,20,0,0,0,2,9c11.05,23.1,19.08,77.34,19.08,77.34s-2.45,4.72-9,15.07c-7,11.05-16.07,9-26.11,6a68.61,68.61,0,0,1-15.07-7,35.49,35.49,0,0,1-7,1c-3,0-7-2-7-2s-16.39,5.31-30.14,7c-8,1-16.14.06-20.09-5-7-9,3.44-33.37,10-42.19C531.87,575,545.15,562.28,563,556.91c-7-4-6-11-6-17.07s-1-13.06,6-17.08c-17.86-5.37-31.14-18.08-49.22-42.19-6.61-8.81-17.08-33.14-10-42.18,3.95-5.08,12.06-6,20.09-5,13.75,1.72,30.14,7,30.14,7s4-2,7-2a35.82,35.82,0,0,1,7,1,68.82,68.82,0,0,1,15.07-7c10-3,19.08-5,26.11,6,6.59,10.34,9,15.06,9,15.06s-8,54.24-19.08,77.35A20,20,0,0,0,597.16,539.84Z" transform="translate(-450 -419.93)"/><path class="cls-1" d="M597.16,539.84a20,20,0,0,0,2,9c-17.58,17.58-15.57,53.74-15.57,53.74s2.92,30.2,10,40.17a12.05,12.05,0,0,0,9,5s-5,5-19.58-.5a133.66,133.66,0,0,1-15.07-7,35.49,35.49,0,0,1-7,1c-3,0-7-2-7-2s-16.39,5.31-30.14,7c-8,1-16.14.06-20.09-5-7-9,3.44-33.37,10-42.19C531.87,575,545.15,562.28,563,556.91c-7-4-6-11-6-17.07s-1-13.06,6-17.08c-17.86-5.37-31.14-18.08-49.22-42.19-6.61-8.81-17.08-33.14-10-42.18,3.95-5.08,12.06-6,20.09-5,13.75,1.72,30.14,7,30.14,7s4-2,7-2a35.82,35.82,0,0,1,7,1,132.57,132.57,0,0,1,15.07-7c14.56-5.52,19.58-.5,19.58-.5a12,12,0,0,0-9,5c-7.12,10-10,40.18-10,40.18s-2,36.16,15.57,53.74A20,20,0,0,0,597.16,539.84Z" transform="translate(-450 -419.93)"/><path class="cls-1" d="M1322.84,539.84a20,20,0,0,1-2,9c-23.08,3.24-31.94,7.4-50.22,17.07-17.08,9-27.12,14.07-45.2,26.12,35.15,26.12,22.1,43.19,57.25,60.27,2.38-2.76,19.09-26.12,19.09-26.12s2.45,4.72,9,15.07c7,11.05,16.07,9,26.11,6a68.61,68.61,0,0,0,15.07-7,35.49,35.49,0,0,0,7,1c3,0,7-2,7-2s16.39,5.31,30.14,7c8,1,16.14.06,20.09-5,7-9-3.44-33.37-10-42.19-18.08-24.11-31.36-36.82-49.22-42.19,7-4,6-11,6-17.07s1-13.06-6-17.08c17.86-5.37,31.14-18.08,49.22-42.19,6.61-8.81,17.08-33.14,10-42.18-4-5.08-12.06-6-20.09-5-13.75,1.72-30.14,7-30.14,7s-4-2-7-2a35.82,35.82,0,0,0-7,1,68.82,68.82,0,0,0-15.07-7c-10-3-19.08-5-26.11,6-6.59,10.34-9,15.06-9,15.06s-16.71-23.36-19.09-26.11c-35.15,17.07-22.1,34.15-57.25,60.27,18.08,12.05,28.12,17.07,45.2,26.11,18.28,9.68,27.14,13.84,50.22,17.08A20,20,0,0,1,1322.84,539.84Z" transform="translate(-450 -419.93)"/><path class="cls-2" d="M1322.84,539.84a20,20,0,0,1-2,9c-11,23.1-19.08,77.34-19.08,77.34s2.45,4.72,9,15.07c7,11.05,16.07,9,26.11,6a68.61,68.61,0,0,0,15.07-7,35.49,35.49,0,0,0,7,1c3,0,7-2,7-2s16.39,5.31,30.14,7c8,1,16.14.06,20.09-5,7-9-3.44-33.37-10-42.19-18.08-24.11-31.36-36.82-49.22-42.19,7-4,6-11,6-17.07s1-13.06-6-17.08c17.86-5.37,31.14-18.08,49.22-42.19,6.61-8.81,17.08-33.14,10-42.18-4-5.08-12.06-6-20.09-5-13.75,1.72-30.14,7-30.14,7s-4-2-7-2a35.82,35.82,0,0,0-7,1,68.82,68.82,0,0,0-15.07-7c-10-3-19.08-5-26.11,6-6.59,10.34-9,15.06-9,15.06s8,54.24,19.08,77.35A20,20,0,0,1,1322.84,539.84Z" transform="translate(-450 -419.93)"/><path class="cls-1" d="M1322.84,539.84a20,20,0,0,1-2,9c17.58,17.58,15.57,53.74,15.57,53.74s-2.92,30.2-10,40.17a12.05,12.05,0,0,1-9,5s5,5,19.58-.5a133.66,133.66,0,0,0,15.07-7,35.49,35.49,0,0,0,7,1c3,0,7-2,7-2s16.39,5.31,30.14,7c8,1,16.14.06,20.09-5,7-9-3.44-33.37-10-42.19-18.08-24.11-31.36-36.82-49.22-42.19,7-4,6-11,6-17.07s1-13.06-6-17.08c17.86-5.37,31.14-18.08,49.22-42.19,6.61-8.81,17.08-33.14,10-42.18-4-5.08-12.06-6-20.09-5-13.75,1.72-30.14,7-30.14,7s-4-2-7-2a35.82,35.82,0,0,0-7,1,132.57,132.57,0,0,0-15.07-7c-14.56-5.52-19.58-.5-19.58-.5a12,12,0,0,1,9,5c7.12,10,10,40.18,10,40.18s2,36.16-15.57,53.74A20,20,0,0,1,1322.84,539.84Z" transform="translate(-450 -419.93)"/></svg>