<svg id="图层_1" data-name="图层 1" xmlns="http://www.w3.org/2000/svg" viewBox="0 0 424.66 244.66"><defs><style>.cls-1{fill:#fff;}.cls-2{fill:none;stroke:#000;stroke-miterlimit:10;stroke-width:2px;}</style></defs><polygon class="cls-1" points="424.66 115.97 308.69 0 302.33 6.36 295.97 0 212.33 83.64 128.69 0 122.33 6.36 115.97 0 0 115.97 6.36 122.33 0 128.69 115.97 244.66 122.33 238.29 128.69 244.66 212.33 161.02 295.97 244.66 302.33 238.29 308.69 244.66 424.66 128.69 418.3 122.33 424.66 115.97"/><g id="图片2"><path d="M606.36,489,711,593.64l-.71.7L704.65,600l5.66,5.66.71.7L606.36,711l-.7-.71L600,704.65l-5.66,5.66-.7.71L489,606.36l.71-.7,5.66-5.66-5.66-5.66-.71-.7L593.64,489l.7.71,5.66,5.66,5.66-5.66.7-.71m0-11.31L600,484l-6.36-6.36-116,116L484,600l-6.36,6.36,116,116L600,716l6.36,6.36,116-116L716,600l6.36-6.36-116-116Z" transform="translate(-297.67 -477.67)"/><path d="M594.39,495.62l3.84,3.85,1.77,1.77,1.77-1.77,3.84-3.85,98.77,98.77-3.85,3.84L698.76,600l1.77,1.77,3.85,3.84-98.77,98.77-3.84-3.85L600,698.76l-1.77,1.77-3.84,3.85-98.77-98.77,3.85-3.84,1.77-1.77-1.77-1.77-3.85-3.84,98.77-98.77m11.22-3.53L600,497.7l-5.61-5.61-102.3,102.3L497.7,600l-5.61,5.61,102.3,102.3L600,702.3l5.61,5.61,102.3-102.3L702.3,600l5.61-5.61-102.3-102.3Z" transform="translate(-297.67 -477.67)"/><path d="M610.73,555H649.5l5.24-5,6.68,10.87H592.78v15.2c0,2.49-.13,4.85-.26,7.07H625l4.71-6.42,19.91,7.73-5.37,7.6v13.49c0,26.46-8.25,39.43-19,45.33-4.46,2.49-7.86,1.7-10.35-1.31l-12.45-14.15c16.51.66,22.93-6,22.93-30V589H592c-3.66,30.13-19.91,52.53-47.29,63,19.39-18.74,29.35-44.67,29.35-79.52V560.85H551.91l-3-5.89h53.57c-2.48-8-7.46-15.85-12.05-19.65,23.84.65,38.25,6.55,25.68,15.72Z" transform="translate(-297.67 -477.67)"/><g id="圆_左上" data-name="圆 左上"><circle class="cls-2" cx="212.33" cy="122.33" r="5.2"/><circle cx="212.33" cy="122.33" r="2.6"/></g><g id="圆_右上" data-name="圆 右上"><circle class="cls-2" cx="302.33" cy="32.33" r="5.2"/><circle cx="302.33" cy="32.33" r="2.6"/></g><g id="圆_左下" data-name="圆 左下"><circle class="cls-2" cx="302.33" cy="212.33" r="5.2"/><circle cx="302.33" cy="212.33" r="2.6"/></g><g id="圆_右下" data-name="圆 右下"><circle class="cls-2" cx="392.33" cy="122.33" r="5.2"/><circle cx="392.33" cy="122.33" r="2.6"/></g></g><g id="图片1"><path d="M426.36,489,531,593.64l-.71.7L524.65,600l5.66,5.66.71.7L426.36,711l-.7-.71L420,704.65l-5.66,5.66-.7.71L309,606.36l.71-.7,5.66-5.66-5.66-5.66-.71-.7L413.64,489l.7.71,5.66,5.66,5.66-5.66.7-.71m0-11.31L420,484l-6.36-6.36-116,116L304,600l-6.36,6.36,116,116L420,716l6.36,6.36,116-116L536,600l6.36-6.36-116-116Z" transform="translate(-297.67 -477.67)"/><path d="M414.39,495.62l3.84,3.85,1.77,1.77,1.77-1.77,3.84-3.85,98.77,98.77-3.85,3.84L518.76,600l1.77,1.77,3.85,3.84-98.77,98.77-3.84-3.85L420,698.76l-1.77,1.77-3.84,3.85-98.77-98.77,3.85-3.84,1.77-1.77-1.77-1.77-3.85-3.84,98.77-98.77m11.22-3.53L420,497.7l-5.61-5.61-102.3,102.3L317.7,600l-5.61,5.61,102.3,102.3L420,702.3l5.61,5.61,102.3-102.3L522.3,600l5.61-5.61-102.3-102.3Z" transform="translate(-297.67 -477.67)"/><path d="M411.42,624.63c-12.5,12.5-30.19,21.28-49.74,25.27,16-10,31.79-24.47,39.9-41.1h-6.12v5.32H376.31V560.53l24.34,2.79-5.19,4.52v.93h16v-11.3H367.27l-3.06-6h47.21v-16l24.34,2.8-5.19,4.52v8.64h35l5.45-4.92,6.65,10.91H430.57v11.3h14.37l4.52-6.38,19.81,7.05-4,6.11v38.57H446.13V608.8H433.5c11.3,11.71,25.4,19,45.62,20.75l-10,13.3c-2.26,3.06-4.25,4.66-9.57,2.66-12.24-4.65-21.82-14.76-29-31.39v40.3H411.42Zm-16-38.83h16v-11h-16Zm0,17h16v-11h-16Zm35.11-28.06v11h15.56v-11Zm15.56,28.06v-11H430.57v11Z" transform="translate(-297.67 -477.67)"/><g id="圆_左上-2" data-name="圆 左上"><circle class="cls-2" cx="32.33" cy="122.33" r="5.2"/><circle cx="32.33" cy="122.33" r="2.6"/></g><g id="圆_右上-2" data-name="圆 右上"><circle class="cls-2" cx="122.33" cy="32.33" r="5.2"/><circle cx="122.33" cy="32.33" r="2.6"/></g><g id="圆_左下-2" data-name="圆 左下"><circle class="cls-2" cx="122.33" cy="212.33" r="5.2"/><circle cx="122.33" cy="212.33" r="2.6"/></g><g id="圆_右下-2" data-name="圆 右下"><circle class="cls-2" cx="212.33" cy="122.33" r="5.2"/><circle cx="212.33" cy="122.33" r="2.6"/></g></g></svg>