<svg id="图层_1" data-name="图层 1" xmlns="http://www.w3.org/2000/svg" viewBox="0 0 337.82 337.82"><defs><style>.cls-1,.cls-7,.cls-9{fill:#fff;}.cls-1,.cls-11,.cls-12,.cls-13,.cls-14,.cls-2,.cls-3,.cls-4,.cls-5,.cls-6,.cls-8,.cls-9{stroke:#231815;}.cls-1,.cls-11,.cls-12,.cls-14,.cls-2,.cls-3,.cls-4,.cls-5,.cls-6,.cls-8,.cls-9{stroke-miterlimit:10;}.cls-14,.cls-2,.cls-3,.cls-4,.cls-5,.cls-6,.cls-8{fill:none;}.cls-11,.cls-2{stroke-width:3px;}.cls-3,.cls-4,.cls-5{stroke-linecap:round;}.cls-3{stroke-width:1.5px;}.cls-5,.cls-6{stroke-width:0.5px;}.cls-8,.cls-9{stroke-width:2px;}.cls-10,.cls-11,.cls-12,.cls-13{fill:#231815;}.cls-12,.cls-13{stroke-width:0.2px;}</style></defs><circle class="cls-1" cx="168.95" cy="168.91" r="153.43"/><circle class="cls-2" cx="168.91" cy="168.91" r="149.3"/><line class="cls-3" x1="45.87" y1="239.95" x2="40.96" y2="242.78"/><line class="cls-3" x1="77.58" y1="277.75" x2="73.94" y2="282.09"/><line class="cls-3" x1="120.32" y1="302.42" x2="118.38" y2="307.74"/><line class="cls-3" x1="168.91" y1="310.99" x2="168.91" y2="316.65"/><line class="cls-3" x1="217.5" y1="302.42" x2="219.44" y2="307.74"/><line class="cls-3" x1="260.23" y1="277.75" x2="263.88" y2="282.09"/><line class="cls-3" x1="291.95" y1="239.95" x2="296.86" y2="242.78"/><line class="cls-3" x1="308.83" y1="193.58" x2="314.41" y2="194.56"/><line class="cls-3" x1="308.83" y1="144.24" x2="314.41" y2="143.25"/><line class="cls-3" x1="291.95" y1="97.87" x2="296.86" y2="95.04"/><line class="cls-3" x1="260.23" y1="60.07" x2="263.88" y2="55.73"/><line class="cls-3" x1="217.5" y1="35.4" x2="219.44" y2="30.07"/><line class="cls-3" x1="168.91" y1="26.83" x2="168.91" y2="21.16"/><line class="cls-3" x1="120.32" y1="35.4" x2="118.38" y2="30.07"/><line class="cls-3" x1="77.58" y1="60.07" x2="73.94" y2="55.73"/><line class="cls-3" x1="45.87" y1="97.87" x2="40.96" y2="95.04"/><line class="cls-3" x1="28.99" y1="144.24" x2="23.41" y2="143.25"/><line class="cls-3" x1="28.99" y1="193.58" x2="23.41" y2="194.56"/><line class="cls-4" x1="59.67" y1="260.57" x2="55.33" y2="264.21"/><line class="cls-4" x1="97.61" y1="292.4" x2="94.77" y2="297.31"/><line class="cls-4" x1="144.15" y1="309.34" x2="143.16" y2="314.92"/><line class="cls-4" x1="193.67" y1="309.34" x2="194.66" y2="314.92"/><line class="cls-4" x1="240.21" y1="292.4" x2="243.04" y2="297.31"/><line class="cls-4" x1="278.15" y1="260.57" x2="282.49" y2="264.21"/><line class="cls-4" x1="302.91" y1="217.68" x2="308.24" y2="219.62"/><line class="cls-4" x1="311.51" y1="168.91" x2="317.18" y2="168.91"/><line class="cls-4" x1="302.91" y1="120.14" x2="308.24" y2="118.2"/><line class="cls-4" x1="278.15" y1="77.25" x2="282.49" y2="73.6"/><line class="cls-4" x1="240.21" y1="45.41" x2="243.04" y2="40.5"/><line class="cls-4" x1="193.67" y1="28.48" x2="194.66" y2="22.89"/><line class="cls-4" x1="144.15" y1="28.48" x2="143.16" y2="22.89"/><line class="cls-4" x1="97.61" y1="45.41" x2="94.77" y2="40.5"/><line class="cls-4" x1="59.67" y1="77.25" x2="55.33" y2="73.6"/><line class="cls-4" x1="34.91" y1="120.14" x2="29.58" y2="118.2"/><line class="cls-4" x1="26.31" y1="168.91" x2="20.64" y2="168.91"/><line class="cls-4" x1="34.91" y1="217.68" x2="29.58" y2="219.62"/><line class="cls-5" x1="39.61" y1="243.56" x2="42.96" y2="241.63"/><line class="cls-5" x1="40.94" y1="245.8" x2="44.25" y2="243.81"/><line class="cls-5" x1="42.3" y1="248.02" x2="45.57" y2="245.98"/><line class="cls-5" x1="43.7" y1="250.22" x2="46.94" y2="248.12"/><line class="cls-5" x1="45.14" y1="252.39" x2="48.34" y2="250.23"/><line class="cls-5" x1="46.61" y1="254.54" x2="49.78" y2="252.33"/><line class="cls-5" x1="48.12" y1="256.66" x2="51.25" y2="254.39"/><line class="cls-5" x1="49.67" y1="258.76" x2="52.76" y2="256.43"/><line class="cls-5" x1="51.26" y1="260.83" x2="54.31" y2="258.45"/><line class="cls-5" x1="52.88" y1="262.86" x2="55.89" y2="260.43"/><line class="cls-5" x1="54.54" y1="264.88" x2="57.5" y2="262.39"/><line class="cls-5" x1="56.23" y1="266.86" x2="59.15" y2="264.32"/><line class="cls-5" x1="57.96" y1="268.81" x2="60.83" y2="266.22"/><line class="cls-5" x1="59.72" y1="270.73" x2="62.55" y2="268.09"/><line class="cls-5" x1="61.51" y1="272.62" x2="64.29" y2="269.94"/><line class="cls-5" x1="63.34" y1="274.48" x2="66.07" y2="271.75"/><line class="cls-5" x1="65.2" y1="276.3" x2="67.88" y2="273.52"/><line class="cls-5" x1="67.09" y1="278.1" x2="69.72" y2="275.27"/><line class="cls-5" x1="69.01" y1="279.86" x2="71.59" y2="276.99"/><line class="cls-5" x1="70.96" y1="281.58" x2="73.5" y2="278.67"/><line class="cls-5" x1="72.94" y1="283.28" x2="75.43" y2="280.32"/><line class="cls-5" x1="74.95" y1="284.93" x2="77.38" y2="281.93"/><line class="cls-5" x1="76.99" y1="286.56" x2="79.37" y2="283.51"/><line class="cls-5" x1="79.06" y1="288.14" x2="81.38" y2="285.06"/><line class="cls-5" x1="81.15" y1="289.69" x2="83.42" y2="286.57"/><line class="cls-5" x1="83.28" y1="291.21" x2="85.49" y2="288.04"/><line class="cls-5" x1="85.42" y1="292.68" x2="87.58" y2="289.48"/><line class="cls-5" x1="87.6" y1="294.12" x2="89.7" y2="290.88"/><line class="cls-5" x1="89.79" y1="295.52" x2="91.84" y2="292.24"/><line class="cls-5" x1="92.01" y1="296.88" x2="94" y2="293.57"/><line class="cls-5" x1="94.26" y1="298.2" x2="96.19" y2="294.86"/><line class="cls-5" x1="96.53" y1="299.49" x2="98.4" y2="296.11"/><line class="cls-5" x1="98.82" y1="300.73" x2="100.63" y2="297.32"/><line class="cls-5" x1="101.13" y1="301.93" x2="102.88" y2="298.49"/><line class="cls-5" x1="103.46" y1="303.1" x2="105.15" y2="299.62"/><line class="cls-5" x1="105.81" y1="304.22" x2="107.45" y2="300.72"/><line class="cls-5" x1="108.18" y1="305.3" x2="109.76" y2="301.77"/><line class="cls-5" x1="110.57" y1="306.34" x2="112.08" y2="302.78"/><line class="cls-5" x1="112.98" y1="307.33" x2="114.43" y2="303.75"/><line class="cls-5" x1="115.41" y1="308.29" x2="116.79" y2="304.68"/><line class="cls-5" x1="117.85" y1="309.2" x2="119.17" y2="305.57"/><line class="cls-5" x1="120.3" y1="310.07" x2="121.56" y2="306.42"/><line class="cls-5" x1="122.77" y1="310.9" x2="123.97" y2="307.22"/><line class="cls-5" x1="125.26" y1="311.68" x2="126.39" y2="307.99"/><line class="cls-5" x1="127.76" y1="312.42" x2="128.82" y2="308.71"/><line class="cls-5" x1="130.27" y1="313.12" x2="131.27" y2="309.39"/><line class="cls-5" x1="132.79" y1="313.77" x2="133.73" y2="310.02"/><line class="cls-5" x1="135.32" y1="314.38" x2="136.19" y2="310.61"/><line class="cls-5" x1="137.87" y1="314.94" x2="138.67" y2="311.16"/><line class="cls-5" x1="140.42" y1="315.46" x2="141.16" y2="311.67"/><line class="cls-5" x1="142.98" y1="315.94" x2="143.65" y2="312.13"/><line class="cls-5" x1="145.55" y1="316.37" x2="146.16" y2="312.55"/><line class="cls-5" x1="148.13" y1="316.75" x2="148.67" y2="312.93"/><line class="cls-5" x1="150.71" y1="317.09" x2="151.18" y2="313.26"/><line class="cls-5" x1="153.3" y1="317.39" x2="153.71" y2="313.55"/><line class="cls-5" x1="155.9" y1="317.64" x2="156.23" y2="313.79"/><line class="cls-5" x1="158.49" y1="317.84" x2="158.76" y2="313.99"/><line class="cls-5" x1="161.09" y1="318" x2="161.3" y2="314.14"/><line class="cls-5" x1="163.7" y1="318.12" x2="163.83" y2="314.25"/><line class="cls-5" x1="166.3" y1="318.18" x2="166.37" y2="314.32"/><line class="cls-5" x1="168.91" y1="318.21" x2="168.91" y2="314.34"/><line class="cls-5" x1="171.51" y1="318.18" x2="171.45" y2="314.32"/><line class="cls-5" x1="174.12" y1="318.12" x2="173.98" y2="314.25"/><line class="cls-5" x1="176.72" y1="318" x2="176.52" y2="314.14"/><line class="cls-5" x1="179.32" y1="317.84" x2="179.05" y2="313.99"/><line class="cls-5" x1="181.92" y1="317.64" x2="181.58" y2="313.79"/><line class="cls-5" x1="184.51" y1="317.39" x2="184.11" y2="313.55"/><line class="cls-5" x1="187.1" y1="317.09" x2="186.63" y2="313.26"/><line class="cls-5" x1="189.69" y1="316.75" x2="189.15" y2="312.93"/><line class="cls-5" x1="192.26" y1="316.37" x2="191.66" y2="312.55"/><line class="cls-5" x1="194.83" y1="315.94" x2="194.16" y2="312.13"/><line class="cls-5" x1="197.4" y1="315.46" x2="196.66" y2="311.67"/><line class="cls-5" x1="199.95" y1="314.94" x2="199.15" y2="311.16"/><line class="cls-5" x1="202.49" y1="314.38" x2="201.62" y2="310.61"/><line class="cls-5" x1="205.03" y1="313.77" x2="204.09" y2="310.02"/><line class="cls-5" x1="207.55" y1="313.12" x2="206.55" y2="309.39"/><line class="cls-5" x1="210.06" y1="312.42" x2="209" y2="308.71"/><line class="cls-5" x1="212.56" y1="311.68" x2="211.43" y2="307.99"/><line class="cls-5" x1="215.04" y1="310.9" x2="213.85" y2="307.22"/><line class="cls-5" x1="217.52" y1="310.07" x2="216.26" y2="306.42"/><line class="cls-5" x1="219.97" y1="309.2" x2="218.65" y2="305.57"/><line class="cls-5" x1="222.41" y1="308.29" x2="221.03" y2="304.68"/><line class="cls-5" x1="224.84" y1="307.33" x2="223.39" y2="303.75"/><line class="cls-5" x1="227.24" y1="306.34" x2="225.73" y2="302.78"/><line class="cls-5" x1="229.63" y1="305.3" x2="228.06" y2="301.77"/><line class="cls-5" x1="232" y1="304.22" x2="230.37" y2="300.72"/><line class="cls-5" x1="234.36" y1="303.1" x2="232.66" y2="299.62"/><line class="cls-5" x1="236.69" y1="301.93" x2="234.93" y2="298.49"/><line class="cls-5" x1="239" y1="300.73" x2="237.19" y2="297.32"/><line class="cls-5" x1="241.29" y1="299.49" x2="239.42" y2="296.11"/><line class="cls-5" x1="243.56" y1="298.2" x2="241.63" y2="294.86"/><line class="cls-5" x1="245.8" y1="296.88" x2="243.81" y2="293.57"/><line class="cls-5" x1="248.02" y1="295.52" x2="245.98" y2="292.24"/><line class="cls-5" x1="250.22" y1="294.12" x2="248.12" y2="290.88"/><line class="cls-5" x1="252.39" y1="292.68" x2="250.23" y2="289.48"/><line class="cls-5" x1="254.54" y1="291.21" x2="252.33" y2="288.04"/><line class="cls-5" x1="256.66" y1="289.69" x2="254.39" y2="286.57"/><line class="cls-5" x1="258.76" y1="288.14" x2="256.43" y2="285.06"/><line class="cls-5" x1="260.83" y1="286.56" x2="258.45" y2="283.51"/><line class="cls-5" x1="262.86" y1="284.93" x2="260.43" y2="281.93"/><line class="cls-5" x1="264.88" y1="283.28" x2="262.39" y2="280.32"/><line class="cls-5" x1="266.86" y1="281.58" x2="264.32" y2="278.67"/><line class="cls-5" x1="268.81" y1="279.86" x2="266.22" y2="276.99"/><line class="cls-5" x1="270.73" y1="278.1" x2="268.09" y2="275.27"/><line class="cls-5" x1="272.62" y1="276.3" x2="269.94" y2="273.52"/><line class="cls-5" x1="274.48" y1="274.48" x2="271.75" y2="271.75"/><line class="cls-5" x1="276.3" y1="272.62" x2="273.52" y2="269.94"/><line class="cls-5" x1="278.1" y1="270.73" x2="275.27" y2="268.09"/><line class="cls-5" x1="279.86" y1="268.81" x2="276.99" y2="266.22"/><line class="cls-5" x1="281.58" y1="266.86" x2="278.67" y2="264.32"/><line class="cls-5" x1="283.28" y1="264.88" x2="280.32" y2="262.39"/><line class="cls-5" x1="284.93" y1="262.86" x2="281.93" y2="260.43"/><line class="cls-5" x1="286.56" y1="260.83" x2="283.51" y2="258.45"/><line class="cls-5" x1="288.14" y1="258.76" x2="285.06" y2="256.43"/><line class="cls-5" x1="289.69" y1="256.66" x2="286.57" y2="254.39"/><line class="cls-5" x1="291.21" y1="254.54" x2="288.04" y2="252.33"/><line class="cls-5" x1="292.68" y1="252.39" x2="289.48" y2="250.23"/><line class="cls-5" x1="294.12" y1="250.22" x2="290.88" y2="248.12"/><line class="cls-5" x1="295.52" y1="248.02" x2="292.24" y2="245.98"/><line class="cls-5" x1="296.88" y1="245.8" x2="293.57" y2="243.81"/><line class="cls-5" x1="298.2" y1="243.56" x2="294.86" y2="241.63"/><line class="cls-5" x1="299.49" y1="241.29" x2="296.11" y2="239.42"/><line class="cls-5" x1="300.73" y1="239" x2="297.32" y2="237.19"/><line class="cls-5" x1="301.93" y1="236.69" x2="298.49" y2="234.93"/><line class="cls-5" x1="303.1" y1="234.36" x2="299.62" y2="232.66"/><line class="cls-5" x1="304.22" y1="232" x2="300.72" y2="230.37"/><line class="cls-5" x1="305.3" y1="229.63" x2="301.77" y2="228.06"/><line class="cls-5" x1="306.34" y1="227.24" x2="302.78" y2="225.73"/><line class="cls-5" x1="307.33" y1="224.84" x2="303.75" y2="223.39"/><line class="cls-5" x1="308.29" y1="222.41" x2="304.68" y2="221.03"/><line class="cls-5" x1="309.2" y1="219.97" x2="305.57" y2="218.65"/><line class="cls-5" x1="310.07" y1="217.52" x2="306.42" y2="216.26"/><line class="cls-5" x1="310.9" y1="215.04" x2="307.22" y2="213.85"/><line class="cls-5" x1="311.68" y1="212.56" x2="307.99" y2="211.43"/><line class="cls-5" x1="312.42" y1="210.06" x2="308.71" y2="209"/><line class="cls-5" x1="313.12" y1="207.55" x2="309.39" y2="206.55"/><line class="cls-5" x1="313.77" y1="205.03" x2="310.02" y2="204.09"/><line class="cls-5" x1="314.38" y1="202.49" x2="310.61" y2="201.62"/><line class="cls-5" x1="314.94" y1="199.95" x2="311.16" y2="199.15"/><line class="cls-5" x1="315.46" y1="197.4" x2="311.67" y2="196.66"/><line class="cls-5" x1="315.94" y1="194.83" x2="312.13" y2="194.16"/><line class="cls-5" x1="316.37" y1="192.26" x2="312.55" y2="191.66"/><line class="cls-5" x1="316.75" y1="189.69" x2="312.93" y2="189.15"/><line class="cls-5" x1="317.09" y1="187.1" x2="313.26" y2="186.63"/><line class="cls-5" x1="317.39" y1="184.51" x2="313.55" y2="184.11"/><line class="cls-5" x1="317.64" y1="181.92" x2="313.79" y2="181.58"/><line class="cls-5" x1="317.84" y1="179.32" x2="313.99" y2="179.05"/><line class="cls-5" x1="318" y1="176.72" x2="314.14" y2="176.52"/><line class="cls-5" x1="318.12" y1="174.12" x2="314.25" y2="173.98"/><line class="cls-5" x1="318.18" y1="171.51" x2="314.32" y2="171.45"/><line class="cls-5" x1="318.21" y1="168.91" x2="314.34" y2="168.91"/><line class="cls-5" x1="318.18" y1="166.3" x2="314.32" y2="166.37"/><line class="cls-5" x1="318.12" y1="163.7" x2="314.25" y2="163.83"/><line class="cls-5" x1="318" y1="161.1" x2="314.14" y2="161.3"/><line class="cls-5" x1="317.84" y1="158.49" x2="313.99" y2="158.76"/><line class="cls-5" x1="317.64" y1="155.9" x2="313.79" y2="156.23"/><line class="cls-5" x1="317.39" y1="153.3" x2="313.55" y2="153.71"/><line class="cls-5" x1="317.09" y1="150.71" x2="313.26" y2="151.18"/><line class="cls-5" x1="316.75" y1="148.13" x2="312.93" y2="148.67"/><line class="cls-5" x1="316.37" y1="145.55" x2="312.55" y2="146.16"/><line class="cls-5" x1="315.94" y1="142.98" x2="312.13" y2="143.65"/><line class="cls-5" x1="315.46" y1="140.42" x2="311.67" y2="141.16"/><line class="cls-5" x1="314.94" y1="137.87" x2="311.16" y2="138.67"/><line class="cls-5" x1="314.38" y1="135.32" x2="310.61" y2="136.19"/><line class="cls-5" x1="313.77" y1="132.79" x2="310.02" y2="133.72"/><line class="cls-5" x1="313.12" y1="130.27" x2="309.39" y2="131.27"/><line class="cls-5" x1="312.42" y1="127.76" x2="308.71" y2="128.82"/><line class="cls-5" x1="311.68" y1="125.26" x2="307.99" y2="126.39"/><line class="cls-5" x1="310.9" y1="122.77" x2="307.22" y2="123.97"/><line class="cls-5" x1="310.07" y1="120.3" x2="306.42" y2="121.56"/><line class="cls-5" x1="309.2" y1="117.85" x2="305.57" y2="119.17"/><line class="cls-5" x1="308.29" y1="115.41" x2="304.68" y2="116.79"/><line class="cls-5" x1="307.33" y1="112.98" x2="303.75" y2="114.43"/><line class="cls-5" x1="306.34" y1="110.57" x2="302.78" y2="112.08"/><line class="cls-5" x1="305.3" y1="108.18" x2="301.77" y2="109.76"/><line class="cls-5" x1="304.22" y1="105.81" x2="300.72" y2="107.45"/><line class="cls-5" x1="303.1" y1="103.46" x2="299.62" y2="105.15"/><line class="cls-5" x1="301.93" y1="101.13" x2="298.49" y2="102.88"/><line class="cls-5" x1="300.73" y1="98.82" x2="297.32" y2="100.63"/><line class="cls-5" x1="299.49" y1="96.53" x2="296.11" y2="98.4"/><line class="cls-5" x1="298.2" y1="94.26" x2="294.86" y2="96.19"/><line class="cls-5" x1="296.88" y1="92.01" x2="293.57" y2="94"/><line class="cls-5" x1="295.52" y1="89.79" x2="292.24" y2="91.84"/><line class="cls-5" x1="294.12" y1="87.6" x2="290.88" y2="89.7"/><line class="cls-5" x1="292.68" y1="85.42" x2="289.48" y2="87.58"/><line class="cls-5" x1="291.21" y1="83.28" x2="288.04" y2="85.49"/><line class="cls-5" x1="289.69" y1="81.15" x2="286.57" y2="83.42"/><line class="cls-5" x1="288.14" y1="79.06" x2="285.06" y2="81.38"/><line class="cls-5" x1="286.56" y1="76.99" x2="283.51" y2="79.37"/><line class="cls-5" x1="284.93" y1="74.95" x2="281.93" y2="77.38"/><line class="cls-5" x1="283.28" y1="72.94" x2="280.32" y2="75.43"/><line class="cls-5" x1="281.58" y1="70.96" x2="278.67" y2="73.5"/><line class="cls-5" x1="279.86" y1="69.01" x2="276.99" y2="71.59"/><line class="cls-5" x1="278.1" y1="67.09" x2="275.27" y2="69.72"/><line class="cls-5" x1="276.3" y1="65.2" x2="273.52" y2="67.88"/><line class="cls-5" x1="274.48" y1="63.34" x2="271.75" y2="66.07"/><line class="cls-5" x1="272.62" y1="61.51" x2="269.94" y2="64.29"/><line class="cls-5" x1="270.73" y1="59.72" x2="268.09" y2="62.55"/><line class="cls-5" x1="268.81" y1="57.96" x2="266.22" y2="60.83"/><line class="cls-5" x1="266.86" y1="56.23" x2="264.32" y2="59.15"/><line class="cls-5" x1="264.88" y1="54.54" x2="262.39" y2="57.5"/><line class="cls-5" x1="262.86" y1="52.88" x2="260.43" y2="55.89"/><line class="cls-5" x1="260.83" y1="51.26" x2="258.45" y2="54.31"/><line class="cls-5" x1="258.76" y1="49.67" x2="256.43" y2="52.76"/><line class="cls-5" x1="256.66" y1="48.12" x2="254.39" y2="51.25"/><line class="cls-5" x1="254.54" y1="46.61" x2="252.33" y2="49.78"/><line class="cls-5" x1="252.39" y1="45.14" x2="250.23" y2="48.34"/><line class="cls-5" x1="250.22" y1="43.7" x2="248.12" y2="46.94"/><line class="cls-5" x1="248.02" y1="42.3" x2="245.98" y2="45.57"/><line class="cls-5" x1="245.8" y1="40.94" x2="243.81" y2="44.25"/><line class="cls-5" x1="243.56" y1="39.61" x2="241.63" y2="42.96"/><line class="cls-5" x1="241.29" y1="38.33" x2="239.42" y2="41.71"/><line class="cls-5" x1="239" y1="37.09" x2="237.19" y2="40.5"/><line class="cls-5" x1="236.69" y1="35.88" x2="234.93" y2="39.33"/><line class="cls-5" x1="234.36" y1="34.72" x2="232.66" y2="38.19"/><line class="cls-5" x1="232" y1="33.6" x2="230.37" y2="37.1"/><line class="cls-5" x1="229.63" y1="32.52" x2="228.06" y2="36.05"/><line class="cls-5" x1="227.24" y1="31.48" x2="225.73" y2="35.04"/><line class="cls-5" x1="224.84" y1="30.48" x2="223.39" y2="34.06"/><line class="cls-5" x1="222.41" y1="29.53" x2="221.03" y2="33.13"/><line class="cls-5" x1="219.97" y1="28.61" x2="218.65" y2="32.25"/><line class="cls-5" x1="217.52" y1="27.75" x2="216.26" y2="31.4"/><line class="cls-5" x1="215.04" y1="26.92" x2="213.85" y2="30.59"/><line class="cls-5" x1="212.56" y1="26.13" x2="211.43" y2="29.83"/><line class="cls-5" x1="210.06" y1="25.39" x2="209" y2="29.11"/><line class="cls-5" x1="207.55" y1="24.7" x2="206.55" y2="28.43"/><line class="cls-5" x1="205.03" y1="24.05" x2="204.09" y2="27.79"/><line class="cls-5" x1="202.49" y1="23.44" x2="201.62" y2="27.2"/><line class="cls-5" x1="199.95" y1="22.87" x2="199.15" y2="26.65"/><line class="cls-5" x1="197.4" y1="22.35" x2="196.66" y2="26.15"/><line class="cls-5" x1="194.83" y1="21.88" x2="194.16" y2="25.68"/><line class="cls-5" x1="192.26" y1="21.45" x2="191.66" y2="25.27"/><line class="cls-5" x1="189.69" y1="21.06" x2="189.15" y2="24.89"/><line class="cls-5" x1="187.1" y1="20.72" x2="186.63" y2="24.56"/><line class="cls-5" x1="184.51" y1="20.43" x2="184.11" y2="24.27"/><line class="cls-5" x1="181.92" y1="20.18" x2="181.58" y2="24.03"/><line class="cls-5" x1="179.32" y1="19.97" x2="179.05" y2="23.83"/><line class="cls-5" x1="176.72" y1="19.82" x2="176.52" y2="23.67"/><line class="cls-5" x1="174.12" y1="19.7" x2="173.98" y2="23.56"/><line class="cls-5" x1="171.51" y1="19.63" x2="171.45" y2="23.5"/><line class="cls-5" x1="168.91" y1="19.61" x2="168.91" y2="23.47"/><line class="cls-5" x1="166.3" y1="19.63" x2="166.37" y2="23.5"/><line class="cls-5" x1="163.7" y1="19.7" x2="163.83" y2="23.56"/><line class="cls-5" x1="161.09" y1="19.82" x2="161.3" y2="23.67"/><line class="cls-5" x1="158.49" y1="19.97" x2="158.76" y2="23.83"/><line class="cls-5" x1="155.9" y1="20.18" x2="156.23" y2="24.03"/><line class="cls-5" x1="153.3" y1="20.43" x2="153.71" y2="24.27"/><line class="cls-5" x1="150.71" y1="20.72" x2="151.18" y2="24.56"/><line class="cls-5" x1="148.13" y1="21.06" x2="148.67" y2="24.89"/><line class="cls-5" x1="145.55" y1="21.45" x2="146.16" y2="25.27"/><line class="cls-5" x1="142.98" y1="21.88" x2="143.65" y2="25.68"/><line class="cls-5" x1="140.42" y1="22.35" x2="141.16" y2="26.15"/><line class="cls-5" x1="137.87" y1="22.87" x2="138.67" y2="26.65"/><line class="cls-5" x1="135.32" y1="23.44" x2="136.19" y2="27.2"/><line class="cls-5" x1="132.79" y1="24.05" x2="133.72" y2="27.79"/><line class="cls-5" x1="130.27" y1="24.7" x2="131.27" y2="28.43"/><line class="cls-5" x1="127.76" y1="25.39" x2="128.82" y2="29.11"/><line class="cls-5" x1="125.26" y1="26.13" x2="126.39" y2="29.83"/><line class="cls-5" x1="122.77" y1="26.92" x2="123.97" y2="30.59"/><line class="cls-5" x1="120.3" y1="27.75" x2="121.56" y2="31.4"/><line class="cls-5" x1="117.85" y1="28.61" x2="119.17" y2="32.25"/><line class="cls-5" x1="115.41" y1="29.53" x2="116.79" y2="33.13"/><line class="cls-5" x1="112.98" y1="30.48" x2="114.43" y2="34.06"/><line class="cls-5" x1="110.57" y1="31.48" x2="112.08" y2="35.04"/><line class="cls-5" x1="108.18" y1="32.52" x2="109.76" y2="36.05"/><line class="cls-5" x1="105.81" y1="33.6" x2="107.45" y2="37.1"/><line class="cls-5" x1="103.46" y1="34.72" x2="105.15" y2="38.19"/><line class="cls-5" x1="101.13" y1="35.88" x2="102.88" y2="39.33"/><line class="cls-5" x1="98.82" y1="37.09" x2="100.63" y2="40.5"/><line class="cls-5" x1="96.53" y1="38.33" x2="98.4" y2="41.71"/><line class="cls-5" x1="94.26" y1="39.61" x2="96.19" y2="42.96"/><line class="cls-5" x1="92.01" y1="40.94" x2="94" y2="44.25"/><line class="cls-5" x1="89.79" y1="42.3" x2="91.84" y2="45.57"/><line class="cls-5" x1="87.6" y1="43.7" x2="89.7" y2="46.94"/><line class="cls-5" x1="85.42" y1="45.14" x2="87.58" y2="48.34"/><line class="cls-5" x1="83.28" y1="46.61" x2="85.49" y2="49.78"/><line class="cls-5" x1="81.15" y1="48.12" x2="83.42" y2="51.25"/><line class="cls-5" x1="79.06" y1="49.67" x2="81.38" y2="52.76"/><line class="cls-5" x1="76.99" y1="51.26" x2="79.37" y2="54.31"/><line class="cls-5" x1="74.95" y1="52.88" x2="77.38" y2="55.89"/><line class="cls-5" x1="72.94" y1="54.54" x2="75.43" y2="57.5"/><line class="cls-5" x1="70.96" y1="56.23" x2="73.5" y2="59.15"/><line class="cls-5" x1="69.01" y1="57.96" x2="71.59" y2="60.83"/><line class="cls-5" x1="67.09" y1="59.72" x2="69.72" y2="62.55"/><line class="cls-5" x1="65.2" y1="61.51" x2="67.88" y2="64.29"/><line class="cls-5" x1="63.34" y1="63.34" x2="66.07" y2="66.07"/><line class="cls-5" x1="61.51" y1="65.2" x2="64.29" y2="67.88"/><line class="cls-5" x1="59.72" y1="67.09" x2="62.55" y2="69.72"/><line class="cls-5" x1="57.96" y1="69.01" x2="60.83" y2="71.59"/><line class="cls-5" x1="56.23" y1="70.96" x2="59.15" y2="73.5"/><line class="cls-5" x1="54.54" y1="72.94" x2="57.5" y2="75.43"/><line class="cls-5" x1="52.88" y1="74.95" x2="55.89" y2="77.38"/><line class="cls-5" x1="51.26" y1="76.99" x2="54.31" y2="79.37"/><line class="cls-5" x1="49.67" y1="79.06" x2="52.76" y2="81.38"/><line class="cls-5" x1="48.12" y1="81.15" x2="51.25" y2="83.42"/><line class="cls-5" x1="46.61" y1="83.28" x2="49.78" y2="85.49"/><line class="cls-5" x1="45.14" y1="85.42" x2="48.34" y2="87.58"/><line class="cls-5" x1="43.7" y1="87.6" x2="46.94" y2="89.7"/><line class="cls-5" x1="42.3" y1="89.79" x2="45.57" y2="91.84"/><line class="cls-5" x1="40.94" y1="92.01" x2="44.25" y2="94"/><line class="cls-5" x1="39.61" y1="94.26" x2="42.96" y2="96.19"/><line class="cls-5" x1="38.33" y1="96.53" x2="41.71" y2="98.4"/><line class="cls-5" x1="37.09" y1="98.82" x2="40.5" y2="100.63"/><line class="cls-5" x1="35.88" y1="101.13" x2="39.33" y2="102.88"/><line class="cls-5" x1="34.72" y1="103.46" x2="38.19" y2="105.15"/><line class="cls-5" x1="33.6" y1="105.81" x2="37.1" y2="107.45"/><line class="cls-5" x1="32.52" y1="108.18" x2="36.05" y2="109.76"/><line class="cls-5" x1="31.48" y1="110.57" x2="35.04" y2="112.08"/><line class="cls-5" x1="30.48" y1="112.98" x2="34.06" y2="114.43"/><line class="cls-5" x1="29.53" y1="115.41" x2="33.13" y2="116.79"/><line class="cls-5" x1="28.61" y1="117.85" x2="32.25" y2="119.17"/><line class="cls-5" x1="27.75" y1="120.3" x2="31.4" y2="121.56"/><line class="cls-5" x1="26.92" y1="122.77" x2="30.59" y2="123.97"/><line class="cls-5" x1="26.13" y1="125.26" x2="29.83" y2="126.39"/><line class="cls-5" x1="25.39" y1="127.76" x2="29.11" y2="128.82"/><line class="cls-5" x1="24.7" y1="130.27" x2="28.43" y2="131.27"/><line class="cls-5" x1="24.05" y1="132.79" x2="27.79" y2="133.73"/><line class="cls-5" x1="23.44" y1="135.32" x2="27.2" y2="136.19"/><line class="cls-5" x1="22.87" y1="137.87" x2="26.65" y2="138.67"/><line class="cls-5" x1="22.35" y1="140.42" x2="26.15" y2="141.16"/><line class="cls-5" x1="21.88" y1="142.98" x2="25.68" y2="143.65"/><line class="cls-5" x1="21.45" y1="145.55" x2="25.27" y2="146.16"/><line class="cls-5" x1="21.06" y1="148.13" x2="24.89" y2="148.67"/><line class="cls-5" x1="20.72" y1="150.71" x2="24.56" y2="151.18"/><line class="cls-5" x1="20.43" y1="153.3" x2="24.27" y2="153.71"/><line class="cls-5" x1="20.18" y1="155.9" x2="24.03" y2="156.23"/><line class="cls-5" x1="19.97" y1="158.49" x2="23.83" y2="158.76"/><line class="cls-5" x1="19.82" y1="161.1" x2="23.67" y2="161.3"/><line class="cls-5" x1="19.7" y1="163.7" x2="23.56" y2="163.83"/><line class="cls-5" x1="19.63" y1="166.3" x2="23.5" y2="166.37"/><line class="cls-5" x1="19.61" y1="168.91" x2="23.47" y2="168.91"/><line class="cls-5" x1="19.63" y1="171.51" x2="23.5" y2="171.45"/><line class="cls-5" x1="19.7" y1="174.12" x2="23.56" y2="173.98"/><line class="cls-5" x1="19.82" y1="176.72" x2="23.67" y2="176.52"/><line class="cls-5" x1="19.97" y1="179.32" x2="23.83" y2="179.05"/><line class="cls-5" x1="20.18" y1="181.92" x2="24.03" y2="181.58"/><line class="cls-5" x1="20.43" y1="184.51" x2="24.27" y2="184.11"/><line class="cls-5" x1="20.72" y1="187.1" x2="24.56" y2="186.63"/><line class="cls-5" x1="21.06" y1="189.69" x2="24.89" y2="189.15"/><line class="cls-5" x1="21.45" y1="192.26" x2="25.27" y2="191.66"/><line class="cls-5" x1="21.88" y1="194.83" x2="25.68" y2="194.16"/><line class="cls-5" x1="22.35" y1="197.4" x2="26.15" y2="196.66"/><line class="cls-5" x1="22.87" y1="199.95" x2="26.65" y2="199.15"/><line class="cls-5" x1="23.44" y1="202.49" x2="27.2" y2="201.62"/><line class="cls-5" x1="24.05" y1="205.03" x2="27.79" y2="204.09"/><line class="cls-5" x1="24.7" y1="207.55" x2="28.43" y2="206.55"/><line class="cls-5" x1="25.39" y1="210.06" x2="29.11" y2="209"/><line class="cls-5" x1="26.13" y1="212.56" x2="29.83" y2="211.43"/><line class="cls-5" x1="26.92" y1="215.04" x2="30.59" y2="213.85"/><line class="cls-5" x1="27.75" y1="217.52" x2="31.4" y2="216.26"/><line class="cls-5" x1="28.61" y1="219.97" x2="32.25" y2="218.65"/><line class="cls-5" x1="29.53" y1="222.41" x2="33.13" y2="221.03"/><line class="cls-5" x1="30.48" y1="224.84" x2="34.06" y2="223.39"/><line class="cls-5" x1="31.48" y1="227.24" x2="35.04" y2="225.73"/><line class="cls-5" x1="32.52" y1="229.63" x2="36.05" y2="228.06"/><line class="cls-5" x1="33.6" y1="232" x2="37.1" y2="230.37"/><line class="cls-5" x1="34.72" y1="234.36" x2="38.19" y2="232.66"/><line class="cls-5" x1="35.88" y1="236.69" x2="39.33" y2="234.93"/><line class="cls-5" x1="37.09" y1="239" x2="40.5" y2="237.19"/><line class="cls-5" x1="38.33" y1="241.29" x2="41.71" y2="239.42"/><circle class="cls-6" cx="168.95" cy="168.91" r="145.37"/><rect class="cls-7" x="181.25" y="185.93" width="254.6" height="254.6" transform="translate(477.54 482.14) rotate(-180)"/><rect class="cls-8" x="228.85" y="233.53" width="159.4" height="159.4" transform="translate(477.54 482.14) rotate(-180)"/><rect class="cls-8" x="215.55" y="220.23" width="186" height="186" transform="translate(477.54 482.14) rotate(-180)"/><rect class="cls-8" x="202.24" y="206.92" width="212.63" height="212.63" transform="translate(477.54 482.14) rotate(-180)"/><rect class="cls-9" x="160.18" y="48.05" width="17.61" height="41.15"/><rect class="cls-9" x="160.18" y="248.61" width="17.61" height="41.15"/><rect class="cls-9" x="400.02" y="292.66" width="17.61" height="41.15" transform="translate(-43.97 577.74) rotate(-90)"/><rect class="cls-9" x="199.47" y="292.66" width="17.61" height="41.15" transform="translate(-244.52 377.18) rotate(-90)"/><path class="cls-7" d="M194.93,438.08A11.22,11.22,0,0,1,187,418.92L414.24,191.67a11.23,11.23,0,0,1,15.88,15.88L202.87,434.8A11.15,11.15,0,0,1,194.93,438.08Z" transform="translate(-139.56 -144.32)"/><path class="cls-10" d="M422.18,189.38a10.2,10.2,0,0,1,7.23,3h0a10.23,10.23,0,0,1,0,14.46L202.16,434.09a10.23,10.23,0,1,1-14.46-14.47L414.94,192.38a10.21,10.21,0,0,1,7.24-3m0-2a12.15,12.15,0,0,0-8.65,3.58L186.28,418.21a12.23,12.23,0,0,0,17.3,17.29L430.82,208.26a12.23,12.23,0,0,0-8.64-20.88Z" transform="translate(-139.56 -144.32)"/><path class="cls-7" d="M422.17,438.08a11.14,11.14,0,0,1-7.93-3.28L187,207.55a11.23,11.23,0,1,1,15.88-15.88L430.12,418.92a11.22,11.22,0,0,1-7.95,19.16Z" transform="translate(-139.56 -144.32)"/><path class="cls-10" d="M194.93,189.38a10.18,10.18,0,0,1,7.23,3L429.41,419.62a10.23,10.23,0,0,1-14.47,14.47L187.7,206.84a10.23,10.23,0,0,1,7.23-17.46m0-2a12.23,12.23,0,0,0-8.65,20.88L413.53,435.5a12.23,12.23,0,0,0,17.29-17.29L203.58,191a12.16,12.16,0,0,0-8.65-3.58Z" transform="translate(-139.56 -144.32)"/><path class="cls-11" d="M435.85,440.53V185.93H181.25v254.6ZM187.7,192.38H429.41V434.09H187.7Z" transform="translate(-139.56 -144.32)"/><rect class="cls-10" x="302.14" y="229.31" width="12.83" height="2.48" transform="translate(477.54 316.78) rotate(-180)"/><rect class="cls-10" x="302.14" y="221.62" width="12.83" height="2.48" transform="translate(477.54 301.4) rotate(-180)"/><rect class="cls-10" x="170.23" y="81.14" width="5.17" height="2.48"/><rect class="cls-10" x="162.57" y="81.14" width="5.17" height="2.48"/><rect class="cls-10" x="302.14" y="402.36" width="12.83" height="2.48" transform="translate(477.54 662.88) rotate(-180)"/><rect class="cls-10" x="302.14" y="398.51" width="12.83" height="2.48" transform="translate(477.54 655.19) rotate(-180)"/><rect class="cls-10" x="302.14" y="394.67" width="12.83" height="2.48" transform="translate(477.54 647.5) rotate(-180)"/><rect class="cls-7" x="306.49" y="402.36" width="4.12" height="2.48" transform="translate(-234.62 567.83) rotate(-90)"/><rect class="cls-7" x="306.49" y="394.67" width="4.12" height="2.48" transform="translate(-226.92 560.14) rotate(-90)"/><rect class="cls-10" x="388.49" y="311.99" width="12.83" height="2.48" transform="translate(568.57 -225.99) rotate(90)"/><rect class="cls-10" x="384.64" y="311.99" width="12.83" height="2.48" transform="translate(564.72 -222.15) rotate(90)"/><rect class="cls-10" x="257.94" y="170.15" width="2.48" height="5.17"/><rect class="cls-10" x="257.94" y="162.49" width="2.48" height="5.17"/><rect class="cls-10" x="219.67" y="311.99" width="12.83" height="2.48" transform="translate(399.76 -57.18) rotate(90)"/><rect class="cls-10" x="81.44" y="170.15" width="2.48" height="5.17"/><rect class="cls-10" x="81.44" y="162.49" width="2.48" height="5.17"/><rect class="cls-10" x="77.59" y="170.15" width="2.48" height="5.17"/><rect class="cls-10" x="77.59" y="162.49" width="2.48" height="5.17"/><rect class="cls-10" x="419.05" y="204.32" width="2.48" height="5.17" transform="translate(-162.77 213.47) rotate(-45)"/><rect class="cls-10" x="413.64" y="198.91" width="2.48" height="5.17" transform="translate(-160.53 208.05) rotate(-45)"/><rect class="cls-10" x="410.93" y="201.62" width="2.48" height="5.21" transform="translate(-163.25 206.94) rotate(-45)"/><rect class="cls-10" x="416.34" y="207.07" width="2.48" height="5.14" transform="translate(-165.49 212.35) rotate(-45)"/><rect class="cls-10" x="408.21" y="204.34" width="2.48" height="5.21" transform="translate(-165.97 205.81) rotate(-45)"/><rect class="cls-10" x="413.62" y="209.79" width="2.48" height="5.14" transform="translate(-168.21 211.23) rotate(-45)"/><rect class="cls-10" x="193.1" y="421.02" width="12.83" height="2.48" transform="translate(217.46 -161.73) rotate(45)"/><rect class="cls-10" x="198.29" y="414.25" width="2.48" height="5.17" transform="translate(-375.87 118.85) rotate(-45)"/><rect class="cls-10" x="203.7" y="419.67" width="2.48" height="5.17" transform="translate(-378.12 124.28) rotate(-45)"/><rect class="cls-10" x="206.42" y="416.95" width="2.48" height="5.17" transform="translate(-375.4 125.39) rotate(-45)"/><rect class="cls-10" x="201.01" y="411.53" width="2.48" height="5.17" transform="translate(-373.16 119.98) rotate(-45)"/><rect class="cls-10" x="411.17" y="421.02" width="12.83" height="2.48" transform="translate(871.89 281.25) rotate(135)"/><rect class="cls-10" x="408.45" y="418.3" width="12.83" height="2.48" transform="translate(865.32 278.53) rotate(135)"/><rect class="cls-10" x="405.73" y="415.59" width="12.83" height="2.48" transform="translate(858.76 275.81) rotate(135)"/><rect class="cls-10" x="195.82" y="205.68" width="12.83" height="2.48" transform="translate(351.99 65.9) rotate(135)"/><rect class="cls-10" x="193.1" y="202.96" width="12.83" height="2.48" transform="translate(345.42 63.18) rotate(135)"/><rect class="cls-10" x="205.08" y="205.69" width="5.17" height="2.48" transform="translate(-225.06 63.12) rotate(-45)"/><rect class="cls-10" x="199.66" y="211.1" width="5.17" height="2.48" transform="translate(-230.48 60.88) rotate(-45)"/><path class="cls-12" d="M387.45,203.84a.22.22,0,0,1-.11.2.42.42,0,0,1-.25.06.5.5,0,0,1-.26-.11.38.38,0,0,1-.11-.29l0-4.56-1.51.1a.82.82,0,0,1-.22.16.36.36,0,0,1-.19,0,.44.44,0,0,1-.3-.1.34.34,0,0,1-.13-.21.26.26,0,0,1,0-.21.25.25,0,0,1,.22-.1l2.11-.12,0-2.58a.13.13,0,0,1,.1-.12.43.43,0,0,1,.23,0,.62.62,0,0,1,.23.07.17.17,0,0,1,.1.15v2.45l3.36-.19a.25.25,0,0,1,.16.06.72.72,0,0,1,.11.15.5.5,0,0,1,0,.16s0,.07-.08.07l-3.58.2Zm1.55-1.72a1.32,1.32,0,0,0,.2.34,3.7,3.7,0,0,0,.24.29l.17.22q.06.09,0,.12a.54.54,0,0,1-.24,0l-.32-.06a2.52,2.52,0,0,1-.34-.15.84.84,0,0,1-.26-.23.48.48,0,0,1-.07-.18.81.81,0,0,1,0-.22.68.68,0,0,1,.07-.2.23.23,0,0,1,.12-.12.26.26,0,0,1,.26,0A.34.34,0,0,1,389,202.12Zm.62-2.13a2.31,2.31,0,0,0,.35.43c.12.11.23.19.32.26l.21.15c.05,0,.05.06,0,.09a.79.79,0,0,1-.23.07,1.69,1.69,0,0,1-.33,0,1.35,1.35,0,0,1-.34-.06,1,1,0,0,1-.3-.14.64.64,0,0,1-.21-.32.48.48,0,0,1,0-.39.42.42,0,0,1,.23-.27C389.44,199.81,389.54,199.86,389.62,200Z" transform="translate(-139.56 -144.32)"/><path class="cls-13" d="M226.07,200a.47.47,0,0,1-.18.13.22.22,0,0,1-.16,0,.38.38,0,0,1-.24-.1.3.3,0,0,1-.1-.2.36.36,0,0,1,.06-.2.25.25,0,0,1,.22-.09l.85,0,0-.93s0-.09.1-.11a.53.53,0,0,1,.22,0,.57.57,0,0,1,.22.07.18.18,0,0,1,.09.16v.81l.88,0a.21.21,0,0,1,.14.08.56.56,0,0,1,.09.17.45.45,0,0,1,0,.16c0,.06,0,.08-.08.08h-1v.66l1.26,0a.17.17,0,0,1,.15.08.51.51,0,0,1,.09.16.36.36,0,0,1,0,.17.07.07,0,0,1-.08.08h-3a.59.59,0,0,1-.17.13.3.3,0,0,1-.16,0,.39.39,0,0,1-.25-.11.32.32,0,0,1-.1-.19.24.24,0,0,1,.06-.2.26.26,0,0,1,.21-.09l1.24,0V200Zm3.05-1.7a.23.23,0,0,1-.14.22.44.44,0,0,1-.28,0,.54.54,0,0,1-.27-.16.45.45,0,0,1-.13-.34l0-.59H227a.79.79,0,0,1-.24.15.41.41,0,0,1-.21,0,.51.51,0,0,1-.3-.12.47.47,0,0,1-.13-.24.28.28,0,0,1,0-.22.27.27,0,0,1,.24-.11h1.92l0-.91h-2.3a.72.72,0,0,1-.24.16.59.59,0,0,1-.21,0,.53.53,0,0,1-.3-.14.49.49,0,0,1-.13-.23.31.31,0,0,1,0-.23.26.26,0,0,1,.24-.1h6.13a.21.21,0,0,1,.16.08.59.59,0,0,1,.1.17.33.33,0,0,1,0,.17.08.08,0,0,1-.09.08h-2.68V197h1.62a.23.23,0,0,1,.17.08.77.77,0,0,1,.1.18.35.35,0,0,1,0,.17c0,.05,0,.08-.08.08h-1.81ZM226,203a.47.47,0,0,1-.18.13.4.4,0,0,1-.15,0,.38.38,0,0,1-.25-.1.33.33,0,0,1-.09-.2.27.27,0,0,1,.06-.21.25.25,0,0,1,.21-.09l2.51-.06a.19.19,0,0,1,.13.07.51.51,0,0,1,.09.18.35.35,0,0,1,0,.17c0,.06,0,.08-.08.08Zm.54-1.53s0,0,0,.14a2.57,2.57,0,0,1-.11.27,1.53,1.53,0,0,1-.16.25c-.06.07-.11.1-.15.08a.44.44,0,0,1-.3-.23.26.26,0,0,1,.12-.28,1,1,0,0,1,.32-.2A.48.48,0,0,1,226.55,201.43Zm.61,2a.56.56,0,0,0,.08.22,1.47,1.47,0,0,0,.1.13l.07.07s0,0,0,.06a.28.28,0,0,1-.15,0l-.21,0-.21-.1a.44.44,0,0,1-.16-.14.36.36,0,0,1,0-.25.31.31,0,0,1,.16-.21.21.21,0,0,1,.23,0A.31.31,0,0,1,227.16,203.47Zm.34-1.44a1.13,1.13,0,0,0-.13-.27l-.14-.17-.09-.1s0-.05,0-.07a.37.37,0,0,1,.14-.06.5.5,0,0,1,.21,0,.78.78,0,0,1,.24.09.45.45,0,0,1,.2.21.36.36,0,0,1,0,.27.38.38,0,0,1-.15.24C227.68,202.28,227.56,202.23,227.5,202Zm3.61-2.51H230v.89h.82a.17.17,0,0,1,.14.06.28.28,0,0,1,.06.14.23.23,0,0,1,0,.14.14.14,0,0,1-.11.07H230a.39.39,0,0,1-.18.1.34.34,0,0,1-.22,0,.31.31,0,0,1-.18-.09.34.34,0,0,1-.07-.24l0-1.68c0-.05,0-.09.11-.11a.52.52,0,0,1,.22,0,.57.57,0,0,1,.22.07.15.15,0,0,1,.1.15v0l1.2,0c.23,0,.37,0,.42.13a.58.58,0,0,1,.09.3v.79a.3.3,0,0,1-.1.21.4.4,0,0,1-.23.08.32.32,0,0,1-.22-.07.3.3,0,0,1-.1-.26Zm-1.21,3.88a.37.37,0,0,1-.3,0,.35.35,0,0,1-.15-.17.63.63,0,0,1,0-.21v-1.27a.27.27,0,0,1,.1-.22.53.53,0,0,1,.22-.08.38.38,0,0,1,.23,0,.22.22,0,0,1,.15.16h1.07a.26.26,0,0,1,.15.07.42.42,0,0,1,.09.14.23.23,0,0,1,0,.14.07.07,0,0,1-.08.06h-1.23v.77h.94a.16.16,0,0,1,.14.07.51.51,0,0,1,.09.13.24.24,0,0,1,0,.14c0,.05,0,.07-.08.07h-1.11a.39.39,0,0,1-.08.1A.37.37,0,0,1,229.9,203.4Zm2.16,0a.83.83,0,0,1-.32,0,.54.54,0,0,1-.2-.14.2.2,0,0,1,0-.22.63.63,0,0,0,0-.13,4,4,0,0,1,.4-1.81,3.39,3.39,0,0,1,1-1.24c.05,0,.08-.05.11,0s0,.06,0,.11a5.49,5.49,0,0,0-.56,1.31,6.32,6.32,0,0,0-.24,1.88.23.23,0,0,1-.06.2A.22.22,0,0,1,232.06,203.4Z" transform="translate(-139.56 -144.32)"/><path class="cls-13" d="M193.59,233.27a.28.28,0,0,1,.24.11.38.38,0,0,1,0,.26.45.45,0,0,1-.12.25.35.35,0,0,1-.28.12H193v.79a.8.8,0,0,1,.13.21.41.41,0,0,1,0,.21.4.4,0,0,1-.11.29.44.44,0,0,1-.22.12.24.24,0,0,1-.3-.26V234h-.82v2.13a.74.74,0,0,1,.14.22.39.39,0,0,1,0,.2.43.43,0,0,1-.12.28.38.38,0,0,1-.22.14.26.26,0,0,1-.3-.28v-5.48a.19.19,0,0,1,.08-.15.57.57,0,0,1,.16-.11.3.3,0,0,1,.16,0,.08.08,0,0,1,.07.08v2.26h.82v-1a.18.18,0,0,1,.07-.15.54.54,0,0,1,.16-.1.23.23,0,0,1,.16,0,.09.09,0,0,1,.08.09v1.14Zm1,2.23a.85.85,0,0,1,.14.21.41.41,0,0,1,0,.21.41.41,0,0,1-.12.28.42.42,0,0,1-.22.13.24.24,0,0,1-.2,0,.25.25,0,0,1-.1-.22v-4.64a.23.23,0,0,1,.08-.16.51.51,0,0,1,.16-.09.3.3,0,0,1,.16,0c.05,0,.07,0,.07.08v2h.81v-.67a.2.2,0,0,1,.06-.15.49.49,0,0,1,.15-.1.31.31,0,0,1,.15,0,.08.08,0,0,1,.07.09v.85h.57a.28.28,0,0,1,.24.11.35.35,0,0,1,.08.26.4.4,0,0,1-.09.25.36.36,0,0,1-.29.12h-.51v.23a.6.6,0,0,1,.13.21.59.59,0,0,1,0,.21.45.45,0,0,1-.11.28.48.48,0,0,1-.21.13.24.24,0,0,1-.2,0,.29.29,0,0,1-.08-.22V234h-.81Zm4.72-2.21a.69.69,0,0,1-.11.45.32.32,0,0,1-.3.18.44.44,0,0,1-.17-.12.41.41,0,0,0-.17-.11l-.3-.13-.28-.15v2.5a.79.79,0,0,1,.14.23.59.59,0,0,1,0,.21.47.47,0,0,1-.14.3.4.4,0,0,1-.23.14.29.29,0,0,1-.22,0,.24.24,0,0,1-.1-.23v-3.4a6,6,0,0,1-1.29-1.17,6.27,6.27,0,0,1-.87-1.37.1.1,0,0,1,0-.14s.09,0,.14.06a6.1,6.1,0,0,0,.9,1,7.58,7.58,0,0,0,1.1.81V231a.23.23,0,0,1,.08-.17.45.45,0,0,1,.17-.11.39.39,0,0,1,.18,0,.09.09,0,0,1,.08.09v1.83c.17.08.34.16.51.22a4.56,4.56,0,0,0,.52.18.39.39,0,0,1,.24.12A.38.38,0,0,1,199.35,233.29Zm-2.43,1.44a.54.54,0,0,1,.16-.1.19.19,0,0,1,.14,0s0,0,0,.09a.64.64,0,0,1-.15.25,5,5,0,0,0-.34.46c-.11.17-.21.36-.31.55s-.17.4-.24.6a3.33,3.33,0,0,0-.12.56c0,.17-.07.27-.17.29a.29.29,0,0,1-.28-.1.68.68,0,0,1-.18-.4,1,1,0,0,1,.14-.64,3.84,3.84,0,0,1,.58-.83C196.4,235.2,196.65,235,196.92,234.73Z" transform="translate(-139.56 -144.32)"/><path class="cls-13" d="M190.56,387.61l.4.71c.15.24.31.49.48.74s.34.49.53.72.36.45.55.65a.29.29,0,0,1,.1.23.18.18,0,0,1-.16.14l-.18,0h-.22a.81.81,0,0,1-.22-.07.39.39,0,0,1-.17-.14,4.9,4.9,0,0,1-.33-.55c-.13-.25-.25-.52-.38-.81s-.25-.59-.36-.88-.18-.54-.23-.74a.4.4,0,0,1,0-.17s0,0,0,0l.09.06A.44.44,0,0,1,190.56,387.61Zm1.8.25a3.34,3.34,0,0,0,.21.37,3.84,3.84,0,0,0,.27.42l.41.5a3.24,3.24,0,0,0,.49.49.3.3,0,0,1,.11.24c0,.09-.09.16-.26.21a.44.44,0,0,1-.33,0,.57.57,0,0,1-.21-.2,3.5,3.5,0,0,1-.26-.42c-.09-.16-.18-.34-.27-.52s-.15-.37-.22-.56a2.92,2.92,0,0,1-.13-.48q0-.12.06-.12A.15.15,0,0,1,192.36,387.86Zm4,3.7a.79.79,0,0,1,.15.24.4.4,0,0,1,0,.2.46.46,0,0,1-.12.3.54.54,0,0,1-.24.14.26.26,0,0,1-.23,0,.25.25,0,0,1-.11-.23v-3.65a5.33,5.33,0,0,1-1.37-1.12,6,6,0,0,1-.9-1.41c0-.07,0-.12,0-.15s.09,0,.13.06a6.52,6.52,0,0,0,2.12,1.86v-1.39a.21.21,0,0,1,.08-.16.59.59,0,0,1,.17-.1.37.37,0,0,1,.18,0,.07.07,0,0,1,.08.08V388l.62.22.12,0c0-.18-.07-.35-.1-.5a3.39,3.39,0,0,1,0-.37A.48.48,0,0,1,197,387a1,1,0,0,1,.25-.2l.25-.08a.17.17,0,0,1,.13,0,.17.17,0,0,1,.05.12,1.12,1.12,0,0,1,0,.2v.12a.76.76,0,0,0,0,.15,1.53,1.53,0,0,0,.23.15l.27.16.27.16.24.12.18.09.24.11.22.09.18.08a.35.35,0,0,1,.21.25c0,.12-.06.23-.23.34a.64.64,0,0,1-.24.11.38.38,0,0,1-.29-.07,4.88,4.88,0,0,1-.6-.5c-.24-.23-.46-.46-.67-.69a1.21,1.21,0,0,1,0,.19v.17c0,.1,0,.26,0,.46s0,.41.06.63,0,.41.07.59a2.59,2.59,0,0,0,.06.36.66.66,0,0,1,0,.14.37.37,0,0,1,0,.12.06.06,0,0,1-.07,0s-.07-.05-.11-.13a2.49,2.49,0,0,1-.29-.61c-.1-.27-.19-.56-.27-.86a.29.29,0,0,1-.31.18,5.37,5.37,0,0,1-.59-.22Zm-1.11-1.42.17-.1c.06,0,.1,0,.13,0s0,0,0,.09a.72.72,0,0,1-.15.25,3.18,3.18,0,0,0-.33.47,5.7,5.7,0,0,0-.32.6,5.87,5.87,0,0,0-.24.63,2.79,2.79,0,0,0-.13.58.47.47,0,0,1-.11.33.19.19,0,0,1-.18.07.5.5,0,0,1-.19-.1.7.7,0,0,1-.14-.17.5.5,0,0,1-.08-.26,1.37,1.37,0,0,1,0-.29,1.31,1.31,0,0,1,.09-.28,2.16,2.16,0,0,1,.1-.25,4.42,4.42,0,0,1,.59-.85C194.73,390.61,195,390.37,195.24,390.14ZM194,388.06a3.31,3.31,0,0,0,.47.68c.19.21.4.41.61.6a.16.16,0,0,1,.09.17c0,.07-.07.12-.19.15a.74.74,0,0,1-.33,0,.46.46,0,0,1-.25-.15,1.46,1.46,0,0,1-.18-.29,3.34,3.34,0,0,1-.16-.38c0-.14-.09-.27-.12-.4a3.15,3.15,0,0,1-.09-.36c0-.05,0-.08,0-.07A.11.11,0,0,1,194,388.06Zm4.78,1.94c.06-.06.11-.09.17-.08s.07.07,0,.21a3.14,3.14,0,0,1-.51.79,2.92,2.92,0,0,1-.64.56.4.4,0,0,1-.31.09.67.67,0,0,1-.24-.11c-.17-.12-.25-.22-.23-.31a.38.38,0,0,1,.19-.23.71.71,0,0,1,.16-.07l.15-.06.18-.07.24-.14a2.66,2.66,0,0,0,.47-.3Z" transform="translate(-139.56 -144.32)"/><path class="cls-13" d="M227.62,422.44a.78.78,0,0,1,.4,0,.36.36,0,0,1,.24.17.21.21,0,0,1,0,.23.29.29,0,0,0-.08.17c0,.21,0,.41,0,.61s0,.4,0,.59h1.57v-1.6a.23.23,0,0,1,.11-.2.36.36,0,0,1,.25,0,.5.5,0,0,1,.26.11.36.36,0,0,1,.11.28v1.45h.83a.65.65,0,0,1,.23-.15.63.63,0,0,1,.21,0,.46.46,0,0,1,.3.13.42.42,0,0,1,.13.23.26.26,0,0,1,0,.23.24.24,0,0,1-.23.1h-1.44l0,2h1.18a.54.54,0,0,1,.22-.14.56.56,0,0,1,.21,0,.51.51,0,0,1,.31.12.44.44,0,0,1,.14.23.31.31,0,0,1-.05.23.3.3,0,0,1-.24.1H230.4l0,2.89a.28.28,0,0,1-.11.26.35.35,0,0,1-.23.09.34.34,0,0,1-.23-.1.33.33,0,0,1-.09-.29v-2.85h-2a6.54,6.54,0,0,1-.84,1.92,4.45,4.45,0,0,1-1.3,1.26c-.06,0-.11,0-.14,0s0-.08,0-.12a5.26,5.26,0,0,0,1-1.33,7,7,0,0,0,.59-1.73h-1.21a.25.25,0,0,1-.17-.08.4.4,0,0,1-.1-.18.33.33,0,0,1,0-.17.09.09,0,0,1,.09-.08h1.49c0-.3.08-.61.12-.93s0-.68.07-1.05h-1.13a.18.18,0,0,1-.16-.08.59.59,0,0,1-.1-.17.33.33,0,0,1,0-.17.08.08,0,0,1,.09-.08h1.33c0-.23,0-.47,0-.72s0-.5,0-.77a.32.32,0,0,1,.09-.24A.22.22,0,0,1,227.62,422.44Zm2.09,4.29v-2H228.1c0,.36-.07.71-.11,1s-.09.64-.15.94Z" transform="translate(-139.56 -144.32)"/><path class="cls-13" d="M386,425.72a.26.26,0,0,1,.12-.21.66.66,0,0,1,.27-.09.46.46,0,0,1,.26.07.28.28,0,0,1,.1.26v.68h.36a.47.47,0,0,1,.31-.15.42.42,0,0,1,.26.11.28.28,0,0,1,.09.2.24.24,0,0,1-.27.27l-.76,0,0,1.2.65-.13.53-.12a.09.09,0,0,1,.11,0s0,.07-.07.12a3.93,3.93,0,0,1-.55.29c-.21.1-.44.2-.68.29l0,1.68c0,.05,0,.09-.11.11a.63.63,0,0,1-.24,0,.62.62,0,0,1-.23-.07.18.18,0,0,1-.11-.15v-1.32c-.24.09-.46.16-.66.22l-.44.12q-.22.06-.3,0l-.17-.23c-.1-.17-.12-.28-.05-.33a.86.86,0,0,1,.29-.1,4.51,4.51,0,0,0,.59-.09l.75-.15V426.9l-.78,0,0,.09a.27.27,0,0,1-.18.18.39.39,0,0,1-.24,0,.5.5,0,0,1-.2-.15.22.22,0,0,1-.07-.19l.58-2.24h-.8a.16.16,0,0,1-.13-.07.43.43,0,0,1,0-.16.47.47,0,0,1,0-.17.09.09,0,0,1,.09-.07h1l.28-1a.25.25,0,0,1,.17-.21.41.41,0,0,1,.29,0,.45.45,0,0,1,.24.15.29.29,0,0,1,.06.29l-.25.82h1.24a.48.48,0,0,1,.33-.17.46.46,0,0,1,.24.12.3.3,0,0,1,.1.21.26.26,0,0,1-.06.21.29.29,0,0,1-.21.08l-1.77,0-.53,1.83H386Zm4.46-3.48a.62.62,0,0,1,.5.53.23.23,0,0,1,0,.12l-.05.07a.18.18,0,0,1-.07.05l0,.06a.9.9,0,0,1-.06.22,2.09,2.09,0,0,1-.08.23l0,0a3.46,3.46,0,0,0,.43.44c.19.16.4.32.62.48s.45.3.67.43a3.45,3.45,0,0,0,.59.26.46.46,0,0,1,.27.17.24.24,0,0,1,0,.2.71.71,0,0,1-.2.18,1.12,1.12,0,0,1-.22.11.46.46,0,0,1-.26,0,1.36,1.36,0,0,1-.25-.07,1.49,1.49,0,0,1-.24-.14l-.2-.15a5.17,5.17,0,0,1-.74-.79,9.31,9.31,0,0,1-.59-.92,4.25,4.25,0,0,1-.42.69,4.44,4.44,0,0,1-.56.66,4.5,4.5,0,0,1-.66.57,3.37,3.37,0,0,1-.76.43.1.1,0,0,1-.14,0,.11.11,0,0,1,0-.14,4.09,4.09,0,0,0,.72-.72,5.1,5.1,0,0,0,.57-.83,5.28,5.28,0,0,0,.41-.87,5,5,0,0,0,.21-.87.52.52,0,0,1,.16-.34A.39.39,0,0,1,390.46,422.24Zm-2,8.28.88-.46c.31-.16.62-.34.93-.52s.62-.38.91-.58a9.33,9.33,0,0,0,.82-.64.31.31,0,0,1,.28-.12c.08,0,.14.08.16.19a1.24,1.24,0,0,1,0,.44.59.59,0,0,1-.25.42,3.31,3.31,0,0,1-.42.25l-.6.28c-.22.1-.46.19-.71.29l-.74.29-.7.23-.57.16a.68.68,0,0,1-.21,0,0,0,0,0,1,0-.06.22.22,0,0,1,.08-.09Zm.44-2,.22-.09.28-.15.28-.17a1.55,1.55,0,0,0,.24-.19c.19-.14.39-.31.62-.5a4.27,4.27,0,0,0,.61-.59.34.34,0,0,1,.29-.14c.12,0,.2.12.26.33a.55.55,0,0,1,0,.39,1.07,1.07,0,0,1-.26.26,4,4,0,0,1-.5.31c-.2.1-.41.21-.64.31l-.68.27a5.55,5.55,0,0,1-.61.18q-.15,0-.18-.06C388.76,428.56,388.79,428.51,388.87,428.47Zm.29-1.88A4.14,4.14,0,0,0,390,426a7.47,7.47,0,0,0,.73-.76.26.26,0,0,1,.21-.1c.09,0,.15.09.19.25a.66.66,0,0,1,0,.39.62.62,0,0,1-.19.32,1.9,1.9,0,0,1-.36.21l-.48.19-.49.16-.42.11c-.07,0-.1,0-.1-.06A.12.12,0,0,1,389.16,426.59Z" transform="translate(-139.56 -144.32)"/><path class="cls-13" d="M418.39,388.56a.27.27,0,0,1-.17-.16.29.29,0,0,1,0-.2.6.6,0,0,1,.14-.21.94.94,0,0,1,.18-.17c.07-.05.18,0,.34.05a3.3,3.3,0,0,1,.46.35,4.57,4.57,0,0,1,.44.44,4.09,4.09,0,0,1,.24.34.3.3,0,0,1,0,.18s-.06,0-.18,0l-.84-.35v2.33a6.22,6.22,0,0,1,.66.58,2.47,2.47,0,0,1,.45.55c0,.07.06.12.05.15a.06.06,0,0,1-.05.06l-.1,0a.42.42,0,0,1-.12-.08l-.24-.16-.39-.23-.42-.23-.35-.18a3.83,3.83,0,0,0-.46-.19,5.07,5.07,0,0,1-.49-.19.6.6,0,0,1-.26-.23c0-.09,0-.21.2-.35a.94.94,0,0,1,.32-.14.49.49,0,0,1,.39.09l.31.21v-2.15Zm6.4-2.27a1.09,1.09,0,0,1,.62.19,1.33,1.33,0,0,1,.38.44,1.93,1.93,0,0,1,.18.56,2.37,2.37,0,0,1,0,.52q0,.13-.09.12s-.07-.05-.08-.14a1,1,0,0,0-.36-.68,1.11,1.11,0,0,0-.77-.27H421v3.38a.17.17,0,0,1-.07.14.51.51,0,0,1-.16.09.3.3,0,0,1-.16,0,.07.07,0,0,1-.08-.07V387a.23.23,0,0,1-.18-.13.68.68,0,0,1-.07-.28.6.6,0,0,1,.07-.27.27.27,0,0,1,.25-.12Zm-4.46,5.22a1.11,1.11,0,0,1,0-.42.33.33,0,0,1,.16-.22.3.3,0,0,1,.2,0,.36.36,0,0,0,.22.07,15.73,15.73,0,0,1,2,.1,6.75,6.75,0,0,1,1.41.31,3.28,3.28,0,0,1,1,.53,4.76,4.76,0,0,1,.8.76c0,.07.05.12,0,.16s-.06,0-.11,0a8,8,0,0,0-.93-.55,4.36,4.36,0,0,0-1-.34,9.72,9.72,0,0,0-1.39-.16c-.54,0-1.23,0-2.05,0a.37.37,0,0,1-.25-.08A.4.4,0,0,1,420.33,391.51Zm1.94-3.25a.64.64,0,0,1-.14-.21.4.4,0,0,1,0-.18.37.37,0,0,1,.11-.26.39.39,0,0,1,.2-.12.29.29,0,0,1,.2.05.22.22,0,0,1,.09.2v.95h1.06v-.38a.48.48,0,0,1-.13-.21.67.67,0,0,1,0-.18.37.37,0,0,1,.11-.26.39.39,0,0,1,.2-.12.25.25,0,0,1,.19.05.22.22,0,0,1,.09.2v.9h1.2c.05,0,.08,0,.1.1a.58.58,0,0,1,0,.23.56.56,0,0,1-.07.23.15.15,0,0,1-.15.1h-1.1v1.11a.17.17,0,0,1-.07.14.38.38,0,0,1-.15.09.26.26,0,0,1-.15,0,.08.08,0,0,1-.06-.09v-1.26h-1.06v.88a.17.17,0,0,1-.07.14l-.15.09a.2.2,0,0,1-.15,0,.08.08,0,0,1-.07-.09v-1h-.8a.23.23,0,0,1-.19-.11.48.48,0,0,1-.09-.25.4.4,0,0,1,.07-.24.32.32,0,0,1,.26-.11l.75,0Z" transform="translate(-139.56 -144.32)"/><path class="cls-13" d="M418.21,230.93a.62.62,0,0,1-.15-.22.38.38,0,0,1,0-.2.42.42,0,0,1,.11-.28.31.31,0,0,1,.2-.13.24.24,0,0,1,.2.05.25.25,0,0,1,.09.22v2.46a4.32,4.32,0,0,1,.36.43,1.57,1.57,0,0,1,.22.39.41.41,0,0,1,0,.15s0,0,0,0l-.1,0-.11-.06-.2-.15-.3-.2-.33-.21-.3-.18-.37-.16-.39-.19c-.12-.07-.18-.14-.18-.24s.08-.2.26-.33a.76.76,0,0,1,.26-.12.35.35,0,0,1,.29.08,2.39,2.39,0,0,1,.22.16l.25.22Zm1,6.07-.21-.15-.3-.2-.33-.2-.3-.17a1.93,1.93,0,0,0-.4-.18,4,4,0,0,1-.44-.18.38.38,0,0,1-.2-.24c0-.09.06-.2.23-.33a.83.83,0,0,1,.25-.12.41.41,0,0,1,.32.09,2.79,2.79,0,0,1,.41.3v-.9a.72.72,0,0,1-.15-.22.39.39,0,0,1,0-.2.45.45,0,0,1,.11-.29.35.35,0,0,1,.2-.13.24.24,0,0,1,.2,0,.25.25,0,0,1,.09.22V236a6.23,6.23,0,0,1,.44.46,2.68,2.68,0,0,1,.32.44.21.21,0,0,1,0,.15s0,0,0,.05l-.1,0Zm-.3-1.45a.56.56,0,0,1,.05-.27.94.94,0,0,1,.23-.29.32.32,0,0,1,.35-.07.49.49,0,0,1,.2.36c0,.06,0,.11-.11.15a1.25,1.25,0,0,1-.29.11,1.6,1.6,0,0,1-.29.05C418.93,235.59,418.88,235.58,418.88,235.55Zm0-3.48a.65.65,0,0,1,.07-.31,1,1,0,0,1,.27-.32.29.29,0,0,1,.35-.07.51.51,0,0,1,.2.37c0,.06,0,.11-.12.16a1,1,0,0,1-.31.13l-.31.07Q418.88,232.12,418.88,232.07Zm1.29,3.16a.23.23,0,0,1-.21-.11.48.48,0,0,1-.09-.26.43.43,0,0,1,.07-.25.3.3,0,0,1,.26-.12h.54v-1.67H420a.25.25,0,0,1-.22-.11.54.54,0,0,1-.09-.25.35.35,0,0,1,.08-.24.31.31,0,0,1,.26-.1h.71v-.54a.79.79,0,0,1-.15-.24.29.29,0,0,1,0-.19.57.57,0,0,1,.11-.31.41.41,0,0,1,.22-.14.22.22,0,0,1,.21,0,.3.3,0,0,1,.1.24v1.14l3,0V231a.74.74,0,0,1-.14-.22.34.34,0,0,1,0-.21.59.59,0,0,1,.12-.3.34.34,0,0,1,.21-.13.23.23,0,0,1,.2,0,.26.26,0,0,1,.09.23v6.46a.18.18,0,0,1-.07.15.24.24,0,0,1-.15.06.4.4,0,0,1-.15,0,.11.11,0,0,1-.07-.11v-1.68h-3v.8a.21.21,0,0,1-.08.16.33.33,0,0,1-.15.11.26.26,0,0,1-.15,0,.09.09,0,0,1-.07-.09v-1Zm1.75-1.27a.41.41,0,0,1-.13-.2.55.55,0,0,1,0-.17.41.41,0,0,1,.11-.25.39.39,0,0,1,.2-.12.27.27,0,0,1,.2,0,.23.23,0,0,1,.08.2v1l.64,0v-.68a.45.45,0,0,1-.16-.38.36.36,0,0,1,.11-.25.39.39,0,0,1,.2-.12.25.25,0,0,1,.19.05.22.22,0,0,1,.09.2v1.18h.79v-1.71h-3v1.67h.73Zm4.53,1.79s-.08,0-.21,0a4.09,4.09,0,0,1-.44-.2,2.08,2.08,0,0,1-.41-.27q-.18-.15-.15-.24a.57.57,0,0,1,.34-.39.37.37,0,0,1,.42.16l.17.24c.06.09.11.18.16.27a1.3,1.3,0,0,1,.1.25A.45.45,0,0,1,426.45,235.75Zm0-3.55a2.05,2.05,0,0,0-.55.2,2.12,2.12,0,0,0-.35.25s0,0-.06,0a.08.08,0,0,1-.05-.08,1.23,1.23,0,0,1,.11-.43.93.93,0,0,1,.39-.45.4.4,0,0,1,.33-.05.65.65,0,0,1,.33.17.25.25,0,0,1,.05.24A.27.27,0,0,1,426.44,232.2Z" transform="translate(-139.56 -144.32)"/><polygon class="cls-7" points="81.03 243.81 77.02 247.82 2.12 172.92 6.13 168.91 2.12 164.9 77.02 90 81.03 94.01 85.04 90 159.94 164.9 155.93 168.91 159.94 172.92 85.04 247.82 81.03 243.81"/><path class="cls-10" d="M224.6,236.44l72.78,72.78-1.88,1.89-2.13,2.12,2.13,2.12,1.88,1.89L224.6,390l-1.88-1.89L220.6,386l-2.13,2.12L216.59,390l-72.78-72.78,1.88-1.89,2.13-2.12-2.13-2.12-1.88-1.89,72.78-72.78,1.88,1.89,2.13,2.12,2.12-2.12,1.88-1.89m0-4.24-4,4-4-4-77,77,4,4-4,4,77,77,4-4,4,4,77-77-4-4,4-4-77-77Z" transform="translate(-139.56 -144.32)"/><polygon class="cls-7" points="90 260.8 94.01 256.79 90 252.78 164.9 177.88 168.91 181.89 172.92 177.88 247.82 252.78 243.81 256.79 247.82 260.8 172.92 335.7 168.91 331.69 164.9 335.7 90 260.8"/><path class="cls-10" d="M312.48,324.32l72.78,72.78L383.37,399l-2.12,2.12,2.12,2.12,1.89,1.89L312.48,477.9,310.59,476l-2.12-2.12L306.35,476l-1.89,1.89-72.77-72.78,1.88-1.89,2.12-2.12L233.57,399l-1.88-1.89,72.77-72.78,1.89,1.89,2.12,2.12,2.12-2.12,1.89-1.89m0-4.24-4,4-4-4-77,77,4,4-4,4,77,77,4-4,4,4,77-77-4-4,4-4-77-77Z" transform="translate(-139.56 -144.32)"/><polygon class="cls-7" points="177.88 172.92 181.89 168.91 177.88 164.9 252.78 90 256.79 94.01 260.8 90 335.7 164.9 331.69 168.91 335.7 172.92 260.8 247.82 256.79 243.81 252.78 247.82 177.88 172.92"/><path class="cls-10" d="M400.36,236.44l72.78,72.78-1.89,1.89-2.12,2.12,2.12,2.12,1.89,1.89L400.36,390l-1.89-1.89L396.35,386l-2.12,2.12L392.34,390l-72.78-72.78,1.89-1.89,2.12-2.12-2.12-2.12-1.89-1.89,72.78-72.78,1.89,1.89,2.12,2.12,2.12-2.12,1.89-1.89m0-4.24-4,4-4-4-77,77,4,4-4,4,77,77,4-4,4,4,77-77-4-4,4-4-77-77Z" transform="translate(-139.56 -144.32)"/><polygon class="cls-7" points="90 85.04 94.01 81.03 90 77.02 164.9 2.12 168.91 6.13 172.92 2.12 247.82 77.02 243.81 81.03 247.82 85.04 172.92 159.94 168.91 155.93 164.9 159.94 90 85.04"/><path class="cls-10" d="M312.48,148.57l72.78,72.78-1.89,1.88-2.12,2.12,2.12,2.13,1.89,1.88-72.78,72.78-1.89-1.88-2.12-2.13-2.12,2.13-1.89,1.88-72.77-72.78,1.88-1.88,2.12-2.13-2.12-2.12-1.88-1.88,72.77-72.78,1.89,1.88,2.12,2.13,2.12-2.13,1.89-1.88m0-4.25-4,4-4-4-77,77,4,4-4,4,77,77,4-4,4,4,77-77-4-4,4-4-77-77Z" transform="translate(-139.56 -144.32)"/><polygon class="cls-7" points="168.91 152.08 165.25 155.75 94.19 84.69 97.86 81.03 94.19 77.37 165.25 6.32 168.91 9.98 172.57 6.32 243.62 77.37 239.96 81.03 243.62 84.69 172.57 155.75 168.91 152.08"/><path class="cls-10" d="M312.13,151.35l70.35,70.34-3.66,3.66,3.66,3.67-70.35,70.34-3.66-3.66-3.66,3.66L234.47,229l3.66-3.67-3.66-3.66,70.34-70.34,3.66,3.66,3.66-3.66m0-1.42-.7.71-3,3-3-3-.71-.71-.71.71L233.76,221l-.71.7.71.71,3,2.95-3,3-.71.71.71.7,70.34,70.35.71.71.71-.71,3-3,3,3,.7.71.71-.71,70.35-70.35.7-.7-.7-.71-3-3,3-2.95.7-.71-.7-.7-70.35-70.35-.71-.71Z" transform="translate(-139.56 -144.32)"/><polygon class="cls-7" points="168.91 327.84 165.25 331.5 94.19 260.45 97.86 256.79 94.19 253.13 165.25 182.07 168.91 185.73 172.57 182.07 243.62 253.13 239.96 256.79 243.62 260.45 172.57 331.5 168.91 327.84"/><path class="cls-10" d="M312.13,327.1l70.35,70.35-3.66,3.66,3.66,3.66-70.35,70.35-3.66-3.66-3.66,3.66-70.34-70.35,3.66-3.66-3.66-3.66,70.34-70.35,3.66,3.67,3.66-3.67m0-1.41-.7.71-3,3-3-3-.71-.71-.71.71-70.34,70.34-.71.71.71.71,3,2.95-3,3-.71.7.71.71,70.34,70.35.71.7.71-.7,3-3,3,3,.7.7.71-.7,70.35-70.35.7-.71-.7-.7-3-3,3-2.95.7-.71-.7-.71L312.84,326.4l-.71-.71Z" transform="translate(-139.56 -144.32)"/><path class="cls-10" d="M269.37,229.43l-2.56-11.88c1.33.29,2.56.48,4.08.67,4.75-9.31,8.46-23.47,10.64-35l11.88,4.27c1.8.67,2.37,1.81,1.8,3.42-2.28,6.56-11.11,20.24-19.57,27.36a77.27,77.27,0,0,0,16.15-1.9,103.22,103.22,0,0,0,4.47-12.06l11.59,4.37a2.92,2.92,0,0,1,1.42,4.08c-3,7.41-19.38,27.08-31,36.29a144.08,144.08,0,0,0,20.81-3.51c-.95-4.37-2.09-8.27-3.33-10.45,14.54,7.79,22.14,19.19,17.1,21.66l-11.11,7.31a133.38,133.38,0,0,0-1.71-13.58c-7.32,5.6-18.62,11.31-25.18,13.11-1.52.47-2.66-.28-3.32-2.47l-4.18-12a39.55,39.55,0,0,0,5.89.19,194.91,194.91,0,0,0,16.34-28.12c-5.42,4.65-12.64,9.59-17.77,10.73C270.51,232.28,269.75,231.42,269.37,229.43Zm65-33.16h-30L302.15,192h32l3.42-4.75,13.68,5.13L348,196.75v42c0,15.39-6.17,25.27-13,28.31-3.52,1.62-5.89.95-7.6-1.33l-8-10.74c10,1.62,14.91-3.89,14.91-17.95Z" transform="translate(-139.56 -144.32)"/><polygon class="cls-7" points="256.79 239.96 253.13 243.62 182.07 172.57 185.73 168.91 182.07 165.25 253.13 94.19 256.79 97.86 260.45 94.19 331.5 165.25 327.84 168.91 331.5 172.57 260.45 243.62 256.79 239.96"/><path class="cls-10" d="M400,239.23l70.35,70.34-3.66,3.66,3.66,3.66L400,387.24l-3.66-3.66-3.66,3.66-70.35-70.35,3.67-3.66-3.67-3.66,70.35-70.34,3.66,3.66,3.66-3.66m0-1.42-.7.71-3,2.95-3-2.95-.71-.71-.71.71-70.34,70.34-.71.71.71.71,2.95,3-2.95,3-.71.7.71.71L392,388l.71.7.71-.7,3-3,3,3,.7.7.71-.7,70.35-70.35.7-.71-.7-.7-3-3,3-3,.7-.71-.7-.71-70.35-70.34-.71-.71Z" transform="translate(-139.56 -144.32)"/><path class="cls-10" d="M364.48,285.21h-7.22L355,280.93h13.59V270.77l17.29,2-3.61,3.14v5h3l3.89-3.61,4.75,7.89H382.25V292c12.16,4.46,12.44,10.44,9.5,13l-6.37,5.51a59.18,59.18,0,0,0-3.13-12v23.37H368.57V301.93c-4,5.7-8.55,10.74-14.16,14.06C359.35,307.54,362.68,295.75,364.48,285.21Zm-10,59.28c4.65-3.7,9.59-8.36,12.16-18.71,7.69,17.57,2.94,31.16-3.71,25.74Zm35-17.38-2.76,2.47v11.87c0,2.19,1.24,3.61,3,3.61h14.82c4.47,0,7.22-2.75,5.42-13.58l9.59,3.8c2.19,1.14,2.85,2.18,2.38,6.65-1,10.54-5.8,13.49-11.12,13.49H383.39c-7,0-10.36-4.18-10.36-12V324.54Zm8.26,14A61.32,61.32,0,0,0,388.42,322c19.57,2.28,21.28,10.45,17.2,13.49ZM419,321.22v-3.9H408.66v3.9H395V273.33l17.38,2-3.7,3.13v.76h9.59l3-4.37,14.16,5.7-2.76,4.37v36.3Zm-10.35-30.69H419v-7H408.66Zm0,11.21H419V294.8H408.66ZM419,313v-7H408.66v7Zm8.74,37.25c-1.14-6.84-3.7-16.91-8.17-23.85,20.71,4.85,20.9,15.58,16.72,18.34Z" transform="translate(-139.56 -144.32)"/><polygon class="cls-7" points="81.03 239.96 77.37 243.62 6.32 172.57 9.98 168.91 6.32 165.25 77.37 94.19 81.03 97.86 84.69 94.19 155.74 165.25 152.08 168.91 155.74 172.57 84.69 243.62 81.03 239.96"/><path class="cls-10" d="M224.26,239.23l70.34,70.34-3.66,3.66,3.66,3.66-70.34,70.35-3.66-3.66-3.67,3.66-70.34-70.35,3.66-3.66-3.66-3.66,70.34-70.34,3.67,3.66,3.66-3.66m0-1.42-.71.71-3,2.95-3-2.95-.71-.71-.7.71-70.35,70.34-.71.71.71.71,3,3-3,3-.71.7.71.71L216.23,388l.7.7.71-.7,3-3,3,3,.71.7.7-.7,70.35-70.35.71-.71-.71-.7-2.95-3,2.95-3,.71-.71-.71-.71L225,238.52l-.7-.71Z" transform="translate(-139.56 -144.32)"/><path class="cls-10" d="M201.6,292.84v15c3.52-.86,7.32-1.9,11.12-3.14-1.8,2.19-6.18,5.61-11.12,9.12v14.92c0,13.3-3.22,20.52-10.26,24.41-2.18,1.24-4.27,1.62-6-.66L178,343c8,.47,10-3.23,10-12.45v-8.17A47.87,47.87,0,0,1,182,325c-1.23.38-2.28.1-2.75-1.8l-2.66-11.12a54.81,54.81,0,0,0,11.3-1V292.84h-8.07l-2.28-4.28h10.35V269.37l17.39,1.9-3.71,3.14v14.15h2l3.8-3.61,5.7,7.89Zm27.18-5.32v4.94c0,2.28.85,3.23,3.13,3.23h10.36c4.46,0,6.27-.67,6.46-10.07l8.55,2.37c3.13.95,4,1.9,3.42,5.32-1.71,10-5.13,12.45-14.82,12.45H225c-5.52,0-9.89-3.9-9.89-11.4V269.28l17.49,2-3.8,3.23V284a75.36,75.36,0,0,0,18.52-14l8.84,7.41c1.14,1.23.76,2.18-.38,2.75A74.74,74.74,0,0,1,228.78,287.52Zm-13.59,66.59V307.94L232.67,310l-3.8,3.14v.28H245l2.57-3.61L261.27,315,258,319.25v34.86H244.36v-4.75H228.87v4.75Zm13.68-24.89h15.49V317.73H228.87Zm0,15.87h15.49V333.5H228.87Z" transform="translate(-139.56 -144.32)"/><path class="cls-10" d="M275,378.06l17.39,2-3.71,3.23v.1h15.39V372.83H270.92l-2.19-4.27h35.34V357.63l17.2,2.28-3.52,2.95v5.7h25.94l3.89-3.61,4.75,7.88H317.75v10.55h15.68l2.85-3.9,13.77,5.89-3.23,4.37V417.2c0,12.44-2.75,21.28-9.12,24.32-3.51,1.61-5.7,1-7.31-1.24l-6.65-9.12c7-.47,9.4-4.65,9.4-11.59V387.65H288.68v54.06H275Zm42.75,30.3v8.74h6l3.8-3.61,4.75,7.89H317.75v17.67H304.07V421.38H291.72l-2.18-4.28h14.53v-8.74h-10l-2.19-4.27h7.89a40.58,40.58,0,0,0-6-14.16c13,1.24,19.29,7,15.2,10l-5.79,4.18h8.93a85.42,85.42,0,0,0,3.61-15.58l10.45,2.94c1.42.48,2.56,1.62,1,3.61-2.18,3.33-6.27,6.56-10.35,9h5.22l3.9-3.61,4.75,7.88Z" transform="translate(-139.56 -144.32)"/><circle class="cls-10" cx="168.91" cy="168.91" r="39.51"/><path class="cls-7" d="M308.44,352.25a38.64,38.64,0,0,1-16.78-3.79,20.44,20.44,0,0,0,4.51.5,20.26,20.26,0,0,0,12.61-36.12,19.26,19.26,0,0,1,24-30.15,39,39,0,0,1-24.29,69.56Z" transform="translate(-139.56 -144.32)"/><path class="cls-10" d="M320.78,279a18.56,18.56,0,0,1,11.65,4.07,38.54,38.54,0,0,1-37.16,66.36l.9,0a20.76,20.76,0,0,0,12.93-37A18.75,18.75,0,0,1,320.78,279m0-1a19.75,19.75,0,0,0-12.31,35.22,19.76,19.76,0,1,1-24.58,30.94,39.51,39.51,0,1,0,49.16-61.87A19.64,19.64,0,0,0,320.78,278Z" transform="translate(-139.56 -144.32)"/><circle class="cls-7" cx="155.36" cy="183.38" r="5.34"/><circle class="cls-10" cx="179.28" cy="153.28" r="5.34"/><circle class="cls-14" cx="15.5" cy="168.91" r="2.83"/><circle class="cls-10" cx="15.5" cy="168.91" r="1.48"/><circle class="cls-14" cx="81.03" cy="103.37" r="2.83"/><circle class="cls-10" cx="81.03" cy="103.37" r="1.48"/><circle class="cls-14" cx="81.03" cy="234.44" r="2.83"/><circle class="cls-10" cx="81.03" cy="234.44" r="1.48"/><circle class="cls-14" cx="103.26" cy="256.68" r="2.83"/><circle class="cls-10" cx="103.26" cy="256.68" r="1.48"/><circle class="cls-14" cx="168.91" cy="322.32" r="2.83"/><circle class="cls-10" cx="168.91" cy="322.32" r="1.48"/><circle class="cls-14" cx="234.44" cy="256.79" r="2.83"/><circle class="cls-10" cx="234.44" cy="256.79" r="1.48"/><circle class="cls-14" cx="256.79" cy="234.44" r="2.83"/><circle class="cls-10" cx="256.79" cy="234.44" r="1.48"/><circle class="cls-14" cx="322.32" cy="168.91" r="2.83"/><circle class="cls-10" cx="322.32" cy="168.91" r="1.48"/><circle class="cls-14" cx="256.79" cy="103.37" r="2.83"/><circle class="cls-10" cx="256.79" cy="103.37" r="1.48"/><circle class="cls-14" cx="234.44" cy="81.03" r="2.83"/><circle class="cls-10" cx="234.44" cy="81.03" r="1.48"/><circle class="cls-14" cx="168.91" cy="15.5" r="2.83"/><circle class="cls-10" cx="168.91" cy="15.5" r="1.48"/><circle class="cls-14" cx="103.37" cy="81.03" r="2.83"/><circle class="cls-10" cx="103.37" cy="81.03" r="1.48"/><path class="cls-10" d="M298.54,179a13.31,13.31,0,0,1-6.73,3.42,14.72,14.72,0,0,0,5.4-5.57h-.83v.72h-2.59v-7.25l3.29.38-.7.61v.12h2.16V169.9h-6l-.41-.81h6.39v-2.16l3.29.38-.7.61v1.17h4.74l.74-.66.9,1.47h-6.38v1.53h1.95l.61-.86,2.68,1-.54.83v5.22h-2.59v-.72h-1.71a9.13,9.13,0,0,0,6.17,2.81l-1.35,1.8c-.3.42-.57.63-1.29.36a7.2,7.2,0,0,1-3.93-4.25V183h-2.59Zm-2.16-5.26h2.16v-1.5h-2.16Zm0,2.3h2.16v-1.49h-2.16Zm4.75-3.8v1.5h2.11v-1.5Zm2.11,3.8v-1.49h-2.11V176Z" transform="translate(-139.56 -144.32)"/><path class="cls-10" d="M318.18,169.65h5.33l.72-.68.92,1.49h-9.44v2.09c0,.34,0,.67,0,1h4.46l.65-.88,2.74,1.06-.74,1.05v1.85c0,3.64-1.14,5.42-2.61,6.23a1,1,0,0,1-1.42-.18L317,180.71c2.27.09,3.16-.83,3.16-4.13v-2.25h-4.6a10,10,0,0,1-6.5,8.66c2.67-2.57,4-6.14,4-10.93v-1.6h-3.05l-.41-.81H317a6.13,6.13,0,0,0-1.65-2.7c3.28.09,5.26.9,3.53,2.16Z" transform="translate(-139.56 -144.32)"/><rect class="cls-10" x="286.15" y="173.84" width="3.62" height="3.62" transform="translate(68.99 -296.5) rotate(45)"/><rect class="cls-10" x="327.17" y="173.84" width="3.62" height="3.62" transform="translate(546.25 -77.09) rotate(135)"/></svg>