<svg id="图层_1" data-name="图层 1" xmlns="http://www.w3.org/2000/svg" viewBox="0 0 1106.36 1569.87"><path d="M947.05,55.07a357.68,357.68,0,0,1,137.58,27.51,756.14,756.14,0,0,1,342.89,282.49A762.23,762.23,0,0,1,1554,779.42a755.11,755.11,0,0,1-58,296.14c-58.66,141.62-157.15,260.71-284.82,344.41a763.36,763.36,0,0,1-363.65,123,439.16,439.16,0,0,0,199.75-220.34c45-108.59,45-228.18,0-336.77S917.68,792.74,809.1,747.77a360,360,0,0,1-59.94-633.49A361.5,361.5,0,0,1,947,55.07h0m0-40c-156.95,0-305.91,93-369.71,247-84.54,204.1,12.38,438.08,216.48,522.62s301,318.53,216.48,522.63c-63.81,154-212.74,247-369.71,247a398.93,398.93,0,0,1-152.92-30.55,797.6,797.6,0,0,0,305.84,61.1c313.91,0,611.81-186,739.41-494.06C1702,682.67,1508.13,214.7,1099.94,45.62A398.52,398.52,0,0,0,947,15.07Z" transform="translate(-487.64 -15.07)"/><ellipse cx="459.22" cy="400.1" rx="99.99" ry="99.99"/></svg>