<svg id="Layer_1" data-name="Layer 1" xmlns="http://www.w3.org/2000/svg" viewBox="0 0 364 364">
  <g id="Border1">
    <!-- 白色多边形 -->
    <polygon 
      points="22 360 22 342 4 342 4 22 22 22 22 4 342 4 342 22 360 22 360 342 342 342 342 360 22 360" 
      fill="#ffffff"
    />
    
    <!-- 黑色路径1 -->
    <path 
      d="M756,426v18h18V756H756v18H444V756H426V444h18V426H756m8-8H436v18H418V764h18v18H764V764h18V436H764V418Z" 
      transform="translate(-418 -418)"
      fill="#000000"
    />
    
    <!-- 黑色路径2 -->
    <path 
      d="M749.7857,433.5v16.7143H766.5V749.7857H749.7857V766.5H450.2143V749.7857H433.5V450.2143h16.7143V433.5H749.7857m2.5-2.5H447.7143v16.7143H431V752.2857h16.7143V769H752.2857V752.2857H769V447.7143H752.2857V431Z" 
      transform="translate(-418 -418)"
      fill="#000000"
    />
  </g>
</svg>
